<svg width="1600" height="600" fill="none" xmlns="http://www.w3.org/2000/svg"><path opacity=".1" d="M727.852 513.581s-112.383-56.721-65.404-110.838c46.979-54.118 206.726-50.838 193.221-111.225-13.506-60.387-47.076-80.549-25.274-126.37 26.142-54.985 102.542-10.418 139.585 8.875 68.88 35.789 145.08 39.744 118.65-10.322-26.43-50.065-54.4-69.166-29.32-97.72 34.15-38.875 180.77 75.051 261.13 187.626 48.14 67.333 83.15 20.451 78.33-22.766-3.09-27.493-37.14-84.214-1.45-109.971 34.44-24.791 114.99 51.995 142.29 99.36 71.58 124.055-9.36 293.351-9.36 293.351H727.852z" fill="url(#paint0_linear)"/><path d="M1131.17 78.522c2.8-.29 93.19-1.157 95.79 1.35 2.42 2.316 25.86 58.748 36.28 83.926-14.96 20.45-47.56 71.481-51.03 72.831-3 1.061-86.05-157.528-81.04-158.107z" fill="url(#paint1_linear)"/><path d="M1110.72 165.534c-15.72 18.521-46.98 65.693-45.34 70.516.87 2.701 38.01 85.179 41.29 86.433 3.09 1.158 64.15-1.157 91.35-2.218-14.95-31.93-85.17-157.239-87.3-154.731z" fill="url(#paint2_linear)"/><path d="M1190.31 353.545c-11.87-2.218-83.25-3.472-83.25-3.472s-.2.289-.48.868c-4.15 9.839-37.72 84.214-40.91 85.372-.29.096-1.25.193-2.79.289l32.51 56.432a918.18 918.18 0 0 1 9.16 15.724c27.2 1.061 88.27 3.377 91.35 2.219 2.7-1.061 27.01-54.214 37.05-76.69-12.35-22.187-44.96-72.928-44.67-76.594.1-.386.77-1.833 2.03-4.148z" fill="url(#paint3_linear)"/><path d="M1320.44 279.749c-2.12-2.508-84.89-3.955-84.89-3.955s-36.37 60.87-45.24 77.751c.87.193 1.44.386 1.64.483 15.72 18.521 46.98 65.693 45.34 70.516-.2.579-1.84 4.244-4.25 9.743 0 .096.1.096.1.193 27.2 1.061 88.26 3.376 91.35 2.219 3.28-1.255 40.42-83.733 41.29-86.434 1.64-4.823-29.71-51.994-45.34-70.516z" fill="url(#paint4_linear)"/><path d="M1191.85 354.028c-.19-.193-.67-.386-1.64-.483-1.25 2.315-1.93 3.762-1.93 4.148-.29 3.666 32.32 54.407 44.67 76.594 2.5-5.595 4.05-9.261 4.24-9.743 1.64-4.823-29.62-51.995-45.34-70.516z" fill="url(#paint5_linear)"/><path d="M1191.85 354.028c-.19-.193-.67-.386-1.64-.483-1.25 2.315-1.93 3.762-1.93 4.148-.29 3.666 32.32 54.407 44.67 76.594 2.5-5.595 4.05-9.261 4.24-9.743 1.64-4.823-29.62-51.995-45.34-70.516z" fill="#8C2327"/><path d="M1059.79 431.972c.19-3.087 41.58-72.446 46.69-81.031.19-.579.38-.869.38-1.061 1.64-4.824-29.61-51.995-45.33-70.517-2.13-2.508-71.388 122.608-87.305 154.731 14.952.579 40.125 1.543 60.295 2.122h27.1c-1.25-2.219-1.83-3.666-1.83-4.244z" fill="url(#paint6_linear)"/><path d="M1061.53 436.216h1.06l.19.386c1.45-.096 2.51-.096 2.8-.289 3.18-1.254 36.75-75.533 40.9-85.372-5.11 8.585-46.5 77.944-46.69 81.031 0 .578.58 2.025 1.74 4.244z" fill="url(#paint7_linear)"/><path d="M1061.53 436.216h1.06l.19.386c1.45-.096 2.51-.096 2.8-.289 3.18-1.254 36.75-75.533 40.9-85.372-5.11 8.585-46.5 77.944-46.69 81.031 0 .578.58 2.025 1.74 4.244z" fill="#2B5BA6"/><path d="M1034.52 436.216h-60.681l-44.374 76.883h177.495l-11.57-20.065c-11.97-19.872-28.08-45.724-33.57-56.335-5.31.096-15.44-.097-27.3-.483z" fill="url(#paint8_linear)"/><path d="M1061.82 436.699c5.49 10.611 21.7 36.463 33.57 56.335l-32.51-56.335c-.39-.097-.78 0-1.06 0z" fill="#86291E"/><path d="M1061.82 436.698c-.1-.096-.1-.289-.2-.385h-27.1c11.86.289 21.99.482 27.3.385z" fill="url(#paint9_linear)"/><path d="M1061.53 436.216c.09.097.09.29.19.386h1.06l-.19-.386h-1.06z" fill="url(#paint10_linear)"/><path d="M1357.1 436.699h-88.75l-44.38 76.883h177.5l-44.37-76.883z" fill="url(#paint11_linear)"/><path d="M1442.47 161.579c-12.35-21.994-23.93-41.673-24.6-40.901-9.65 11.382-28.84 40.226-27.78 43.216.58 1.64 23.34 52.188 25.37 52.96 1.73.675 34.15-.483 52.09-1.254-14.18-26.143-29.04-54.214-29.04-54.214s1.45.193 3.96.193z" fill="url(#paint12_linear)"/><path d="M1490.51 163.991c-1.06-1.254-35.98-2.123-48.04-2.316 11.86 21.126 24.4 44.375 28.94 53.925-1.26 0-2.51.096-3.96.193 12.54 23.151 24.6 44.856 25.47 44.47 2.03-.772 24.79-51.319 25.37-52.959.96-3.087-18.14-32.027-27.78-43.313z" fill="url(#paint13_linear)"/><path d="M1442.47 161.579c-2.51-.097-4.05-.097-4.05-.097s14.85 27.975 29.03 54.214c1.45-.096 2.7-.096 3.96-.193-4.54-9.55-17.08-32.798-28.94-53.924z" fill="url(#paint14_linear)"/><path d="M1442.47 161.579c-2.51-.097-4.05-.097-4.05-.097s14.85 27.975 29.03 54.214c1.45-.096 2.7-.096 3.96-.193-4.54-9.55-17.08-32.798-28.94-53.924z" fill="#3F945D"/><path d="M341.507 176.724c.965.289 30.001 13.409 30.484 14.566.385 1.061-.386 22.67-.772 32.22-7.814 4.341-25.756 15.917-27.107 15.82-1.158-.096-4.341-63.185-2.605-62.606z" fill="url(#paint15_linear)"/><path d="M388.486 244.443c7.814.868 26.046.675 27.107-.579.579-.772 15.917-25.563 15.627-26.624-.193-1.062-59.133 5.305-59.133 5.305s15.338 21.801 16.399 21.898z" fill="url(#paint16_linear)"/><path d="M1465.04 391.07c7.81.869 26.05.676 27.11-.578.58-.772 15.91-25.564 15.63-26.625-.2-1.061-59.14 5.306-59.14 5.306s15.34 21.801 16.4 21.897z" fill="url(#paint17_linear)"/><path d="M785.442 161.965a84.845 84.845 0 0 1-1.93 3.376c-16.013.579-52.091 2.026-53.924 1.351-.386-.193 1.351-3.666 4.245-9.358-1.158.193-1.93.483-2.123.772-1.061 1.351-29.229 46.69-28.746 48.715.386 1.93 108.138-9.357 108.138-9.357s-17.364-24.792-25.66-35.499z" fill="url(#paint18_linear)"/><path d="M729.588 166.692c1.833.675 37.911-.676 53.924-1.351a137.775 137.775 0 0 1 1.93-3.376c-2.219-2.894-3.859-4.727-4.245-4.823-12.444-1.447-39.454-1.447-47.364.193-2.991 5.691-4.631 9.26-4.245 9.357z" fill="url(#paint19_linear)"/><path d="M729.588 166.692c1.833.675 37.911-.676 53.924-1.351a137.775 137.775 0 0 1 1.93-3.376c-2.219-2.894-3.859-4.727-4.245-4.823-12.444-1.447-39.454-1.447-47.364.193-2.991 5.691-4.631 9.26-4.245 9.357z" fill="#84251D"/><path d="M703.543 208.075c8.971 10.515 26.817 37.429 25.852 40.226-.482 1.544-21.704 48.619-23.634 49.391-1.736.675-50.741-91.835-50.741-91.835s47.365.771 48.523 2.218z" fill="url(#paint20_linear)"/><path d="M528.747 87.976c0 .193.193.675.579 1.35 2.604.193 4.437.386 4.63.58 4.92 5.787 14.47 20.16 14.663 22.572 9.357.386 22.284.772 23.055.482 1.061-.386 12.734-26.431 13.023-27.3.482-1.64-55.853 1.255-55.95 2.316z" fill="url(#paint21_linear)"/><path d="M529.229 89.23c-7.813-.483-22.765-.772-22.765-.772s17.653 33.281 25.273 46.593c1.93.096 3.184.289 3.28.482.579.675 1.158 1.351 1.737 2.219 3.569-6.849 11.479-24.502 11.672-25.178v-.192c-2.122-.097-4.148-.193-5.691-.193-3.184-5.981-11.287-18.715-13.506-22.96z" fill="url(#paint22_linear)"/><path d="M529.229 89.23c2.123 4.244 10.226 16.881 13.602 22.862 1.64.097 3.569.097 5.692.193-.097-2.315-9.743-16.688-14.567-22.476-.193-.193-2.025-.386-4.727-.58z" fill="url(#paint23_linear)"/><path d="M529.229 89.23c2.123 4.244 10.226 16.881 13.602 22.862 1.64.097 3.569.097 5.692.193-.097-2.315-9.743-16.688-14.567-22.476-.193-.193-2.025-.386-4.727-.58z" fill="#409661"/><path d="M535.21 140.453c-.193.096-1.543-2.026-3.473-5.402-7.331-.482-24.116-.868-24.116-.868s27.686 52.38 28.747 51.995c1.061-.386 13.023-27.011 13.312-27.879.482-1.447-7.524-13.698-12.926-20.547-.772 1.64-1.351 2.701-1.544 2.701z" fill="url(#paint24_linear)"/><path d="M531.737 135.147c1.93 3.377 3.28 5.499 3.473 5.403.193-.097.772-1.158 1.64-2.702a28.433 28.433 0 0 1-1.736-2.218c-.193-.193-1.447-.386-3.377-.483z" fill="url(#paint25_linear)"/><path d="M531.737 135.147c1.93 3.377 3.28 5.499 3.473 5.403.193-.097.772-1.158 1.64-2.702a28.433 28.433 0 0 1-1.736-2.218c-.193-.193-1.447-.386-3.377-.483z" fill="url(#paint26_linear)"/><path d="M1127.32 494.288l2.21-1.639c.39.771 1.07 1.157 1.55 1.157.87 0 1.35-.386 1.35-2.026v-7.91h3.28v8.2c0 2.508-1.35 4.63-4.25 4.63-1.93-.096-3.18-.868-4.14-2.412zm13.31-10.418h4.05l3.86 12.541h-3.47l-.58-2.701h-3.48l-.58 2.701h-3.37l3.57-12.541zm.77 7.332h2.31l-.19-.869c-.29-1.157-.58-2.701-.96-3.955h-.1c-.29 1.254-.58 2.798-.87 3.955l-.19.869zm6.37-7.332h3.47l1.35 5.499c.39 1.35.58 2.604.96 3.955h.1c.39-1.351.58-2.605.97-3.955l1.25-5.499h3.38l-3.67 12.541h-4.05l-3.76-12.541zm14.56 0h4.05l3.86 12.541h-3.47l-.58-2.701h-3.47l-.58 2.701h-3.38l3.57-12.541zm.77 7.332h2.32l-.19-.869c-.29-1.157-.58-2.701-.97-3.955h-.09c-.29 1.254-.58 2.798-.87 3.955l-.2.869z" fill="#E2D4E9"/><path d="M1257.93 421.071c0-1.158.77-2.026 1.93-2.026s1.93.868 1.93 2.026-.77 2.026-1.93 2.026c-1.16-.097-1.93-.965-1.93-2.026zm6.37-10.804h3.37l2.8 5.595 1.16 2.797h.09c-.19-1.35-.38-3.279-.38-4.823v-3.665h3.18v12.54h-3.37l-2.8-5.595-1.16-2.797h-.1c.2 1.447.39 3.279.39 4.823v3.666h-3.18v-12.541zm12.92 0h8.11v2.797h-4.83v1.93h4.05v2.797h-3.95v2.219h5.02v2.797h-8.3v-12.54h-.1zm13.12 2.797h-3.28v-2.797h9.94v2.797h-3.28v9.743h-3.28v-9.743h-.1z" fill="#FBBA23"/><path d="M1129.24 293.447h4.64c2.7 0 5.11.965 5.11 4.148 0 3.087-2.41 4.438-5.02 4.438h-1.35v3.955h-3.28v-12.541h-.1zm4.54 5.885c1.35 0 1.93-.676 1.93-1.737 0-1.157-.77-1.543-2.03-1.543h-1.16v3.28h1.26zm6.94-5.885h3.28v4.631h3.77v-4.631h3.28v12.541h-3.28v-5.016H1144v5.016h-3.28v-12.541zm13.12 0h4.63c2.7 0 5.12.965 5.12 4.148 0 3.087-2.42 4.438-5.02 4.438h-1.35v3.955h-3.28v-12.541h-.1zm4.54 5.885c1.35 0 1.93-.676 1.93-1.737 0-1.157-.78-1.543-2.03-1.543h-1.16v3.28h1.26z" fill="#CBE8C8"/><path d="M1008.86 421.264l1.93-2.315c.86.675 2.02 1.254 2.89 1.254.96 0 1.45-.289 1.45-.868s-.68-.772-1.74-1.254l-1.54-.676c-1.35-.578-2.51-1.639-2.51-3.472 0-2.123 1.93-3.859 4.63-3.859 1.45 0 2.99.579 4.15 1.64l-1.64 2.122c-.87-.579-1.55-.868-2.51-.868-.77 0-1.35.289-1.35.868s.67.772 1.83 1.254l1.54.579c1.55.579 2.42 1.736 2.42 3.473 0 2.122-1.74 4.051-4.92 4.051-1.45-.193-3.28-.771-4.63-1.929zm15.43 1.64c-2.6-.579-4.34-2.894-4.34-6.367 0-4.148 2.31-6.463 5.79-6.463 3.47 0 5.79 2.315 5.79 6.463 0 3.28-1.45 5.499-3.86 6.271.58.771 1.73 1.061 2.6 1.061.58 0 1.06-.097 1.45-.193l.58 2.411c-.49.29-1.35.483-2.41.483-2.71-.193-4.63-1.64-5.6-3.666zm3.86-6.463c0-2.315-.97-3.569-2.41-3.569-1.55 0-2.41 1.35-2.41 3.569 0 2.508.96 3.858 2.41 3.858 1.54 0 2.41-1.35 2.41-3.858zm5.59-6.174h3.28v9.743h4.73v2.797h-8.01v-12.54z" fill="#CCEAFF"/><path d="M973.164 222.642c-10.033 18.232-65.983 137.077-87.302 154.73-12.347-22.09-45.049-73.121-44.76-76.786.193-3.28 47.172-81.899 47.172-81.899s86.53 1.061 84.89 3.955z" fill="url(#paint27_linear)"/><path d="M1146.8 377.179l4.54.29-5.21 78.04-12.93-.868c-11.19-.772-19.2-12.637-17.17-25.467l4.34-27.589c2.22-14.759 13.7-25.274 26.43-24.406z" fill="#151639"/><path d="M1163.3 425.219l2.22-33.184-37.05-2.508-.96 28.65c-1.06 8.489 5.21 16.11 13.7 16.689l1.54.096 2.12 13.023s2.7 13.216 19.3 0c9.35-7.428 2.89-18.039-.87-22.766z" fill="#B77368"/><path d="M1143.04 423c-.1 2.991-2.61 5.306-5.5 5.21-2.99-.097-5.3-2.605-5.21-5.499l10.71.289z" fill="#fff"/><path d="M1177.38 406.794c-.48-15.627-10.32-27.975-22.96-28.843l-3.08-.193-.29 4.534-7.14-.482c-5.12-.386-13.31 2.315-16.4 5.884-2.22 2.508-.1 5.209-.29 8.778l-.48 6.753c6.65.482 13.12-2.122 17.65-6.946l6.17-6.559-.67 9.646c-.39 5.788.58 11.673 2.7 16.785l4.92 11.769c4.44 10.708 3.47 23.731-2.51 33.57l8.59.579c8.29.579 15.24-7.91 14.95-18.136l-1.16-37.139z" fill="#151639"/><path d="M1185.29 453.387c-2.51-2.508-6.08-3.859-9.74-3.376h-.29l-41.48-2.798c-6.75-.482-12.54 4.824-12.64 11.576v1.736a51.785 51.785 0 0 0 27.59 7.911c14.28 0 27.2-5.692 36.56-15.049z" fill="url(#paint28_linear)"/><path d="M1277.22 399.559c14.47-1.254 27.11-8.296 35.7-18.714-2.71-2.122-6.28-3.087-9.84-2.412-.1 0-.2 0-.29.097l-41.58.772c-6.75.096-12.06 5.884-11.67 12.637l.19 2.411c8.2 4.148 17.65 6.078 27.49 5.209z" fill="url(#paint29_linear)"/><path d="M1267.87 308.399l4.53-.096 1.16 63.474-13.03.193c-11.28.193-20.16-8.778-19.19-19.389l2.02-22.573c1.06-11.962 11.68-21.319 24.51-21.609z" fill="#FAFAFA"/><path d="M1294.59 372.453c-.97-6.271-4.05-12.348-6.27-16.207l-.58-34.631-37.14.676 1.54 28.553c-.38 8.489 6.56 15.628 15.05 15.435h1.54l3.28 12.83s5.6 19.196 21.03 4.63c1.74-1.64 2.22-6.945 1.55-11.286z" fill="#FFC7BD"/><path d="M1267.96 354.413c.2 2.991-2.12 5.499-5.11 5.595-2.99.193-5.5-2.122-5.6-5.112l10.71-.483z" fill="#fff"/><path d="M1304.72 356.246l-4.06-27.685c-1.73-11.673-12.54-20.258-25.17-20.065l-3.09.096.1 4.534-7.14.097c-5.12.096-13.03 3.376-15.82 7.235-1.93 2.701.38 5.209.48 8.778l.1 6.849c6.65-.096 12.92-3.183 16.97-8.489l5.6-7.042.1 4.341c.09 4.437 1.44 8.682 4.05 12.348l5.78 8.489c5.31 7.717 5.41 17.556.2 25.274l8.58-.193c8.11-.097 14.47-6.946 13.32-14.567z" fill="#FAFAFA"/><path d="M1161.17 152.704c0-2.026-2.89-11.479-2.5-16.496 2.31-.289 8.29 3.184 8.29 3.184 4.63 2.508 9.07 8.006 13.8 7.138l1.25-.193c2.03-.289 4.15.965 4.63 2.991.58 2.315-.96 4.534-3.28 4.92l-.77.096c.96 1.833 2.12 3.762 2.99 5.691 1.25 2.701 2.03 5.595 2.7 8.586.58 2.412 1.16 4.92 1.35 7.428.29 5.209-1.44 9.936-5.3 13.408-.1.097-.29.29-.39.386-6.75 5.788-11 .483-11 .483s10.42-9.743 9.26-16.11l-.86-4.63s-7.34 6.077-10.62 4.437c-3.27-1.64-5.3-12.637-5.3-12.637h-3.47c-.97 0-1.74-.868-1.55-1.833.29-2.219.77-5.498.77-6.849z" fill="#936037"/><path d="M1166.38 166.209c2.22-.386 3.77-1.35 3.77-1.35s-2.32 5.788-2.61 5.016l-1.06-2.122-.1-1.544z" fill="#fff"/><path d="M1210.47 174.216c-.68.579-1.45.965-2.22 1.254-7.91 2.508-12.73 14.952-14.47 22.862a52.402 52.402 0 0 0 25.95-15.338c-1.54-3.569-4.34-4.534-9.26-8.778z" fill="url(#paint30_linear)"/><path d="M1181.63 199.876c.86-5.209 2.6-8.779 4.24-11.962-3.67 1.447-7.23 2.122-10.61 1.64l-.77-.386c-3.38 3.183-5.98 5.981-8.01 8.489 4.73 1.447 9.74 2.122 14.86 2.122.09.097.19.097.29.097z" fill="url(#paint31_linear)"/><path d="M1212.98 150.1c-5.21-23.827-13.12-30.484-20.84-34.342-7.81-3.859-16.98 5.305-16.98 5.305-4.92-2.218-20.64.386-25.56 6.946-4.92 6.56 6.75 18.232 11 21.222-.58-2.604-1.35-5.981-1.64-8.971v-.096c-.2-1.351-.2-2.605-.1-3.666 2.31-.29 8.3 3.183 8.3 3.183 4.63 2.508 9.06 8.007 13.79 7.139l1.25-.193c2.03-.29 4.15.964 4.63 2.99.58 2.315-.96 4.534-3.28 4.92 0 0-.57.096-.67.096.1.193.19.386.29.676.87 1.64 1.93 3.376 2.7 5.016 1.25 2.701 2.03 5.595 2.7 8.585.58 2.412 1.35 4.92 1.35 7.428 0 4.63-1.83 7.814-3.76 11.672-1.64 3.087-3.28 6.753-4.25 11.962 4.15 0 8.2-.579 12.06-1.447 1.84-8.006 6.66-20.45 14.47-22.862.87-.29 1.64-.675 2.22-1.254 4.44-4.052 4.44-14.566 2.32-24.309z" fill="#1D1D1B"/><path d="M941.137 273.575h-6.753v.965h6.753v-.965z" fill="#323756"/><path d="M953.87 318.046c-2.701-3.28-6.656-7.042-10.9-7.621-7.621-1.061-22.862 0-22.862 0l-20.548 2.798-17.17 10.418c8.971 7.235 20.354 11.576 32.701 11.576 15.435.096 29.229-6.56 38.779-17.171z" fill="url(#paint32_linear)"/><path d="M909.11 293.64l-11.382.868c-2.026.193-3.763-1.35-3.859-3.279l-.965-12.059 14.952-1.254 1.254 15.724zm26.143-21.897l-13.313 1.061-1.543-19.197 12.926-1.061c1.833-.193 3.377 1.254 3.57 2.99l1.061 12.927c.193 1.736-1.061 3.183-2.701 3.28z" fill="#5C3A34"/><path d="M936.121 269.717c-.579-8.779-9.84-15.724-18.715-15.628-9.164.097-16.399 7.621-16.302 16.785l.386 23.249-1.351-.097-.965 16.013c-.289 5.692 4.052 10.612 9.744 10.901 5.691.289 10.611-4.052 10.9-9.743l.579-10.708 7.814-.096c4.244-.097 6.656-3.762 6.463-8.007l1.447-22.669z" fill="#FFCAC0"/><path d="M933.323 286.791c.193 2.508-1.64 4.727-4.148 4.92-2.508.193-4.727-1.64-4.919-4.148l9.067-.772z" fill="#fff"/><path d="M939.69 271.646h-6.753c-.771 0-1.447.675-1.447 1.447v.482h-2.894v-.482c0-.772-.675-1.447-1.447-1.447h-6.752c-.772 0-1.447.675-1.447 1.447v.482h-19.293v.965h19.293v1.447c0 .772.675 1.447 1.447 1.447h6.752c.772 0 1.447-.675 1.447-1.447v-1.447h2.894v1.447c0 .772.676 1.447 1.447 1.447h6.753c.772 0 1.447-.675 1.447-1.447v-2.894c0-.868-.579-1.447-1.447-1.447zm-12.058 4.341c0 .289-.193.482-.483.482h-6.752c-.289 0-.482-.193-.482-.482v-2.894c0-.289.193-.482.482-.482h6.752c.29 0 .483.193.483.482v2.894zm12.54 0c0 .289-.193.482-.482.482h-6.753c-.289 0-.482-.193-.482-.482v-2.894c0-.289.193-.482.482-.482h6.753c.289 0 .482.193.482.482v2.894z" fill="#323756"/><path d="M925.124 254.958c-.29-3.28-4.052-5.692-8.586-5.306l-11.479.965c-4.438.385-7.814 3.376-7.621 6.656 0 .096 0 .193.097.289l-2.219.193c-2.315.193-3.955 2.219-3.859 4.437l1.544 19.197 17.267-1.35-1.447-17.654 8.682-.675c4.437-.386 7.91-3.376 7.621-6.752z" fill="#5C3A34"/><path d="M901.49 283.511l4.534-.386-.386-4.533c-.193-2.509-2.412-4.341-4.824-4.148-2.508.192-4.341 2.411-4.148 4.823.193 2.604 2.412 4.437 4.824 4.244z" fill="#FFCAC0"/><path d="M445.208 232.617c0-1.64 1.254-2.894 2.894-2.894 1.64 0 2.894 1.35 2.894 2.894 0 1.64-1.254 2.894-2.894 2.894-1.64 0-2.894-1.254-2.894-2.894zm8.682-11.576c0-1.64 1.254-2.894 2.894-2.894 1.64 0 2.894 1.351 2.894 2.894 0 1.64-1.254 2.894-2.894 2.894-1.64 0-2.894-1.254-2.894-2.894zm-26.046 11.576c0-1.64 1.254-2.894 2.894-2.894 1.64 0 2.894 1.35 2.894 2.894 0 1.64-1.254 2.894-2.894 2.894-1.64 0-2.894-1.254-2.894-2.894zm8.682-11.576c0-1.64 1.254-2.894 2.894-2.894 1.64 0 2.894 1.351 2.894 2.894 0 1.64-1.254 2.894-2.894 2.894-1.64 0-2.894-1.254-2.894-2.894zm0 23.152c0-1.64 1.254-2.894 2.894-2.894 1.64 0 2.894 1.35 2.894 2.894 0 1.64-1.254 2.894-2.894 2.894-1.64 0-2.894-1.254-2.894-2.894zm-26.046-11.576c0-1.64 1.254-2.894 2.894-2.894 1.64 0 2.894 1.35 2.894 2.894 0 1.64-1.254 2.894-2.894 2.894-1.64 0-2.894-1.254-2.894-2.894zm8.682-11.576c0-1.64 1.254-2.894 2.894-2.894 1.64 0 2.894 1.351 2.894 2.894 0 1.64-1.254 2.894-2.894 2.894-1.64 0-2.894-1.254-2.894-2.894zm0 23.152c0-1.64 1.254-2.894 2.894-2.894 1.64 0 2.894 1.35 2.894 2.894 0 1.64-1.254 2.894-2.894 2.894-1.64 0-2.894-1.254-2.894-2.894zm-17.364-23.152c0-1.64 1.255-2.894 2.894-2.894 1.64 0 2.894 1.351 2.894 2.894 0 1.64-1.254 2.894-2.894 2.894-1.639 0-2.894-1.254-2.894-2.894zm108.331-133.99c0-1.64 1.254-2.895 2.894-2.895 1.64 0 2.894 1.254 2.894 2.894 0 1.64-1.254 2.894-2.894 2.894-1.64 0-2.894-1.254-2.894-2.894zm-8.682 11.575c0-1.64 1.254-2.894 2.894-2.894 1.64 0 2.894 1.35 2.894 2.894 0 .215-.021.422-.062.622-2.096-.09-4.018-.188-5.709-.292a3.255 3.255 0 0 1-.017-.33zm22.931 1.142c-1.821-.038-3.626-.08-5.395-.126a3.04 3.04 0 0 1-.172-1.016c0-1.64 1.254-2.894 2.894-2.894 1.64 0 2.894 1.35 2.894 2.894 0 .41-.078.794-.221 1.142zm17.256.233c-1.676-.01-3.4-.025-5.153-.044a2.984 2.984 0 0 1-.306-1.33c0-1.64 1.254-2.895 2.894-2.895 1.64 0 2.894 1.35 2.894 2.894 0 .503-.118.97-.329 1.375zm17.423-.12c-1.438.046-3.195.08-5.198.104a2.961 2.961 0 0 1-.32-1.359c0-1.64 1.254-2.894 2.894-2.894 1.639 0 2.894 1.35 2.894 2.894 0 .454-.096.878-.27 1.255zm-31.564-12.83c0-1.64 1.254-2.895 2.894-2.895 1.64 0 2.894 1.254 2.894 2.894 0 1.64-1.254 2.894-2.894 2.894-1.64 0-2.894-1.254-2.894-2.894zm-8.682-11.577c0-1.64 1.254-2.894 2.894-2.894 1.64 0 2.894 1.351 2.894 2.894 0 1.64-1.254 2.894-2.894 2.894-1.64 0-2.894-1.254-2.894-2.894zm26.046 11.576c0-1.64 1.254-2.894 2.894-2.894 1.64 0 2.894 1.254 2.894 2.894 0 1.64-1.254 2.894-2.894 2.894-1.64 0-2.894-1.254-2.894-2.894zm-8.682-11.576c0-1.64 1.254-2.894 2.894-2.894 1.64 0 2.894 1.351 2.894 2.894 0 1.64-1.254 2.894-2.894 2.894-1.64 0-2.894-1.254-2.894-2.894zm548.305 203.929c0-1.64 1.26-2.894 2.9-2.894 1.59 0 2.82 1.271 2.89 2.756-.53.867-1.11 1.805-1.74 2.809-.35.144-.74.223-1.15.223-1.64 0-2.9-1.255-2.9-2.894zm-17.36 0c0-1.64 1.26-2.894 2.89-2.894 1.64 0 2.9 1.35 2.9 2.894 0 1.639-1.26 2.894-2.9 2.894-1.63 0-2.89-1.255-2.89-2.894zm0 23.151c0-1.64 1.26-2.894 2.89-2.894 1.64 0 2.9 1.351 2.9 2.894 0 1.64-1.26 2.894-2.9 2.894-1.63 0-2.89-1.254-2.89-2.894zm8.68-11.576c0-1.639 1.26-2.894 2.9-2.894s2.89 1.351 2.89 2.894c0 1.64-1.25 2.894-2.89 2.894-1.64 0-2.9-1.254-2.9-2.894zm-26.04-11.575c0-1.64 1.25-2.894 2.89-2.894 1.64 0 2.9 1.35 2.9 2.894 0 1.639-1.26 2.894-2.9 2.894s-2.89-1.255-2.89-2.894zm0 23.151c0-1.64 1.25-2.894 2.89-2.894 1.64 0 2.9 1.351 2.9 2.894 0 1.64-1.26 2.894-2.9 2.894s-2.89-1.254-2.89-2.894zm8.68-11.576c0-1.639 1.25-2.894 2.89-2.894 1.64 0 2.9 1.351 2.9 2.894 0 1.64-1.26 2.894-2.9 2.894s-2.89-1.254-2.89-2.894zm-8.68 34.728c0-1.64 1.25-2.894 2.89-2.894 1.64 0 2.9 1.351 2.9 2.894 0 1.64-1.26 2.894-2.9 2.894s-2.89-1.254-2.89-2.894zm8.68-11.576c0-1.64 1.25-2.894 2.89-2.894 1.64 0 2.9 1.351 2.9 2.894 0 1.64-1.26 2.894-2.9 2.894s-2.89-1.254-2.89-2.894zm-26.05-34.727c0-1.64 1.26-2.894 2.9-2.894s2.89 1.35 2.89 2.894c0 1.639-1.25 2.894-2.89 2.894-1.64 0-2.9-1.255-2.9-2.894zm0 23.151c0-1.64 1.26-2.894 2.9-2.894s2.89 1.351 2.89 2.894c0 1.64-1.25 2.894-2.89 2.894-1.64 0-2.9-1.254-2.9-2.894zm8.69-11.576c0-1.639 1.25-2.894 2.89-2.894 1.64 0 2.89 1.351 2.89 2.894 0 1.64-1.25 2.894-2.89 2.894-1.64 0-2.89-1.254-2.89-2.894zm-8.69 34.728c0-1.64 1.26-2.894 2.9-2.894s2.89 1.351 2.89 2.894c0 1.64-1.25 2.894-2.89 2.894-1.64 0-2.9-1.254-2.9-2.894zm8.69-11.576c0-1.64 1.25-2.894 2.89-2.894 1.64 0 2.89 1.351 2.89 2.894 0 1.64-1.25 2.894-2.89 2.894-1.64 0-2.89-1.254-2.89-2.894zm-8.69 34.728c0-1.64 1.26-2.894 2.9-2.894s2.89 1.35 2.89 2.894c0 1.64-1.25 2.894-2.89 2.894-1.64 0-2.9-1.254-2.9-2.894zm8.69-11.576c0-1.64 1.25-2.894 2.89-2.894 1.64 0 2.89 1.35 2.89 2.894 0 1.64-1.25 2.894-2.89 2.894-1.64 0-2.89-1.254-2.89-2.894zm-26.05-57.879c0-1.64 1.25-2.894 2.89-2.894 1.64 0 2.9 1.35 2.9 2.894 0 1.639-1.26 2.894-2.9 2.894s-2.89-1.255-2.89-2.894zm0 23.151c0-1.64 1.25-2.894 2.89-2.894 1.64 0 2.9 1.351 2.9 2.894 0 1.64-1.26 2.894-2.9 2.894s-2.89-1.254-2.89-2.894zm8.68-11.576c0-1.639 1.26-2.894 2.9-2.894s2.89 1.351 2.89 2.894c0 1.64-1.25 2.894-2.89 2.894-1.64 0-2.9-1.254-2.9-2.894zm-8.68 34.728c0-1.64 1.25-2.894 2.89-2.894 1.64 0 2.9 1.351 2.9 2.894 0 1.64-1.26 2.894-2.9 2.894s-2.89-1.254-2.89-2.894zm8.68-11.576c0-1.64 1.26-2.894 2.9-2.894s2.89 1.351 2.89 2.894c0 1.64-1.25 2.894-2.89 2.894-1.64 0-2.9-1.254-2.9-2.894zm-8.68 34.728c0-1.64 1.25-2.894 2.89-2.894 1.64 0 2.9 1.35 2.9 2.894 0 1.64-1.26 2.894-2.9 2.894s-2.89-1.254-2.89-2.894zm8.68-11.576c0-1.64 1.26-2.894 2.9-2.894s2.89 1.35 2.89 2.894c0 1.64-1.25 2.894-2.89 2.894-1.64 0-2.9-1.254-2.9-2.894zm-8.68 34.727c0-1.639 1.25-2.894 2.89-2.894 1.64 0 2.9 1.351 2.9 2.894 0 1.64-1.26 2.894-2.9 2.894s-2.89-1.254-2.89-2.894zm8.68-11.575c0-1.64 1.26-2.894 2.9-2.894s2.89 1.35 2.89 2.894c0 1.639-1.25 2.894-2.89 2.894-1.64 0-2.9-1.255-2.9-2.894zm-26.044-81.031c0-1.64 1.254-2.894 2.894-2.894 1.64 0 2.89 1.35 2.89 2.894 0 1.639-1.25 2.894-2.89 2.894-1.64 0-2.894-1.255-2.894-2.894zm0 23.151c0-1.64 1.254-2.894 2.894-2.894 1.64 0 2.89 1.351 2.89 2.894 0 1.64-1.25 2.894-2.89 2.894-1.64 0-2.894-1.254-2.894-2.894zm8.684-11.576c0-1.639 1.25-2.894 2.89-2.894 1.64 0 2.9 1.351 2.9 2.894 0 1.64-1.26 2.894-2.9 2.894s-2.89-1.254-2.89-2.894zm-8.684 34.728c0-1.64 1.254-2.894 2.894-2.894 1.64 0 2.89 1.351 2.89 2.894 0 1.64-1.25 2.894-2.89 2.894-1.64 0-2.894-1.254-2.894-2.894zm8.684-11.576c0-1.64 1.25-2.894 2.89-2.894 1.64 0 2.9 1.351 2.9 2.894 0 1.64-1.26 2.894-2.9 2.894s-2.89-1.254-2.89-2.894zm-8.684 34.728c0-1.64 1.254-2.894 2.894-2.894 1.64 0 2.89 1.35 2.89 2.894 0 1.64-1.25 2.894-2.89 2.894-1.64 0-2.894-1.254-2.894-2.894zm8.684-11.576c0-1.64 1.25-2.894 2.89-2.894 1.64 0 2.9 1.35 2.9 2.894 0 1.64-1.26 2.894-2.9 2.894s-2.89-1.254-2.89-2.894zm-8.684 34.727c0-1.639 1.254-2.894 2.894-2.894 1.64 0 2.89 1.351 2.89 2.894 0 1.64-1.25 2.894-2.89 2.894-1.64 0-2.894-1.254-2.894-2.894zm8.684-11.575c0-1.64 1.25-2.894 2.89-2.894 1.64 0 2.9 1.35 2.9 2.894 0 1.639-1.26 2.894-2.9 2.894s-2.89-1.255-2.89-2.894zm-8.684 34.727c0-1.64 1.254-2.894 2.894-2.894 1.64 0 2.89 1.351 2.89 2.894 0 1.64-1.25 2.894-2.89 2.894-1.64 0-2.894-1.254-2.894-2.894zm8.684-11.576c0-1.64 1.25-2.894 2.89-2.894 1.64 0 2.9 1.351 2.9 2.894 0 1.64-1.26 2.894-2.9 2.894s-2.89-1.254-2.89-2.894zm-26.048-81.031c0-1.64 1.254-2.894 2.894-2.894 1.64 0 2.894 1.351 2.894 2.894 0 1.64-1.254 2.894-2.894 2.894-1.64 0-2.894-1.254-2.894-2.894zm8.682-11.576c0-1.639 1.254-2.894 2.894-2.894 1.64 0 2.894 1.351 2.894 2.894 0 1.64-1.254 2.894-2.894 2.894-1.64 0-2.894-1.254-2.894-2.894zm-8.682 34.728c0-1.64 1.254-2.894 2.894-2.894 1.64 0 2.894 1.351 2.894 2.894 0 1.64-1.254 2.894-2.894 2.894-1.64 0-2.894-1.254-2.894-2.894zm8.682-11.576c0-1.64 1.254-2.894 2.894-2.894 1.64 0 2.894 1.351 2.894 2.894 0 1.64-1.254 2.894-2.894 2.894-1.64 0-2.894-1.254-2.894-2.894zm-8.682 34.728c0-1.64 1.254-2.894 2.894-2.894 1.64 0 2.894 1.35 2.894 2.894 0 1.64-1.254 2.894-2.894 2.894-1.64 0-2.894-1.254-2.894-2.894zm8.682-11.576c0-1.64 1.254-2.894 2.894-2.894 1.64 0 2.894 1.35 2.894 2.894 0 1.64-1.254 2.894-2.894 2.894-1.64 0-2.894-1.254-2.894-2.894zm-8.682 34.727c0-1.639 1.254-2.894 2.894-2.894 1.64 0 2.894 1.351 2.894 2.894 0 1.64-1.254 2.894-2.894 2.894-1.64 0-2.894-1.254-2.894-2.894zm8.682-11.575c0-1.64 1.254-2.894 2.894-2.894 1.64 0 2.894 1.35 2.894 2.894 0 1.639-1.254 2.894-2.894 2.894-1.64 0-2.894-1.255-2.894-2.894zm-8.682 34.727c0-1.64 1.254-2.894 2.894-2.894 1.64 0 2.894 1.351 2.894 2.894 0 1.64-1.254 2.894-2.894 2.894-1.64 0-2.894-1.254-2.894-2.894zm8.682-11.576c0-1.64 1.254-2.894 2.894-2.894 1.64 0 2.894 1.351 2.894 2.894 0 1.64-1.254 2.894-2.894 2.894-1.64 0-2.894-1.254-2.894-2.894zm-8.682 34.728c0-1.64 1.254-2.894 2.894-2.894 1.64 0 2.894 1.35 2.894 2.894 0 1.64-1.254 2.894-2.894 2.894-1.64 0-2.894-1.254-2.894-2.894zm8.682-11.576c0-1.64 1.254-2.894 2.894-2.894 1.64 0 2.894 1.351 2.894 2.894 0 1.64-1.254 2.894-2.894 2.894-1.64 0-2.894-1.254-2.894-2.894zm-26.046-81.031c0-1.64 1.254-2.894 2.894-2.894 1.64 0 2.894 1.351 2.894 2.894 0 1.64-1.254 2.894-2.894 2.894-1.64 0-2.894-1.254-2.894-2.894zm8.682-11.576c0-1.64 1.254-2.894 2.894-2.894 1.64 0 2.894 1.351 2.894 2.894 0 1.64-1.254 2.894-2.894 2.894-1.64 0-2.894-1.254-2.894-2.894zm-8.682 34.728c0-1.64 1.254-2.894 2.894-2.894 1.64 0 2.894 1.35 2.894 2.894 0 1.64-1.254 2.894-2.894 2.894-1.64 0-2.894-1.254-2.894-2.894zm8.682-11.576c0-1.64 1.254-2.894 2.894-2.894 1.64 0 2.894 1.35 2.894 2.894 0 1.64-1.254 2.894-2.894 2.894-1.64 0-2.894-1.254-2.894-2.894zm-8.682 34.727c0-1.639 1.254-2.894 2.894-2.894 1.64 0 2.894 1.351 2.894 2.894 0 1.64-1.254 2.894-2.894 2.894-1.64 0-2.894-1.254-2.894-2.894zm8.682-11.575c0-1.64 1.254-2.894 2.894-2.894 1.64 0 2.894 1.35 2.894 2.894 0 1.639-1.254 2.894-2.894 2.894-1.64 0-2.894-1.255-2.894-2.894zm-8.682 34.727c0-1.64 1.254-2.894 2.894-2.894 1.64 0 2.894 1.351 2.894 2.894 0 1.64-1.254 2.894-2.894 2.894-1.64 0-2.894-1.254-2.894-2.894zm8.682-11.576c0-1.64 1.254-2.894 2.894-2.894 1.64 0 2.894 1.351 2.894 2.894 0 1.64-1.254 2.894-2.894 2.894-1.64 0-2.894-1.254-2.894-2.894zm0 23.152c0-1.64 1.254-2.894 2.894-2.894 1.64 0 2.894 1.351 2.894 2.894 0 1.64-1.254 2.894-2.894 2.894-1.64 0-2.894-1.254-2.894-2.894zm-26.046-57.879c0-1.64 1.255-2.894 2.894-2.894 1.64 0 2.894 1.35 2.894 2.894 0 1.64-1.254 2.894-2.894 2.894-1.639 0-2.894-1.254-2.894-2.894zm8.682-11.576c0-1.64 1.254-2.894 2.894-2.894 1.64 0 2.894 1.35 2.894 2.894 0 1.64-1.254 2.894-2.894 2.894-1.64 0-2.894-1.254-2.894-2.894zm-8.682 34.727c0-1.639 1.255-2.894 2.894-2.894 1.64 0 2.894 1.351 2.894 2.894 0 1.64-1.254 2.894-2.894 2.894-1.639 0-2.894-1.254-2.894-2.894zm8.682-11.575c0-1.64 1.254-2.894 2.894-2.894 1.64 0 2.894 1.35 2.894 2.894 0 1.639-1.254 2.894-2.894 2.894-1.64 0-2.894-1.255-2.894-2.894zm0 23.151c0-1.64 1.254-2.894 2.894-2.894 1.64 0 2.894 1.351 2.894 2.894 0 1.64-1.254 2.894-2.894 2.894-1.64 0-2.894-1.254-2.894-2.894zm-17.363-23.151c0-1.64 1.254-2.894 2.894-2.894 1.639 0 2.894 1.35 2.894 2.894 0 1.639-1.255 2.894-2.894 2.894-1.64 0-2.894-1.255-2.894-2.894zM1182.4 202.712c.19-1.447 1.44-2.508 2.89-2.508h.39c1.64.29 2.7 1.737 2.51 3.28-.04.265-.11.517-.21.752-1.35.047-3.17.03-5.38-.041a2.856 2.856 0 0 1-.2-1.483zm-13 .77a2.875 2.875 0 0 0 1.61-2.217c.2-1.543-.86-2.99-2.5-3.279h-.39c-1.45 0-2.7 1.061-2.89 2.508a2.92 2.92 0 0 0 1.28 2.789c.98.069 1.94.136 2.89.199zm-62.29-160.941c.14.426.38.813.69 1.13a60.9 60.9 0 0 0-.69-1.13zm6.97 11.88c.06.88.52 1.683 1.25 2.197-.42-.746-.84-1.479-1.25-2.197zm7.2 12.893c.12.638.44 1.212.9 1.639-.3-.55-.6-1.097-.9-1.64zm46.94 110.221c.19-1.447 1.44-2.508 2.89-2.508h.39c1.64.289 2.7 1.736 2.5 3.28-.19 1.447-1.44 2.508-2.89 2.508h-.39c-1.63-.29-2.7-1.737-2.5-3.28zm7.04 12.637c.19-1.447 1.45-2.508 2.89-2.508h.39c1.45.193 2.51 1.447 2.51 2.894v.386c-.2 1.447-1.45 2.508-2.9 2.508h-.38c-1.45-.193-2.51-1.447-2.51-2.894v-.386zm-27.3 8.103c.19-1.447 1.45-2.508 2.89-2.508h.39c1.64.289 2.7 1.736 2.51 3.28-.2 1.447-1.45 2.508-2.9 2.508h-.38c-1.64-.29-2.7-1.737-2.51-3.28zm2.99-22.959c.19-1.447 1.45-2.508 2.89-2.508h.39c1.64.289 2.7 1.736 2.51 3.28-.2 1.447-1.45 2.508-2.9 2.508h-.38c-1.64-.289-2.7-1.736-2.51-3.28zm7.14 12.637c.19-1.447 1.44-2.508 2.89-2.508h.39c1.44.193 2.51 1.447 2.51 2.894v.386c-.2 1.447-1.45 2.508-2.9 2.508h-.38c-1.45-.193-2.51-1.447-2.51-2.894v-.386zm-4.15-35.596c.19-1.447 1.45-2.508 2.89-2.508h.39c1.64.29 2.7 1.737 2.51 3.28-.2 1.447-1.45 2.508-2.9 2.508h-.38c-1.64-.289-2.7-1.736-2.51-3.28zm7.14 12.637c.19-1.447 1.45-2.508 2.89-2.508h.39c1.45.193 2.51 1.447 2.51 2.894v.386c-.2 1.447-1.45 2.508-2.9 2.508h-.38c-1.45-.193-2.51-1.447-2.51-2.894v-.386zm-30.29 31.062c.19-1.447 1.45-2.508 2.89-2.508h.39c1.64.29 2.7 1.737 2.51 3.28-.2 1.447-1.45 2.508-2.9 2.508h-.38c-1.64-.289-2.7-1.736-2.51-3.28zm2.99-22.959c.19-1.447 1.45-2.508 2.89-2.508h.39c1.64.29 2.7 1.737 2.51 3.28-.2 1.447-1.45 2.508-2.9 2.508h-.38c-1.64-.289-2.7-1.736-2.51-3.28zm7.04 12.541c.19-1.447 1.45-2.508 2.89-2.508.2 0 .29.096.39 0 1.45.193 2.51 1.447 2.51 2.894v.386c-.19 1.447-1.45 2.508-2.9 2.508h-.38c-1.45-.193-2.51-1.447-2.51-2.894v-.386zm-4.15-35.499c.2-1.447 1.45-2.508 2.9-2.508h.38c1.64.289 2.7 1.736 2.51 3.279-.19 1.447-1.45 2.509-2.89 2.509h-.39c-1.64-.29-2.7-1.737-2.51-3.28zm7.14 12.54c.19-1.447 1.45-2.508 2.9-2.508.02 0 .06.009.1.019.1.022.21.048.28-.019 1.45.193 2.51 1.447 2.51 2.894v.386c-.19 1.447-1.45 2.508-2.89 2.508h-.39c-1.45-.193-2.51-1.447-2.51-2.894v-.386zm-4.15-35.499c.2-1.447 1.45-2.508 2.9-2.508h.38c1.64.289 2.7 1.736 2.51 3.28-.19 1.447-1.45 2.508-2.89 2.508h-.39c-1.64-.29-2.7-1.737-2.51-3.28zm7.14 12.54c.19-1.447 1.45-2.508 2.9-2.508.02 0 .06.009.1.019.1.022.21.049.28-.019 1.45.193 2.51 1.447 2.51 2.894v.386c-.19 1.447-1.45 2.508-2.89 2.508h-.39c-1.45-.193-2.51-1.447-2.51-2.894v-.386zm-33.28 54.118c.19-1.447 1.45-2.509 2.89-2.509h.39c1.64.29 2.7 1.737 2.51 3.28-.19 1.447-1.45 2.508-2.9 2.508h-.38c-1.64-.289-2.7-1.736-2.51-3.279zm2.99-22.959c.19-1.447 1.45-2.508 2.9-2.508h.38c1.64.289 2.7 1.736 2.51 3.279-.19 1.447-1.45 2.509-2.89 2.509h-.39c-1.64-.29-2.7-1.737-2.51-3.28zm7.14 12.54c.19-1.447 1.45-2.508 2.89-2.508.03 0 .07.009.11.019.1.022.21.049.28-.019 1.45.193 2.51 1.447 2.51 2.894v.386c-.2 1.447-1.45 2.508-2.9 2.508h-.38c-1.45-.193-2.51-1.447-2.51-2.894v-.386zm-4.15-35.499c.19-1.447 1.45-2.508 2.9-2.508h.38c1.64.289 2.7 1.736 2.51 3.28-.19 1.447-1.45 2.508-2.89 2.508h-.39c-1.64-.29-2.7-1.737-2.51-3.28zm7.14 12.541c.19-1.447 1.45-2.509 2.89-2.509h.39c1.45.193 2.51 1.447 2.51 2.894v.386c-.19 1.447-1.45 2.508-2.9 2.508h-.38c-1.45-.193-2.51-1.447-2.51-2.894v-.385zm-4.15-35.5c.2-1.447 1.45-2.508 2.9-2.508h.38c1.64.29 2.7 1.737 2.51 3.28-.19 1.447-1.45 2.508-2.89 2.508h-.39c-1.64-.289-2.7-1.736-2.51-3.28zm7.04 12.541c.2-1.447 1.45-2.508 2.9-2.508h.38c1.45.193 2.51 1.447 2.51 2.894v.385c-.19 1.447-1.44 2.509-2.89 2.509h-.39c-1.44-.193-2.51-1.447-2.51-2.894v-.386zm-4.14-35.5c.19-1.447 1.44-2.508 2.89-2.508h.39c1.64.29 2.7 1.737 2.5 3.28-.19 1.447-1.44 2.508-2.89 2.508h-.39c-1.64-.289-2.7-1.736-2.5-3.28zm7.13 12.541c.2-1.447 1.45-2.508 2.9-2.508h.38c1.45.193 2.51 1.447 2.51 2.894v.386c-.19 1.447-1.44 2.508-2.89 2.508h-.39c-1.44-.193-2.51-1.447-2.51-2.894v-.386zm-36.17 77.076c.19-1.447 1.45-2.508 2.89-2.508h.39c1.64.289 2.7 1.736 2.51 3.28-.19 1.447-1.45 2.508-2.9 2.508h-.38c-1.64-.29-2.7-1.737-2.51-3.28zm2.99-22.959c.19-1.447 1.45-2.508 2.89-2.508h.39c1.64.289 2.7 1.736 2.51 3.28-.19 1.447-1.45 2.508-2.9 2.508h-.38c-1.64-.29-2.7-1.736-2.51-3.28zm7.04 12.541c.2-1.447 1.45-2.508 2.9-2.508h.38c1.45.192 2.51 1.446 2.51 2.893v.386c-.19 1.447-1.45 2.508-2.89 2.508h-.39c-1.45-.192-2.51-1.447-2.51-2.894v-.385zm-4.15-35.5c.2-1.447 1.45-2.508 2.9-2.508h.38c1.64.29 2.71 1.737 2.51 3.28-.19 1.447-1.44 2.508-2.89 2.508h-.39c-1.64-.289-2.7-1.736-2.51-3.28zm7.14 12.541c.2-1.447 1.45-2.508 2.9-2.508h.38c1.45.193 2.51 1.447 2.51 2.894v.386c-.19 1.447-1.45 2.508-2.89 2.508h-.39c-1.45-.193-2.51-1.447-2.51-2.894v-.386zm-4.15-35.499a2.922 2.922 0 0 1 2.9-2.509h.38c1.64.29 2.71 1.737 2.51 3.28-.19 1.447-1.44 2.508-2.89 2.508h-.39c-1.64-.289-2.7-1.736-2.51-3.279zm7.14 12.54c.2-1.447 1.45-2.508 2.9-2.508h.38c1.45.193 2.51 1.447 2.51 2.894v.386c-.19 1.447-1.45 2.508-2.89 2.508h-.39c-1.45-.193-2.51-1.447-2.51-2.894v-.386zm-4.14-35.5c.19-1.446 1.44-2.507 2.89-2.507h.39c1.64.289 2.7 1.736 2.5 3.279-.19 1.447-1.44 2.509-2.89 2.509h-.39c-1.64-.29-2.7-1.737-2.5-3.28zm7.13 12.541c.2-1.447 1.45-2.508 2.9-2.508h.38c1.45.193 2.51 1.447 2.51 2.894v.386c-.19 1.447-1.45 2.508-2.89 2.508h-.39c-1.45-.193-2.51-1.447-2.51-2.894v-.386zm-4.14-35.499c.19-1.447 1.44-2.508 2.89-2.508h.39c1.64.29 2.7 1.736 2.5 3.28-.19 1.447-1.44 2.508-2.89 2.508h-.39c-1.64-.29-2.7-1.737-2.5-3.28zm7.04 12.54c.19-1.447 1.44-2.508 2.89-2.508h.39c1.44.193 2.51 1.447 2.51 2.894v.386c-.2 1.447-1.45 2.508-2.9 2.508h-.38c-1.45-.193-2.51-1.447-2.51-2.894v-.386zm-36.18 77.076c.2-1.447 1.45-2.508 2.9-2.508h.38c1.64.29 2.7 1.737 2.51 3.28-.19 1.447-1.45 2.508-2.89 2.508h-.39c-1.64-.289-2.7-1.736-2.51-3.28zm7.14 12.541c.19-1.447 1.45-2.508 2.9-2.508h.38c1.45.193 2.51 1.447 2.51 2.894v.386c-.19 1.447-1.45 2.508-2.89 2.508h-.39c-1.45-.193-2.51-1.447-2.51-2.894v-.386zm-4.15-35.499c.2-1.447 1.45-2.508 2.9-2.508h.38c1.64.289 2.7 1.736 2.51 3.279-.19 1.447-1.45 2.508-2.89 2.508h-.39c-1.64-.289-2.7-1.736-2.51-3.279zm7.14 12.54c.2-1.447 1.45-2.508 2.9-2.508h.38c1.45.193 2.51 1.447 2.51 2.894v.386c-.19 1.447-1.45 2.508-2.89 2.508h-.39c-1.45-.193-2.51-1.447-2.51-2.894v-.386zm-4.15-35.499c.2-1.447 1.45-2.508 2.9-2.508h.38c1.64.289 2.7 1.736 2.51 3.28-.19 1.447-1.44 2.508-2.89 2.508h-.39c-1.64-.29-2.7-1.737-2.51-3.28zm7.05 12.54c.19-1.447 1.44-2.508 2.89-2.508h.39c1.44.193 2.5 1.447 2.5 2.894v.386c-.19 1.447-1.44 2.508-2.89 2.508h-.39c-1.44-.193-2.5-1.447-2.5-2.894v-.386zm-4.15-35.499c.19-1.447 1.45-2.508 2.89-2.508h.39c1.64.29 2.7 1.736 2.51 3.28a2.921 2.921 0 0 1-2.9 2.508h-.38c-1.64-.29-2.7-1.736-2.51-3.28zm7.14 12.541c.19-1.447 1.44-2.509 2.89-2.509h.39c1.44.193 2.5 1.447 2.5 2.894v.386c-.19 1.447-1.44 2.508-2.89 2.508h-.39c-1.44-.193-2.5-1.447-2.5-2.894v-.385zm-4.15-35.5c.19-1.447 1.45-2.508 2.89-2.508h.39c1.64.29 2.7 1.737 2.51 3.28-.2 1.447-1.45 2.508-2.9 2.508h-.38c-1.64-.29-2.7-1.736-2.51-3.28zm7.14 12.54c.19-1.446 1.44-2.507 2.89-2.507h.39c1.44.193 2.5 1.447 2.5 2.894v.385c-.19 1.447-1.44 2.509-2.89 2.509h-.38c-1.45-.193-2.51-1.447-2.51-2.894v-.386zm-4.15-35.498c.19-1.448 1.45-2.509 2.89-2.509h.39c1.64.29 2.7 1.737 2.51 3.28-.2 1.447-1.45 2.508-2.9 2.508h-.38c-1.64-.29-2.7-1.736-2.51-3.28zm7.14 12.54c.19-1.447 1.44-2.508 2.89-2.508h.39c1.44.193 2.51 1.447 2.51 2.894v.386c-.2 1.447-1.45 2.508-2.9 2.508h-.38c-1.45-.193-2.51-1.447-2.51-2.894v-.386zm-36.27 77.076c.19-1.447 1.44-2.508 2.89-2.508h.39c1.64.289 2.7 1.736 2.5 3.28-.19 1.447-1.44 2.508-2.89 2.508h-.39c-1.64-.29-2.7-1.737-2.5-3.28zm7.13 12.54c.2-1.447 1.45-2.508 2.9-2.508h.38c1.45.193 2.51 1.447 2.51 2.894v.386c-.19 1.447-1.44 2.508-2.89 2.508h-.39c-1.44-.193-2.51-1.447-2.51-2.894v-.386zm-4.14-35.499c.19-1.447 1.44-2.508 2.89-2.508h.39c1.64.289 2.7 1.736 2.5 3.28-.19 1.447-1.44 2.508-2.89 2.508h-.39c-1.64-.289-2.7-1.736-2.5-3.28zm7.14 12.541c.19-1.447 1.44-2.508 2.89-2.508h.38c1.45.192 2.51 1.447 2.51 2.894v.385c-.19 1.447-1.44 2.508-2.89 2.508h-.39c-1.44-.193-2.5-1.446-2.5-2.893v-.386zm-4.15-35.5c.19-1.447 1.44-2.508 2.89-2.508h.39c1.64.29 2.7 1.737 2.51 3.28-.2 1.447-1.45 2.508-2.9 2.508h-.38c-1.64-.29-2.71-1.736-2.51-3.28zm7.14 12.541c.19-1.447 1.44-2.508 2.89-2.508h.39c1.44.193 2.5 1.447 2.5 2.894v.386c-.19 1.447-1.44 2.508-2.89 2.508h-.39c-1.44-.193-2.5-1.447-2.5-2.894v-.386zm-4.15-35.5c.19-1.446 1.44-2.508 2.89-2.508h.39c1.64.29 2.7 1.737 2.51 3.28-.2 1.447-1.45 2.508-2.9 2.508h-.38c-1.64-.289-2.71-1.736-2.51-3.28zm7.04 12.541c.19-1.447 1.45-2.508 2.89-2.508h.39c1.45.193 2.51 1.447 2.51 2.894v.386c-.2 1.447-1.45 2.508-2.9 2.508h-.38c-1.45-.193-2.51-1.447-2.51-2.894v-.386zm2.99-22.959c.19-1.447 1.45-2.508 2.89-2.508h.39c1.45.193 2.51 1.447 2.51 2.894v.386c-.2 1.447-1.45 2.508-2.9 2.508h-.38c-1.45-.193-2.51-1.447-2.51-2.894v-.386zm-33.18 54.117c.19-1.447 1.44-2.508 2.89-2.508h.39c1.64.29 2.7 1.737 2.5 3.28-.19 1.447-1.44 2.508-2.89 2.508h-.39c-1.64-.289-2.7-1.736-2.5-3.28zm7.04 12.541c.19-1.447 1.44-2.508 2.89-2.508h.39c1.44.193 2.51 1.447 2.51 2.894v.386c-.2 1.447-1.45 2.508-2.9 2.508h-.38c-1.45-.193-2.51-1.447-2.51-2.894v-.386zm-4.15-35.5c.19-1.446 1.45-2.507 2.89-2.507h.39c1.64.289 2.7 1.736 2.51 3.28-.2 1.446-1.45 2.507-2.9 2.507h-.38c-1.64-.289-2.7-1.736-2.51-3.28zm7.14 12.541c.19-1.447 1.45-2.508 2.89-2.508h.39c1.45.193 2.51 1.447 2.51 2.894v.386c-.2 1.447-1.45 2.508-2.9 2.508h-.38c-1.45-.193-2.51-1.447-2.51-2.894v-.386zm2.99-22.959c.19-1.447 1.45-2.508 2.89-2.508h.39c1.45.193 2.51 1.447 2.51 2.894v.386c-.2 1.447-1.45 2.508-2.9 2.508h-.38c-1.45-.193-2.51-1.447-2.51-2.894v-.386zm-20.16 20.74c.19-1.447 1.44-2.508 2.89-2.508h.39c1.44.193 2.51 1.447 2.51 2.894v.386c-.2 1.447-1.45 2.508-2.9 2.508h-.38c-1.45-.193-2.51-1.447-2.51-2.894v-.386zm-405.351 172.77c0-1.64 1.254-2.894 2.894-2.894 1.64 0 2.894 1.254 2.894 2.894 0 1.64-1.254 2.894-2.894 2.894-1.64 0-2.894-1.254-2.894-2.894zm0-23.152c0-1.639 1.254-2.894 2.894-2.894 1.64 0 2.894 1.255 2.894 2.894 0 1.64-1.254 2.894-2.894 2.894-1.64 0-2.894-1.254-2.894-2.894zm-8.682 11.576c0-1.64 1.254-2.894 2.894-2.894 1.64 0 2.894 1.254 2.894 2.894 0 1.64-1.254 2.894-2.894 2.894a2.95 2.95 0 0 1-1.497-.396 42.251 42.251 0 0 1-1.391-2.314 2.804 2.804 0 0 1-.006-.184zm26.048 34.629c.049-1.591 1.285-2.795 2.892-2.795 1.64 0 2.894 1.254 2.894 2.894 0 1.64-1.254 2.894-2.894 2.894-.133 0-.265-.009-.393-.025a358.832 358.832 0 0 1-2.499-2.968zm-7.374-9.033c.45.287.992.45 1.584.45 1.64 0 2.894-1.254 2.894-2.894 0-1.64-1.254-2.894-2.894-2.894-1.64 0-2.894 1.254-2.894 2.894 0 .364.062.709.176 1.026l1.134 1.418zm7.372-14.02c0-1.64 1.254-2.894 2.894-2.894 1.64 0 2.894 1.254 2.894 2.894 0 1.64-1.254 2.894-2.894 2.894-1.64 0-2.894-1.254-2.894-2.894zm0-23.152c0-1.639 1.254-2.894 2.894-2.894 1.64 0 2.894 1.255 2.894 2.894 0 1.64-1.254 2.894-2.894 2.894-1.64 0-2.894-1.254-2.894-2.894zm-8.682 11.576c0-1.64 1.254-2.894 2.894-2.894 1.64 0 2.894 1.254 2.894 2.894 0 1.64-1.254 2.894-2.894 2.894-1.64 0-2.894-1.254-2.894-2.894zm8.682-34.727c0-1.64 1.254-2.894 2.894-2.894 1.64 0 2.894 1.254 2.894 2.894 0 1.64-1.254 2.894-2.894 2.894-1.64 0-2.894-1.254-2.894-2.894zm-8.682 11.576c0-1.64 1.254-2.894 2.894-2.894 1.64 0 2.894 1.254 2.894 2.894 0 1.639-1.254 2.894-2.894 2.894-1.64 0-2.894-1.255-2.894-2.894zm26.046 57.879c0-1.64 1.254-2.894 2.894-2.894 1.64 0 2.894 1.254 2.894 2.894 0 1.64-1.254 2.894-2.894 2.894-1.64 0-2.894-1.254-2.894-2.894zm0-23.152c0-1.64 1.254-2.894 2.894-2.894 1.64 0 2.894 1.254 2.894 2.894 0 1.64-1.254 2.894-2.894 2.894-1.64 0-2.894-1.254-2.894-2.894zm-8.682 11.576c0-1.64 1.254-2.894 2.894-2.894 1.64 0 2.894 1.254 2.894 2.894 0 1.64-1.254 2.894-2.894 2.894-1.64 0-2.894-1.254-2.894-2.894zm8.682-34.728c0-1.639 1.254-2.894 2.894-2.894 1.64 0 2.894 1.255 2.894 2.894 0 1.64-1.254 2.894-2.894 2.894-1.64 0-2.894-1.254-2.894-2.894zm-8.682 11.576c0-1.64 1.254-2.894 2.894-2.894 1.64 0 2.894 1.254 2.894 2.894 0 1.64-1.254 2.894-2.894 2.894-1.64 0-2.894-1.254-2.894-2.894zm0-23.151c0-1.64 1.254-2.894 2.894-2.894 1.64 0 2.894 1.254 2.894 2.894 0 1.639-1.254 2.894-2.894 2.894-1.64 0-2.894-1.255-2.894-2.894zm26.046 57.879c0-1.64 1.254-2.894 2.894-2.894 1.64 0 2.894 1.254 2.894 2.894 0 1.64-1.254 2.894-2.894 2.894-1.64 0-2.894-1.254-2.894-2.894zm0-23.152c0-1.64 1.254-2.894 2.894-2.894 1.64 0 2.894 1.254 2.894 2.894 0 1.64-1.254 2.894-2.894 2.894-1.64 0-2.894-1.254-2.894-2.894zm-8.682 11.576c0-1.64 1.254-2.894 2.894-2.894 1.64 0 2.894 1.254 2.894 2.894 0 1.64-1.254 2.894-2.894 2.894-1.64 0-2.894-1.254-2.894-2.894zm0-23.152c0-1.64 1.254-2.894 2.894-2.894 1.64 0 2.894 1.254 2.894 2.894 0 1.64-1.254 2.894-2.894 2.894-1.64 0-2.894-1.254-2.894-2.894zm26.046 34.728c0-1.64 1.254-2.894 2.893-2.894 1.64 0 2.894 1.254 2.894 2.894 0 1.64-1.254 2.894-2.894 2.894-1.639 0-2.893-1.254-2.893-2.894zm-8.682-11.576c0-1.64 1.254-2.894 2.894-2.894 1.639 0 2.894 1.254 2.894 2.894 0 1.64-1.255 2.894-2.894 2.894-1.64 0-2.894-1.254-2.894-2.894z" fill="#DFE0E3"/><g clip-path="url(#clip0)"><path d="M781.944 157.913c.386 0 2.026 1.93 4.244 4.824 8.296-14.277 24.599-39.937 24.503-41.963-.193-1.929-27.879-48.33-27.879-48.33s-35.692 61.642-48.233 85.662c7.91-1.64 34.921-1.64 47.365-.193z" fill="url(#paint33_linear)"/></g><path d="M1417.74 240.011c.27-1.329 1.4-2.282 2.83-2.282 1.64 0 2.89 1.351 2.89 2.894 0 1.64-1.25 2.894-2.89 2.894-.08 0-.17-.003-.25-.01-.9-1.201-1.77-2.372-2.58-3.496zm-5.47-8.093c1.45-.177 2.51-1.36 2.51-2.871 0-1.479-1.15-2.781-2.69-2.887-.69 1.362-1.11 2.218-1.17 2.405-.14.479.36 1.664 1.35 3.353zm17.03 23.175c-.95-1.193-1.9-2.403-2.86-3.617.31-1.271 1.42-2.171 2.81-2.171 1.64 0 2.9 1.351 2.9 2.894 0 1.623-1.23 2.869-2.85 2.894zm9.37 11.488a585.297 585.297 0 0 1-3.36-4.057c.45-.985 1.44-1.643 2.62-1.643 1.64 0 2.9 1.351 2.9 2.894 0 1.384-.89 2.493-2.16 2.806zm-20.99-49.109c0-1.64 1.25-2.894 2.89-2.894 1.64 0 2.89 1.35 2.89 2.894 0 1.639-1.25 2.894-2.89 2.894-1.64 0-2.89-1.255-2.89-2.894zm17.36 23.151c0-1.64 1.25-2.894 2.89-2.894 1.64 0 2.9 1.351 2.9 2.894 0 1.64-1.26 2.894-2.9 2.894s-2.89-1.254-2.89-2.894zm0-23.151c0-1.64 1.25-2.894 2.89-2.894 1.64 0 2.9 1.35 2.9 2.894 0 1.639-1.26 2.894-2.9 2.894s-2.89-1.255-2.89-2.894zm-8.68 11.575c0-1.639 1.25-2.894 2.89-2.894 1.64 0 2.9 1.351 2.9 2.894 0 1.64-1.26 2.894-2.9 2.894s-2.89-1.254-2.89-2.894zm8.68-34.727c0-1.64 1.25-2.894 2.89-2.894 1.64 0 2.9 1.35 2.9 2.894 0 1.64-1.26 2.894-2.9 2.894s-2.89-1.254-2.89-2.894zm-8.68 11.576c0-1.64 1.25-2.894 2.89-2.894 1.64 0 2.9 1.35 2.9 2.894 0 1.64-1.26 2.894-2.9 2.894s-2.89-1.254-2.89-2.894zm26.04 57.879c0-1.64 1.26-2.894 2.9-2.894s2.89 1.351 2.89 2.894c0 1.64-1.25 2.894-2.89 2.894-1.64 0-2.9-1.254-2.9-2.894zm0-23.152c0-1.64 1.26-2.894 2.9-2.894s2.89 1.351 2.89 2.894c0 1.64-1.25 2.894-2.89 2.894-1.64 0-2.9-1.254-2.9-2.894zm-8.68 11.576c0-1.64 1.26-2.894 2.9-2.894s2.89 1.351 2.89 2.894c0 1.64-1.25 2.894-2.89 2.894-1.64 0-2.9-1.254-2.9-2.894zm8.68-34.727c0-1.64 1.26-2.894 2.9-2.894s2.89 1.35 2.89 2.894c0 1.639-1.25 2.894-2.89 2.894-1.64 0-2.9-1.255-2.9-2.894zm-8.68 11.575c0-1.639 1.26-2.894 2.9-2.894s2.89 1.351 2.89 2.894c0 1.64-1.25 2.894-2.89 2.894-1.64 0-2.9-1.254-2.9-2.894zm0-23.151c0-1.64 1.26-2.894 2.9-2.894s2.89 1.35 2.89 2.894c0 1.64-1.25 2.894-2.89 2.894-1.64 0-2.9-1.254-2.9-2.894zm26.05 57.879c0-1.64 1.25-2.894 2.89-2.894 1.64 0 2.9 1.351 2.9 2.894 0 1.64-1.26 2.894-2.9 2.894s-2.89-1.254-2.89-2.894zm0-23.152c0-1.64 1.25-2.894 2.89-2.894 1.64 0 2.9 1.351 2.9 2.894 0 1.64-1.26 2.894-2.9 2.894s-2.89-1.254-2.89-2.894zm-8.68 11.576c0-1.64 1.25-2.894 2.89-2.894 1.64 0 2.89 1.351 2.89 2.894 0 1.64-1.25 2.894-2.89 2.894-1.64 0-2.89-1.254-2.89-2.894zm0-23.152c0-1.639 1.25-2.894 2.89-2.894 1.64 0 2.89 1.351 2.89 2.894 0 1.64-1.25 2.894-2.89 2.894-1.64 0-2.89-1.254-2.89-2.894zm26.04 34.728c0-1.64 1.26-2.894 2.9-2.894s2.89 1.351 2.89 2.894c0 1.64-1.25 2.894-2.89 2.894-1.64 0-2.9-1.254-2.9-2.894zm-8.68-11.576c0-1.64 1.25-2.894 2.89-2.894 1.64 0 2.9 1.351 2.9 2.894 0 1.64-1.26 2.894-2.9 2.894s-2.89-1.254-2.89-2.894zM818.608 135.34c.482-.386 1.061-.482 1.544-.482.964 0 1.832.482 2.411 1.35.362.633.469 1.351.342 2.024-1.605.006-3.498 0-5.629-.02a2.94 2.94 0 0 1 1.332-2.872zm-10.523 2.735c.32-.465.491-1.004.491-1.577 0-.483-.097-1.061-.483-1.544-.482-.868-1.447-1.35-2.411-1.35-.483 0-1.061.096-1.544.482-.868.579-1.35 1.447-1.35 2.412 0 .458.087 1.004.427 1.471 1.678.04 3.304.075 4.87.106zm-15.362-.394l.032-.026a2.946 2.946 0 0 0 .965-3.955c-.579-.868-1.447-1.35-2.412-1.35-.482 0-1.061.096-1.543.482a2.947 2.947 0 0 0-.965 3.955c.211.317.46.582.739.791 1.07.036 2.133.07 3.184.103zm16.625-17.1c.482-.386 1.061-.482 1.543-.482.965 0 1.929.482 2.412 1.35a2.948 2.948 0 0 1-.965 3.955c-.482.386-1.061.483-1.544.483-.964 0-1.832-.483-2.411-1.351a2.946 2.946 0 0 1 .965-3.955zm-9.165-14.663c.483-.386 1.061-.482 1.544-.482.964 0 1.929.482 2.411 1.35a2.948 2.948 0 0 1-.964 3.956c-.483.385-1.061.482-1.544.482-.964 0-1.833-.482-2.411-1.351a2.947 2.947 0 0 1 .964-3.955zm-19.679 12.251c.483-.385 1.061-.482 1.544-.482.964 0 1.929.482 2.411 1.351a2.947 2.947 0 0 1-.964 3.955c-.483.386-1.061.482-1.544.482-.964 0-1.833-.482-2.411-1.35a2.948 2.948 0 0 1 .964-3.956zm14.47 1.158c.482-.386 1.061-.482 1.544-.482.964 0 1.929.482 2.411 1.35.386.483.483 1.061.483 1.544 0 .964-.483 1.833-1.351 2.411-.482.386-1.061.483-1.543.483-.965 0-1.833-.483-2.412-1.351-.386-.482-.482-1.061-.482-1.543 0-.965.482-1.833 1.35-2.412zm-34.052 10.997c.482-.386 1.061-.482 1.543-.482.965 0 1.93.482 2.412 1.35a2.946 2.946 0 0 1-.965 3.955c-.482.386-1.061.483-1.543.483-.965 0-1.833-.483-2.412-1.351a2.946 2.946 0 0 1 .965-3.955zm14.373 1.254c.482-.386 1.061-.482 1.544-.482.964 0 1.929.482 2.411 1.35.386.483.483 1.061.483 1.544 0 .964-.483 1.833-1.351 2.411-.482.386-1.061.483-1.543.483-.965 0-1.833-.483-2.412-1.351-.386-.482-.482-1.061-.482-1.543 0-.965.482-1.833 1.35-2.412zm-3.955-28.168c.482-.386 1.061-.482 1.544-.482.964 0 1.929.482 2.411 1.35a2.946 2.946 0 0 1-.964 3.955c-.483.386-1.062.483-1.544.483-.965 0-1.833-.483-2.412-1.351a2.948 2.948 0 0 1 .965-3.955zm14.47 1.254c.482-.386 1.061-.482 1.543-.482.965 0 1.93.482 2.412 1.35.386.483.482 1.061.482 1.544 0 .964-.482 1.833-1.35 2.411-.483.386-1.061.483-1.544.483-.964 0-1.833-.483-2.411-1.351-.386-.482-.483-1.061-.483-1.543 0-.965.483-1.833 1.351-2.412zm-34.052 10.997c.482-.386 1.061-.482 1.543-.482.965 0 1.833.482 2.412 1.35a2.948 2.948 0 0 1-.965 3.956c-.482.385-1.061.482-1.543.482-.965 0-1.833-.482-2.412-1.351a2.946 2.946 0 0 1 .965-3.955zm14.373 1.254c.482-.386 1.061-.482 1.543-.482.965 0 1.93.482 2.412 1.351.386.482.482 1.061.482 1.543 0 .965-.482 1.833-1.35 2.412-.482.386-1.061.482-1.544.482-.964 0-1.832-.482-2.411-1.351-.386-.482-.483-1.061-.483-1.543 0-.965.483-1.833 1.351-2.412zm-34.052 10.997c.482-.385 1.061-.482 1.543-.482.965 0 1.929.482 2.412 1.351a2.947 2.947 0 0 1-.965 3.955c-.482.386-1.061.482-1.543.482-.965 0-1.833-.482-2.412-1.35a2.947 2.947 0 0 1 .965-3.956zm14.373 1.158c.482-.386 1.061-.482 1.543-.482.965 0 1.93.578 2.412 1.35.386.483.482 1.061.482 1.544 0 .964-.482 1.833-1.35 2.411-.482.386-1.061.483-1.544.483-.964 0-1.832-.483-2.411-1.351-.386-.482-.483-1.061-.483-1.543 0-.965.483-1.833 1.351-2.412zm-3.955-28.168c.482-.386 1.061-.482 1.543-.482.965 0 1.93.482 2.412 1.35a2.946 2.946 0 0 1-.965 3.955c-.482.386-1.061.483-1.543.483-.965 0-1.833-.483-2.412-1.351a2.946 2.946 0 0 1 .965-3.955zm14.47 1.254c.482-.386 1.061-.482 1.543-.482.965 0 1.929.482 2.412 1.35.386.483.482 1.061.482 1.544 0 .964-.482 1.833-1.35 2.411-.483.386-1.061.483-1.544.483-.964 0-1.833-.483-2.411-1.351-.386-.482-.483-1.061-.483-1.543 0-.965.483-1.833 1.351-2.412zm-19.679 12.251c.482-.386 1.061-.482 1.543-.482.965 0 1.93.482 2.412 1.35.386.483.482 1.062.482 1.544 0 .965-.482 1.833-1.35 2.412-.483.385-1.061.482-1.544.482-.964 0-1.833-.482-2.411-1.351-.386-.482-.483-1.061-.483-1.543 0-.965.483-1.833 1.351-2.412z" fill="#DFE0E3"/><defs><linearGradient id="paint0_linear" x1="885.806" y1="631.614" x2="1440.6" y2="76.818" gradientUnits="userSpaceOnUse"><stop stop-color="#D4D6D9"/><stop offset=".309" stop-color="#DDDDDB"/><stop offset=".806" stop-color="#F4F0DF"/><stop offset=".994" stop-color="#FFF9E1"/></linearGradient><linearGradient id="paint1_linear" x1="1130.99" y1="157.34" x2="1263.24" y2="157.34" gradientUnits="userSpaceOnUse"><stop stop-color="#FDE476"/><stop offset=".994" stop-color="#FBBA23"/></linearGradient><linearGradient id="paint2_linear" x1="1065.34" y1="244.167" x2="1198.08" y2="244.167" gradientUnits="userSpaceOnUse"><stop stop-color="#A9D9A4"/><stop offset="1" stop-color="#65BB5C"/></linearGradient><linearGradient id="paint3_linear" x1="1059.81" y1="430.707" x2="1237.3" y2="430.707" gradientUnits="userSpaceOnUse"><stop stop-color="#8580A9"/><stop offset="1" stop-color="#945CA2"/></linearGradient><linearGradient id="paint4_linear" x1="1188.31" y1="356.44" x2="1365.81" y2="356.44" gradientUnits="userSpaceOnUse"><stop stop-color="#F56344"/><stop offset=".994" stop-color="#F23B14"/></linearGradient><linearGradient id="paint5_linear" x1="1059.81" y1="393.936" x2="1237.3" y2="393.936" gradientUnits="userSpaceOnUse"><stop stop-color="#8580A9"/><stop offset="1" stop-color="#945CA2"/></linearGradient><linearGradient id="paint6_linear" x1="974.236" y1="357.823" x2="1106.98" y2="357.823" gradientUnits="userSpaceOnUse"><stop stop-color="#99D4FF"/><stop offset="1" stop-color="#3AF"/></linearGradient><linearGradient id="paint7_linear" x1="1059.81" y1="393.792" x2="1237.3" y2="393.792" gradientUnits="userSpaceOnUse"><stop stop-color="#8580A9"/><stop offset="1" stop-color="#945CA2"/></linearGradient><linearGradient id="paint8_linear" x1="929.48" y1="474.692" x2="1106.98" y2="474.692" gradientUnits="userSpaceOnUse"><stop stop-color="#F56344"/><stop offset=".994" stop-color="#F23B14"/></linearGradient><linearGradient id="paint9_linear" x1="1034.49" y1="436.479" x2="1061.77" y2="436.479" gradientUnits="userSpaceOnUse"><stop stop-color="#F56344"/><stop offset=".994" stop-color="#F23B14"/></linearGradient><linearGradient id="paint10_linear" x1="1061.57" y1="436.461" x2="1062.81" y2="436.461" gradientUnits="userSpaceOnUse"><stop stop-color="#F56344"/><stop offset=".994" stop-color="#F23B14"/></linearGradient><linearGradient id="paint11_linear" x1="1223.93" y1="475.125" x2="1401.43" y2="475.125" gradientUnits="userSpaceOnUse"><stop stop-color="#FDE476"/><stop offset=".994" stop-color="#FBBA23"/></linearGradient><linearGradient id="paint12_linear" x1="1390.02" y1="168.9" x2="1471.42" y2="168.9" gradientUnits="userSpaceOnUse"><stop stop-color="#99D4FF"/><stop offset="1" stop-color="#3AF"/></linearGradient><linearGradient id="paint13_linear" x1="1438.44" y1="210.907" x2="1518.34" y2="210.907" gradientUnits="userSpaceOnUse"><stop stop-color="#FDE476"/><stop offset=".994" stop-color="#FBBA23"/></linearGradient><linearGradient id="paint14_linear" x1="1390.02" y1="188.627" x2="1471.42" y2="188.627" gradientUnits="userSpaceOnUse"><stop stop-color="#99D4FF"/><stop offset="1" stop-color="#3AF"/></linearGradient><linearGradient id="paint15_linear" x1="341.025" y1="208.03" x2="372.13" y2="208.03" gradientUnits="userSpaceOnUse"><stop stop-color="#FDE476"/><stop offset=".994" stop-color="#FBBA23"/></linearGradient><linearGradient id="paint16_linear" x1="372.13" y1="231.043" x2="431.248" y2="231.043" gradientUnits="userSpaceOnUse"><stop stop-color="#F56344"/><stop offset=".994" stop-color="#F23B14"/></linearGradient><linearGradient id="paint17_linear" x1="1448.68" y1="377.671" x2="1507.8" y2="377.671" gradientUnits="userSpaceOnUse"><stop stop-color="#A9D9A4"/><stop offset="1" stop-color="#65BB5C"/></linearGradient><linearGradient id="paint18_linear" x1="702.93" y1="182.225" x2="811.06" y2="182.225" gradientUnits="userSpaceOnUse"><stop stop-color="#F56344"/><stop offset=".994" stop-color="#F23B14"/></linearGradient><linearGradient id="paint19_linear" x1="702.93" y1="161.532" x2="811.06" y2="161.532" gradientUnits="userSpaceOnUse"><stop stop-color="#F56344"/><stop offset=".994" stop-color="#F23B14"/></linearGradient><linearGradient id="paint20_linear" x1="655.138" y1="251.729" x2="729.518" y2="251.729" gradientUnits="userSpaceOnUse"><stop stop-color="#99D4FF"/><stop offset="1" stop-color="#3AF"/></linearGradient><linearGradient id="paint21_linear" x1="528.73" y1="99.055" x2="584.705" y2="99.055" gradientUnits="userSpaceOnUse"><stop stop-color="#FDE476"/><stop offset=".994" stop-color="#FBBA23"/></linearGradient><linearGradient id="paint22_linear" x1="506.503" y1="113.144" x2="548.582" y2="113.144" gradientUnits="userSpaceOnUse"><stop stop-color="#99D4FF"/><stop offset="1" stop-color="#3AF"/></linearGradient><linearGradient id="paint23_linear" x1="528.73" y1="100.82" x2="584.705" y2="100.82" gradientUnits="userSpaceOnUse"><stop stop-color="#FDE476"/><stop offset=".994" stop-color="#FBBA23"/></linearGradient><linearGradient id="paint24_linear" x1="507.689" y1="160.286" x2="549.771" y2="160.286" gradientUnits="userSpaceOnUse"><stop stop-color="#A9D9A4"/><stop offset="1" stop-color="#65BB5C"/></linearGradient><linearGradient id="paint25_linear" x1="506.503" y1="137.811" x2="548.584" y2="137.811" gradientUnits="userSpaceOnUse"><stop stop-color="#99D4FF"/><stop offset="1" stop-color="#3AF"/></linearGradient><linearGradient id="paint26_linear" x1="507.689" y1="137.811" x2="549.771" y2="137.811" gradientUnits="userSpaceOnUse"><stop stop-color="#A9D9A4"/><stop offset="1" stop-color="#65BB5C"/></linearGradient><linearGradient id="paint27_linear" x1="841.121" y1="298.032" x2="973.225" y2="298.032" gradientUnits="userSpaceOnUse"><stop stop-color="#8580A9"/><stop offset="1" stop-color="#945CA2"/></linearGradient><linearGradient id="paint28_linear" x1="1118.21" y1="457.85" x2="1189.19" y2="457.85" gradientUnits="userSpaceOnUse"><stop stop-color="#B89BC9"/><stop offset=".957" stop-color="#8C60A7"/></linearGradient><linearGradient id="paint29_linear" x1="1264.46" y1="374.102" x2="1321.68" y2="420.052" gradientUnits="userSpaceOnUse"><stop stop-color="#35398E"/><stop offset="1" stop-color="#1D1B4C"/></linearGradient><linearGradient id="paint30_linear" x1="1159.53" y1="178.309" x2="1227.18" y2="191.062" gradientUnits="userSpaceOnUse"><stop stop-color="#B89BC9"/><stop offset=".957" stop-color="#8C60A7"/></linearGradient><linearGradient id="paint31_linear" x1="1157.43" y1="189.447" x2="1225.08" y2="202.2" gradientUnits="userSpaceOnUse"><stop stop-color="#B89BC9"/><stop offset=".957" stop-color="#8C60A7"/></linearGradient><linearGradient id="paint32_linear" x1="886.946" y1="318.485" x2="967.142" y2="327.089" gradientUnits="userSpaceOnUse"><stop stop-color="#35398E"/><stop offset="1" stop-color="#1D1B4C"/></linearGradient><linearGradient id="paint33_linear" x1="730.249" y1="117.586" x2="810.662" y2="117.586" gradientUnits="userSpaceOnUse"><stop stop-color="#8580A9"/><stop offset="1" stop-color="#945CA2"/></linearGradient><clipPath id="clip0"><path fill="#fff" d="M734.579 72.445H810.6899999999999V162.737H734.579z"/></clipPath></defs></svg>