<svg width="282" height="282" fill="none" xmlns="http://www.w3.org/2000/svg"><circle cx="141" cy="141" r="141" fill="#4A9ED7"></circle><path fill-rule="evenodd" clip-rule="evenodd" d="M185.262 59.52L141.059 34 96.857 59.52v51.04l44.202 25.52 44.203-25.52V59.52zm-31.557 47.422L166.35 85.04l-12.645-21.902h-25.291L115.769 85.04l12.645 21.902h25.291zm47.072 121.103h4.598V240H76.625v-11.955h4.598v-7.357h3.679v-7.358h29.428v-5.518l6.438.001v-5.518h8.276v-53.34h-8.276v-6.437h15.634v65.295h9.196v-65.295h15.634v6.437h-8.277v53.34h8.277v5.518l6.438-.001v5.518h29.428v7.358h3.679v7.357z" fill="#fff"></path></svg>