<svg fill="none" height="732" width="1819" xmlns="http://www.w3.org/2000/svg" xmlns:xlink="http://www.w3.org/1999/xlink"><filter id="a" color-interpolation-filters="sRGB" filterUnits="userSpaceOnUse" height="512" width="512" x="185" y="93"><feFlood flood-opacity="0" result="BackgroundImageFix"/><feColorMatrix in="SourceAlpha" result="hardAlpha" values="0 0 0 0 0 0 0 0 0 0 0 0 0 0 0 0 0 0 127 0"/><feOffset dy="4"/><feGaussianBlur stdDeviation="30"/><feComposite in2="hardAlpha" operator="out"/><feColorMatrix values="0 0 0 0 0 0 0 0 0 0 0 0 0 0 0 0 0 0 0.25 0"/><feBlend in2="BackgroundImageFix" result="effect1_dropShadow_122_883"/><feBlend in="SourceGraphic" in2="effect1_dropShadow_122_883" result="shape"/></filter><linearGradient id="b"><stop offset="0" stop-color="#1bd839"/><stop offset="1" stop-color="#11a896"/></linearGradient><linearGradient id="c" gradientUnits="userSpaceOnUse" x1="1064" x2="1179.89" xlink:href="#b" y1="49.679" y2="166.179"/><linearGradient id="d"><stop offset="0" stop-color="#e35050"/><stop offset="1" stop-color="#9d3030"/></linearGradient><linearGradient id="e" gradientUnits="userSpaceOnUse" x1="677" x2="792.887" xlink:href="#d" y1="98.679" y2="215.179"/><linearGradient id="f"><stop offset="0" stop-color="#32456c"/><stop offset="1" stop-color="#2a3f68"/></linearGradient><linearGradient id="g" gradientUnits="userSpaceOnUse" x1="1213.82" x2="1443.88" xlink:href="#f" y1="259.183" y2="259.953"/><linearGradient id="h"><stop offset="0" stop-color="#1a2231"/><stop offset="1" stop-color="#2c416a"/></linearGradient><linearGradient id="i" gradientUnits="userSpaceOnUse" x1="1062.26" x2="1379.67" xlink:href="#h" y1="354.766" y2="352.452"/><linearGradient id="j" gradientUnits="userSpaceOnUse" x1="971" x2="1132.91" y1="209.14" y2="371.904"><stop offset="0" stop-color="#2f394d"/><stop offset="1" stop-color="#283959"/></linearGradient><linearGradient id="k" gradientUnits="userSpaceOnUse" x1="-3" x2="174.235" xlink:href="#d" y1="53.627" y2="231.799"/><linearGradient id="l" gradientUnits="userSpaceOnUse" x1="811.911" x2="1349.03" xlink:href="#f" y1="277.834" y2="279.631"/><linearGradient id="m" gradientUnits="userSpaceOnUse" x1="458.052" x2="1199.1" xlink:href="#h" y1="500.989" y2="495.586"/><linearGradient id="n" gradientUnits="userSpaceOnUse" x1="1108" x2="1223.89" xlink:href="#b" y1="444.679" y2="561.179"/><linearGradient id="o" gradientUnits="userSpaceOnUse" x1="251" x2="366.887" xlink:href="#b" y1="615.679" y2="732.179"/><linearGradient id="p"><stop offset="0" stop-color="#ec721b"/><stop offset="1" stop-color="#e9a985"/></linearGradient><linearGradient id="q" gradientUnits="userSpaceOnUse" x1="713" x2="942.671" xlink:href="#p" y1="444.291" y2="675.177"/><linearGradient id="r" gradientUnits="userSpaceOnUse" x1="1303" x2="1479" xlink:href="#p" y1="350.587" y2="527.521"/><clipPath id="s"><path d="M0 0h1819v732H0z"/></clipPath><g clip-path="url('#s')"><path d="m1182.54 47.886 861.284 861.284-60.319 60.32-861.284-861.285z" fill="#4b885a"/><path d="m1124.03 106.029 729.473 729.473-58.25 58.25-729.473-729.473z" fill="#204238"/><path d="M1064 52.132a6.134 6.134 0 0 1 6.13-6.132h107.92c3.38 0 6.13 2.745 6.13 6.132v114.047h-114.05a6.135 6.135 0 0 1-6.13-6.132z" fill="url('#c')"/><path d="m795.539 96.886 735.285 735.285-60.32 60.32L735.22 157.204z" fill="#d34646"/><path d="m737.029 155.029 733.468 733.468-58.25 58.25-733.468-733.468z" fill="#822a2a"/><path d="M677 101.132A6.132 6.132 0 0 1 683.132 95h107.915a6.132 6.132 0 0 1 6.132 6.132v114.047H683.132a6.132 6.132 0 0 1-6.132-6.132z" fill="url('#e')"/><path d="M1136.61 206.635h383.799v119.18H1136.61z" fill="url('#g')" transform="rotate(45 1136.61 206.635)"/><path d="M1054.87 287.867h340.548v115.092H1054.87z" fill="url('#i')" transform="rotate(45 1054.87 287.867)"/><path d="M971 212.567a8.566 8.566 0 0 1 8.567-8.567h150.773c4.73 0 8.56 3.835 8.56 8.567v159.337H979.567a8.566 8.566 0 0 1-8.567-8.567z" fill="url('#j')"/><path d="m178.291 50.884 1124.533 1124.533-92.251 92.252L86.04 143.135z" fill="#d34646"/><path d="M88.807 139.807 1210.56 1261.561l-89.086 89.086L-.28 228.893z" fill="#822a2a"/><path d="M-3 57.377A9.378 9.378 0 0 1 6.377 48h165.044a9.377 9.377 0 0 1 9.378 9.377V231.8H6.377A9.377 9.377 0 0 1-3 222.421z" fill="url('#k')"/><path d="M631.651 155.151h896.044v278.247H631.651z" fill="url('#l')" transform="rotate(45 631.651 155.151)"/><path d="M440.803 344.803h795.067v268.701H440.803z" fill="url('#m')" transform="rotate(45 440.803 344.803)"/><g filter="url('#a')"><path d="M245 169c0-11.046 8.954-20 20-20h352c11.046 0 20 8.954 20 20v372H265c-11.046 0-20-8.954-20-20z" fill="#2a3956"/></g><path d="m1226.54 442.886 861.284 861.284-60.319 60.32-861.284-861.285z" fill="#4b885a"/><path d="m1168.03 501.029 729.473 729.473-58.25 58.25-729.473-729.473z" fill="#204238"/><path d="M1108 447.132a6.134 6.134 0 0 1 6.13-6.132h107.92c3.38 0 6.13 2.745 6.13 6.132v114.047h-114.05a6.135 6.135 0 0 1-6.13-6.132z" fill="url('#n')"/><path d="m369.539 613.886 861.284 861.284-60.319 60.32L309.22 674.205z" fill="#4b885a"/><path d="M251 618.132a6.132 6.132 0 0 1 6.132-6.132h107.915a6.132 6.132 0 0 1 6.132 6.132v114.047H257.132a6.132 6.132 0 0 1-6.132-6.132z" fill="url('#o')"/><path d="m947.927 440.738 384.972 384.972-119.545 119.544-384.971-384.972z" fill="#f0b895"/><path d="M831.969 555.969 1520 1244l-115.44 115.44-688.034-688.028z" fill="#9c5d33"/><path d="M713 449.152c0-6.711 5.441-12.152 12.152-12.152h213.873c6.712 0 12.152 5.441 12.152 12.152v226.025H725.152c-6.711 0-12.152-5.44-12.152-12.152z" fill="url('#q')"/><path d="m1483.03 347.864 460.053 460.053-91.61 91.61-460.053-460.053z" fill="#f0b895"/><path d="m1394.17 436.168 527.25 527.255-88.46 88.467-527.26-527.255z" fill="#9c5d33"/><path d="M1303 354.312c0-5.143 4.17-9.312 9.31-9.312h163.9c5.14 0 9.31 4.169 9.31 9.312v173.209h-173.21c-5.14 0-9.31-4.169-9.31-9.313z" fill="url('#r')"/></g></svg>