<?xml version="1.0" encoding="utf-8"?>
<!-- Generator: Adobe Illustrator 25.4.1, SVG Export Plug-In . SVG Version: 6.00 Build 0)  -->
<svg version="1.1" id="Layer_1" xmlns="http://www.w3.org/2000/svg" xmlns:xlink="http://www.w3.org/1999/xlink" x="0px" y="0px"
	 viewBox="0 0 294.3 266.9" style="enable-background:new 0 0 294.3 266.9;" xml:space="preserve">
<style type="text/css">
	.Graphic_x0020_Style_x0020_5{fill:url(#SVGID_1_);}
	.Graphic_x0020_Style{fill:url(#SVGID_00000015344536350707899630000002883395593513905065_);}
	.st0{opacity:0.3;fill:#DACEC2;}
	.st1{enable-background:new    ;}
	.st2{fill:#E8E8F5;}
	.st3{fill:#827BB9;}
	.st4{fill:#AEB3CD;}
	.st5{fill:#4E2D88;}
	.st6{fill:#241957;}
	.st7{fill:#7056A4;}
	.st8{fill:#DEDDEF;}
	.st9{fill:#CAC9E5;}
	.st10{fill:#FFFFFF;}
	.st11{fill:url(#SVGID_00000026863643315258661480000005945348791504190372_);}
	.st12{opacity:0.5;}
	.st13{opacity:1.000000e-02;fill:#A875B3;}
	.st14{opacity:2.285714e-02;fill:#A774B2;}
	.st15{opacity:3.571429e-02;fill:#A674B2;}
	.st16{opacity:4.857143e-02;fill:#A574B2;}
	.st17{opacity:6.142857e-02;fill:#A473B2;}
	.st18{opacity:7.428572e-02;fill:#A473B1;}
	.st19{opacity:8.714285e-02;fill:#A372B1;}
	.st20{opacity:0.1;fill:#A272B1;}
	.st21{opacity:0.1129;fill:#A171B1;}
	.st22{opacity:0.1257;fill:#A171B1;}
	.st23{opacity:0.1386;fill:#A071B1;}
	.st24{opacity:0.1514;fill:#9F70B0;}
	.st25{opacity:0.1643;fill:#9E70B0;}
	.st26{opacity:0.1771;fill:#9E6FB0;}
	.st27{opacity:0.19;fill:#9D6FB0;}
	.st28{opacity:0.2029;fill:#9C6EB0;}
	.st29{opacity:0.2157;fill:#9C6EAF;}
	.st30{opacity:0.2286;fill:#9B6EAF;}
	.st31{opacity:0.2414;fill:#9A6DAF;}
	.st32{opacity:0.2543;fill:#996DAF;}
	.st33{opacity:0.2671;fill:#996CAF;}
	.st34{opacity:0.28;fill:#986CAE;}
	.st35{opacity:0.2929;fill:#976CAE;}
	.st36{opacity:0.3057;fill:#966BAE;}
	.st37{opacity:0.3186;fill:#966BAE;}
	.st38{opacity:0.3314;fill:#956AAE;}
	.st39{opacity:0.3443;fill:#946AAD;}
	.st40{opacity:0.3571;fill:#946AAD;}
	.st41{opacity:0.37;fill:#9369AD;}
	.st42{opacity:0.3829;fill:#9269AD;}
	.st43{opacity:0.3957;fill:#9168AD;}
	.st44{opacity:0.4086;fill:#9168AD;}
	.st45{opacity:0.4214;fill:#9068AC;}
	.st46{opacity:0.4343;fill:#8F67AC;}
	.st47{opacity:0.4471;fill:#8E67AC;}
	.st48{opacity:0.46;fill:#8E66AC;}
	.st49{opacity:0.4729;fill:#8D66AC;}
	.st50{opacity:0.4857;fill:#8C66AB;}
	.st51{opacity:0.4986;fill:#8C65AB;}
	.st52{opacity:0.5114;fill:#8B65AB;}
	.st53{opacity:0.5243;fill:#8A64AB;}
	.st54{opacity:0.5371;fill:#8A64AB;}
	.st55{opacity:0.55;fill:#8964AB;}
	.st56{opacity:0.5629;fill:#8863AA;}
	.st57{opacity:0.5757;fill:#8763AA;}
	.st58{opacity:0.5886;fill:#8762AA;}
	.st59{opacity:0.6014;fill:#8662AA;}
	.st60{opacity:0.6143;fill:#8562AA;}
	.st61{opacity:0.6271;fill:#8561A9;}
	.st62{opacity:0.64;fill:#8461A9;}
	.st63{opacity:0.6529;fill:#8360A9;}
	.st64{opacity:0.6657;fill:#8260A9;}
	.st65{opacity:0.6786;fill:#8260A9;}
	.st66{opacity:0.6914;fill:#815FA9;}
	.st67{opacity:0.7043;fill:#805FA8;}
	.st68{opacity:0.7171;fill:#805EA8;}
	.st69{opacity:0.73;fill:#7F5EA8;}
	.st70{opacity:0.7429;fill:#7E5EA8;}
	.st71{opacity:0.7557;fill:#7E5DA8;}
	.st72{opacity:0.7686;fill:#7D5DA7;}
	.st73{opacity:0.7814;fill:#7C5DA7;}
	.st74{opacity:0.7943;fill:#7B5CA7;}
	.st75{opacity:0.8071;fill:#7B5CA7;}
	.st76{opacity:0.82;fill:#7A5BA7;}
	.st77{opacity:0.8329;fill:#795BA6;}
	.st78{opacity:0.8457;fill:#795BA6;}
	.st79{opacity:0.8586;fill:#785AA6;}
	.st80{opacity:0.8714;fill:#775AA6;}
	.st81{opacity:0.8843;fill:#765AA6;}
	.st82{opacity:0.8971;fill:#7659A6;}
	.st83{opacity:0.91;fill:#7559A5;}
	.st84{opacity:0.9229;fill:#7458A5;}
	.st85{opacity:0.9357;fill:#7458A5;}
	.st86{opacity:0.9486;fill:#7358A5;}
	.st87{opacity:0.9614;fill:#7257A5;}
	.st88{opacity:0.9743;fill:#7257A5;}
	.st89{opacity:0.9871;fill:#7157A4;}
	.st90{fill:url(#SVGID_00000006708471666285622260000015544416718904802474_);}
	.st91{fill:#8A59A4;}
	.st92{clip-path:url(#SVGID_00000052106023672344976740000005718621196003700109_);enable-background:new    ;}
	.st93{clip-path:url(#SVGID_00000086688385751432642220000016625538693078645655_);enable-background:new    ;}
	.st94{clip-path:url(#SVGID_00000114069472261137022490000010189225919847273361_);enable-background:new    ;}
	.st95{clip-path:url(#SVGID_00000114062761581851011800000001693630973294255269_);enable-background:new    ;}
	.st96{fill:url(#SVGID_00000037684624198537923840000000704384764926248606_);}
	.st97{fill:url(#SVGID_00000148619636214232050340000016865451388519393178_);}
	.st98{fill:url(#SVGID_00000126281196441032695010000004072089596569809049_);}
	.st99{fill:url(#SVGID_00000090268840710719437980000005678455139849297545_);}
	.st100{clip-path:url(#SVGID_00000123441611774517913660000014853907471152301985_);enable-background:new    ;}
	.st101{clip-path:url(#SVGID_00000065038144661052309740000009293724074456040582_);enable-background:new    ;}
	.st102{clip-path:url(#SVGID_00000044139525481575924600000008995245657241434016_);}
	.st103{clip-path:url(#SVGID_00000008137904489507615540000008707955271203986598_);enable-background:new    ;}
	.st104{clip-path:url(#SVGID_00000037677669457531620570000000628919482398046373_);enable-background:new    ;}
	.st105{fill:#F1F1F8;}
	.st106{clip-path:url(#SVGID_00000071538089398956261870000007557365624901150129_);enable-background:new    ;}
	.st107{clip-path:url(#SVGID_00000138558808223909732340000008581039802464606890_);enable-background:new    ;}
	.st108{clip-path:url(#SVGID_00000057854151219720446820000013345202317100614552_);enable-background:new    ;}
	.st109{clip-path:url(#SVGID_00000093154446658436074520000007312484590093078927_);enable-background:new    ;}
</style>
<linearGradient id="SVGID_1_" gradientUnits="userSpaceOnUse" x1="-220" y1="-176" x2="-219.5" y2="-175.134">
	<stop  offset="0" style="stop-color:#8A59A4"/>
	<stop  offset="0.261" style="stop-color:#744898"/>
	<stop  offset="0.5631" style="stop-color:#60398F"/>
	<stop  offset="0.8202" style="stop-color:#53308A"/>
	<stop  offset="1" style="stop-color:#4E2D88"/>
</linearGradient>
<linearGradient id="SVGID_00000114753401868462087630000011038598773107761285_" gradientUnits="userSpaceOnUse" x1="-220" y1="-176" x2="-219.5" y2="-175.134">
	<stop  offset="0" style="stop-color:#8A59A4"/>
	<stop  offset="0.261" style="stop-color:#744898"/>
	<stop  offset="0.5631" style="stop-color:#60398F"/>
	<stop  offset="0.8202" style="stop-color:#53308A"/>
	<stop  offset="1" style="stop-color:#4E2D88"/>
</linearGradient>
<polygon class="st0" points="141.3,199.9 157.4,199.9 219,164.3 164.9,132.3 126.2,153.6 "/>
<g>
	<g>
		<g class="st1">
			<g>
				<polygon class="st2" points="82.4,150.6 85.2,148.9 89.1,151.2 86.3,152.8 				"/>
			</g>
			<g>
				<polygon class="st3" points="89.7,149.3 92.6,147.7 89.7,152.5 86.8,154.1 				"/>
			</g>
			<g>
				<polygon class="st4" points="96.5,152.3 99.4,150.6 99.4,151.6 96.5,153.3 				"/>
			</g>
			<g>
				<polygon class="st2" points="89.2,148 92.1,146.4 99.4,150.6 96.5,152.3 				"/>
			</g>
			<g>
				<polygon class="st4" points="96.5,152.3 96.5,153.3 89.7,149.3 86.8,154.1 82.4,151.6 82.4,150.6 86.3,152.8 89.2,148 				"/>
			</g>
		</g>
	</g>
	<g>
		<g class="st1">
			<g>
				<polygon class="st2" points="93,144.5 95.9,142.8 99.8,145.1 96.9,146.8 				"/>
			</g>
			<g>
				<polygon class="st3" points="100.4,143.3 103.3,141.6 100.3,146.4 97.5,148.1 				"/>
			</g>
			<g>
				<polygon class="st4" points="107.2,146.2 110.1,144.5 110.1,145.5 107.2,147.2 				"/>
			</g>
			<g>
				<polygon class="st2" points="99.9,142 102.8,140.3 110.1,144.5 107.2,146.2 				"/>
			</g>
			<g>
				<polygon class="st4" points="107.2,146.2 107.2,147.2 100.4,143.3 97.5,148.1 93,145.5 93,144.5 96.9,146.8 99.9,142 				"/>
			</g>
		</g>
	</g>
	<g>
		<g class="st1">
			<g>
				<polygon class="st2" points="103.3,138.4 106.1,136.8 110,139 107.2,140.7 				"/>
			</g>
			<g>
				<polygon class="st3" points="110.6,137.2 113.5,135.5 110.6,140.3 107.7,142 				"/>
			</g>
			<g>
				<polygon class="st4" points="117.4,140.1 120.3,138.4 120.3,139.4 117.4,141.1 				"/>
			</g>
			<g>
				<polygon class="st2" points="110.1,135.9 113,134.2 120.3,138.4 117.4,140.1 				"/>
			</g>
			<g>
				<polygon class="st4" points="117.4,140.1 117.4,141.1 110.6,137.2 107.7,142 103.3,139.4 103.3,138.4 107.2,140.7 110.1,135.9 
									"/>
			</g>
		</g>
	</g>
	<g>
		<g class="st1">
			<g>
				<polygon class="st2" points="71.8,157.2 74.7,155.5 78.6,157.8 75.7,159.4 				"/>
			</g>
			<g>
				<polygon class="st3" points="79.2,155.9 82.1,154.3 79.1,159.1 76.2,160.8 				"/>
			</g>
			<g>
				<polygon class="st4" points="86,158.9 88.9,157.2 88.8,158.2 86,159.9 				"/>
			</g>
			<g>
				<polygon class="st2" points="78.7,154.6 81.5,153 88.9,157.2 86,158.9 				"/>
			</g>
			<g>
				<polygon class="st4" points="86,158.9 86,159.9 79.2,155.9 76.2,160.8 71.8,158.2 71.8,157.2 75.7,159.4 78.7,154.6 				"/>
			</g>
		</g>
	</g>
	<g>
		<g class="st1">
			<g>
				<polygon class="st2" points="114.6,132 117.5,130.3 121.4,132.6 118.5,134.2 				"/>
			</g>
			<g>
				<polygon class="st3" points="122,130.7 124.9,129.1 121.9,133.9 119,135.6 				"/>
			</g>
			<g>
				<polygon class="st4" points="128.8,133.7 131.7,132 131.7,133 128.8,134.7 				"/>
			</g>
			<g>
				<polygon class="st2" points="121.5,129.4 124.3,127.8 131.7,132 128.8,133.7 				"/>
			</g>
			<g>
				<polygon class="st4" points="128.8,133.7 128.8,134.7 122,130.7 119,135.6 114.6,133 114.6,132 118.5,134.2 121.5,129.4 				"/>
			</g>
		</g>
	</g>
	<g>
		<g class="st1">
			<g>
				<polygon class="st2" points="125.5,125.8 128.4,124.1 132.3,126.4 129.4,128 				"/>
			</g>
			<g>
				<polygon class="st3" points="132.9,124.5 135.8,122.9 132.8,127.7 130,129.4 				"/>
			</g>
			<g>
				<polygon class="st4" points="139.7,127.5 142.6,125.8 142.6,126.8 139.7,128.5 				"/>
			</g>
			<g>
				<polygon class="st2" points="132.4,123.2 135.3,121.6 142.6,125.8 139.7,127.5 				"/>
			</g>
			<g>
				<polygon class="st4" points="139.7,127.5 139.7,128.5 132.9,124.5 130,129.4 125.5,126.8 125.5,125.8 129.4,128 132.4,123.2 
									"/>
			</g>
		</g>
	</g>
</g>
<g>
	<g>
		<g class="st1">
			<g>
				<polygon class="st2" points="199.3,150.7 196.5,149.1 192.6,151.3 195.4,153 				"/>
			</g>
			<g>
				<polygon class="st3" points="192,149.5 189.1,147.8 192,152.6 194.9,154.3 				"/>
			</g>
			<g>
				<polygon class="st4" points="185.2,152.4 182.3,150.7 182.3,151.7 185.2,153.4 				"/>
			</g>
			<g>
				<polygon class="st2" points="192.5,148.2 189.6,146.5 182.3,150.7 185.2,152.4 				"/>
			</g>
			<g>
				<polygon class="st4" points="185.2,152.4 185.2,153.4 192,149.5 194.9,154.3 199.3,151.7 199.3,150.7 195.4,153 192.5,148.2 
									"/>
			</g>
		</g>
	</g>
	<g>
		<g class="st1">
			<g>
				<polygon class="st2" points="188.7,144.7 185.8,143 181.9,145.2 184.8,146.9 				"/>
			</g>
			<g>
				<polygon class="st3" points="181.3,143.4 178.4,141.7 181.4,146.5 184.2,148.2 				"/>
			</g>
			<g>
				<polygon class="st4" points="174.5,146.3 171.6,144.7 171.6,145.7 174.5,147.3 				"/>
			</g>
			<g>
				<polygon class="st2" points="181.8,142.1 179,140.4 171.6,144.7 174.5,146.3 				"/>
			</g>
			<g>
				<polygon class="st4" points="174.5,146.3 174.5,147.3 181.3,143.4 184.2,148.2 188.7,145.7 188.7,144.7 184.8,146.9 
					181.8,142.1 				"/>
			</g>
		</g>
	</g>
	<g>
		<g class="st1">
			<g>
				<polygon class="st2" points="178.4,138.6 175.6,136.9 171.7,139.1 174.5,140.8 				"/>
			</g>
			<g>
				<polygon class="st3" points="171.1,137.3 168.2,135.6 171.1,140.5 174,142.1 				"/>
			</g>
			<g>
				<polygon class="st4" points="164.3,140.2 161.4,138.6 161.4,139.6 164.3,141.2 				"/>
			</g>
			<g>
				<polygon class="st2" points="171.6,136 168.7,134.3 161.4,138.6 164.3,140.2 				"/>
			</g>
			<g>
				<polygon class="st4" points="164.3,140.2 164.3,141.2 171.1,137.3 174,142.1 178.4,139.6 178.4,138.6 174.5,140.8 171.6,136 
									"/>
			</g>
		</g>
	</g>
	<g>
		<g class="st1">
			<g>
				<polygon class="st2" points="209.9,157.3 207,155.7 203.1,157.9 206,159.6 				"/>
			</g>
			<g>
				<polygon class="st3" points="202.5,156.1 199.7,154.4 202.6,159.2 205.5,160.9 				"/>
			</g>
			<g>
				<polygon class="st4" points="195.7,159 192.9,157.4 192.9,158.4 195.7,160 				"/>
			</g>
			<g>
				<polygon class="st2" points="203.1,154.8 200.2,153.1 192.9,157.4 195.7,159 				"/>
			</g>
			<g>
				<polygon class="st4" points="195.7,159 195.7,160 202.5,156.1 205.5,160.9 209.9,158.3 209.9,157.3 206,159.6 203.1,154.8 				
					"/>
			</g>
		</g>
	</g>
	<g>
		<g class="st1">
			<g>
				<polygon class="st2" points="167.1,132.1 164.2,130.5 160.3,132.7 163.2,134.4 				"/>
			</g>
			<g>
				<polygon class="st3" points="159.7,130.9 156.8,129.2 159.8,134 162.7,135.7 				"/>
			</g>
			<g>
				<polygon class="st4" points="152.9,133.8 150,132.2 150.1,133.2 152.9,134.8 				"/>
			</g>
			<g>
				<polygon class="st2" points="160.2,129.6 157.4,127.9 150,132.2 152.9,133.8 				"/>
			</g>
			<g>
				<polygon class="st4" points="152.9,133.8 152.9,134.8 159.7,130.9 162.7,135.7 167.1,133.1 167.1,132.1 163.2,134.4 
					160.2,129.6 				"/>
			</g>
		</g>
	</g>
	<g>
		<g class="st1">
			<g>
				<polygon class="st2" points="156.2,125.9 153.3,124.3 149.4,126.5 152.3,128.2 				"/>
			</g>
			<g>
				<polygon class="st3" points="148.8,124.7 145.9,123 148.9,127.8 151.7,129.5 				"/>
			</g>
			<g>
				<polygon class="st4" points="142,127.6 139.1,126 139.1,127 142,128.6 				"/>
			</g>
			<g>
				<polygon class="st2" points="149.3,123.4 146.5,121.7 139.1,126 142,127.6 				"/>
			</g>
			<g>
				<polygon class="st4" points="142,127.6 142,128.6 148.8,124.7 151.7,129.5 156.2,126.9 156.2,125.9 152.3,128.2 149.3,123.4 
									"/>
			</g>
		</g>
	</g>
</g>
<g>
	<g class="st1">
		<g>
			<polygon class="st5" points="202.9,157.2 202.9,164.1 141.3,199.9 141.3,193 			"/>
		</g>
		<g>
			<polygon class="st6" points="141.3,193 141.3,199.9 79.3,164.1 79.3,157.2 			"/>
		</g>
		<g>
			<polygon class="st7" points="202.9,157.2 141.3,193 79.3,157.2 140.9,121.4 			"/>
		</g>
	</g>
</g>
<g>
	<g>
		<polygon class="st8" points="188.1,155.5 188.1,158.9 141.3,186.2 141.3,182.7 		"/>
	</g>
	<g>
		<polygon class="st9" points="141.3,182.7 141.3,186.2 94.1,158.9 94.1,155.5 		"/>
	</g>
	<g>
		<polygon class="st10" points="188.1,155.5 141.3,182.7 94.1,155.5 141,128.2 		"/>
	</g>
</g>
<g>
	<g>
		<g class="st1">
			<g>
				<polygon class="st9" points="74.3,175 71.4,173.3 74.3,165.1 77.2,166.8 				"/>
			</g>
			<g>
				<polygon class="st2" points="77.2,166.8 74.3,165.1 81.6,160.9 84.5,162.6 				"/>
			</g>
			<g>
				<polygon class="st2" points="70.4,177.2 67.5,175.6 71.4,173.3 74.3,175 				"/>
			</g>
			<g>
				<polygon class="st3" points="70.4,178.2 67.5,176.6 67.5,175.6 70.4,177.2 				"/>
			</g>
			<g>
				<polygon class="st4" points="84.5,162.6 84.5,163.6 77.7,167.5 74.8,175.7 70.4,178.2 70.4,177.2 74.3,175 77.2,166.8 				"/>
			</g>
		</g>
	</g>
	<g>
		<g class="st1">
			<g>
				<polygon class="st9" points="85.1,181.2 82.2,179.5 85.1,171.3 88,173 				"/>
			</g>
			<g>
				<polygon class="st2" points="88,173 85.1,171.3 92.4,167.1 95.3,168.8 				"/>
			</g>
			<g>
				<polygon class="st2" points="81.2,183.4 78.3,181.7 82.2,179.5 85.1,181.2 				"/>
			</g>
			<g>
				<polygon class="st3" points="81.2,184.4 78.3,182.7 78.3,181.7 81.2,183.4 				"/>
			</g>
			<g>
				<polygon class="st4" points="95.3,168.8 95.3,169.8 88.5,173.7 85.6,181.9 81.2,184.4 81.2,183.4 85.1,181.2 88,173 				"/>
			</g>
		</g>
	</g>
	<g>
		<g class="st1">
			<g>
				<polygon class="st9" points="95.8,187.4 92.9,185.7 95.8,177.6 98.7,179.2 				"/>
			</g>
			<g>
				<polygon class="st2" points="98.7,179.2 95.8,177.6 103.2,173.3 106,175 				"/>
			</g>
			<g>
				<polygon class="st2" points="91.9,189.7 89,188 92.9,185.7 95.8,187.4 				"/>
			</g>
			<g>
				<polygon class="st3" points="91.9,190.7 89,189 89,188 91.9,189.7 				"/>
			</g>
			<g>
				<polygon class="st4" points="106,175 106,176 99.2,179.9 96.3,188.1 91.9,190.7 91.9,189.7 95.8,187.4 98.7,179.2 				"/>
			</g>
		</g>
	</g>
	<g>
		<g class="st1">
			<g>
				<polygon class="st9" points="106.5,193.6 103.6,191.9 106.6,183.8 109.4,185.4 				"/>
			</g>
			<g>
				<polygon class="st2" points="109.4,185.4 106.6,183.8 113.9,179.5 116.8,181.2 				"/>
			</g>
			<g>
				<polygon class="st2" points="102.6,195.9 99.8,194.2 103.6,191.9 106.5,193.6 				"/>
			</g>
			<g>
				<polygon class="st3" points="102.6,196.9 99.8,195.2 99.8,194.2 102.6,195.9 				"/>
			</g>
			<g>
				<polygon class="st4" points="116.8,181.2 116.8,182.2 110,186.1 107.1,194.3 102.6,196.9 102.6,195.9 106.5,193.6 109.4,185.4 
									"/>
			</g>
		</g>
	</g>
	<g>
		<g class="st1">
			<g>
				<polygon class="st9" points="117.4,199.8 114.5,198.1 117.4,189.9 120.3,191.6 				"/>
			</g>
			<g>
				<polygon class="st2" points="120.3,191.6 117.4,189.9 124.7,185.7 127.6,187.4 				"/>
			</g>
			<g>
				<polygon class="st2" points="113.5,202 110.6,200.4 114.5,198.1 117.4,199.8 				"/>
			</g>
			<g>
				<polygon class="st3" points="113.5,203 110.6,201.4 110.6,200.4 113.5,202 				"/>
			</g>
			<g>
				<polygon class="st4" points="127.6,187.4 127.6,188.4 120.8,192.3 117.9,200.5 113.5,203 113.5,202 117.4,199.8 120.3,191.6 
									"/>
			</g>
		</g>
	</g>
	<g>
		<g class="st1">
			<g>
				<polygon class="st9" points="128,206 125.1,204.3 128,196.1 130.9,197.8 				"/>
			</g>
			<g>
				<polygon class="st2" points="130.9,197.8 128,196.1 135.4,191.9 138.2,193.6 				"/>
			</g>
			<g>
				<polygon class="st2" points="124.1,208.2 121.2,206.6 125.1,204.3 128,206 				"/>
			</g>
			<g>
				<polygon class="st3" points="124.1,209.2 121.2,207.6 121.2,206.6 124.1,208.2 				"/>
			</g>
			<g>
				<polygon class="st4" points="138.2,193.6 138.2,194.6 131.4,198.5 128.5,206.7 124.1,209.2 124.1,208.2 128,206 130.9,197.8 
									"/>
			</g>
		</g>
	</g>
</g>
<g>
	<g>
		<g class="st1">
			<g>
				<polygon class="st9" points="208.2,175.1 211.1,173.4 208.1,165.2 205.3,166.9 				"/>
			</g>
			<g>
				<polygon class="st2" points="205.3,166.9 208.1,165.2 200.8,161 198,162.7 				"/>
			</g>
			<g>
				<polygon class="st2" points="212.1,177.3 215,175.7 211.1,173.4 208.2,175.1 				"/>
			</g>
			<g>
				<polygon class="st3" points="212.1,178.3 214.9,176.7 215,175.7 212.1,177.3 				"/>
			</g>
			<g>
				<polygon class="st4" points="198,162.7 197.9,163.7 204.7,167.6 207.6,175.8 212.1,178.3 212.1,177.3 208.2,175.1 205.3,166.9 
									"/>
			</g>
		</g>
	</g>
	<g>
		<g class="st1">
			<g>
				<polygon class="st9" points="197.4,181.3 200.2,179.6 197.3,171.4 194.5,173.1 				"/>
			</g>
			<g>
				<polygon class="st2" points="194.5,173.1 197.3,171.4 190,167.2 187.1,168.9 				"/>
			</g>
			<g>
				<polygon class="st2" points="201.3,183.5 204.1,181.9 200.2,179.6 197.4,181.3 				"/>
			</g>
			<g>
				<polygon class="st3" points="201.3,184.5 204.1,182.9 204.1,181.9 201.3,183.5 				"/>
			</g>
			<g>
				<polygon class="st4" points="187.1,168.9 187.1,169.9 193.9,173.8 196.8,182 201.3,184.5 201.3,183.5 197.4,181.3 194.5,173.1 
									"/>
			</g>
		</g>
	</g>
	<g>
		<g class="st1">
			<g>
				<polygon class="st9" points="186.7,187.5 189.5,185.9 186.6,177.7 183.8,179.3 				"/>
			</g>
			<g>
				<polygon class="st2" points="183.8,179.3 186.6,177.7 179.3,173.4 176.4,175.1 				"/>
			</g>
			<g>
				<polygon class="st2" points="190.6,189.8 193.4,188.1 189.5,185.9 186.7,187.5 				"/>
			</g>
			<g>
				<polygon class="st3" points="190.6,190.8 193.4,189.1 193.4,188.1 190.6,189.8 				"/>
			</g>
			<g>
				<polygon class="st4" points="176.4,175.1 176.4,176.1 183.2,180 186.1,188.2 190.6,190.8 190.6,189.8 186.7,187.5 183.8,179.3 
									"/>
			</g>
		</g>
	</g>
	<g>
		<g class="st1">
			<g>
				<polygon class="st9" points="175.9,193.7 178.8,192.1 175.9,183.9 173,185.6 				"/>
			</g>
			<g>
				<polygon class="st2" points="173,185.6 175.9,183.9 168.6,179.7 165.7,181.3 				"/>
			</g>
			<g>
				<polygon class="st2" points="179.8,196 182.7,194.3 178.8,192.1 175.9,193.7 				"/>
			</g>
			<g>
				<polygon class="st3" points="179.8,197 182.7,195.3 182.7,194.3 179.8,196 				"/>
			</g>
			<g>
				<polygon class="st4" points="165.7,181.3 165.7,182.3 172.5,186.2 175.4,194.4 179.8,197 179.8,196 175.9,193.7 173,185.6 				
					"/>
			</g>
		</g>
	</g>
	<g>
		<g class="st1">
			<g>
				<polygon class="st9" points="165.1,199.9 168,198.2 165.1,190 162.2,191.7 				"/>
			</g>
			<g>
				<polygon class="st2" points="162.2,191.7 165.1,190 157.7,185.8 154.9,187.5 				"/>
			</g>
			<g>
				<polygon class="st2" points="169,202.1 171.9,200.5 168,198.2 165.1,199.9 				"/>
			</g>
			<g>
				<polygon class="st3" points="169,203.1 171.9,201.5 171.9,200.5 169,202.1 				"/>
			</g>
			<g>
				<polygon class="st4" points="154.9,187.5 154.9,188.5 161.7,192.4 164.6,200.6 169,203.1 169,202.1 165.1,199.9 162.2,191.7 
									"/>
			</g>
		</g>
	</g>
	<g>
		<g class="st1">
			<g>
				<polygon class="st9" points="154.5,206.1 157.3,204.4 154.4,196.3 151.5,197.9 				"/>
			</g>
			<g>
				<polygon class="st2" points="151.5,197.9 154.4,196.3 147.1,192 144.2,193.7 				"/>
			</g>
			<g>
				<polygon class="st2" points="158.3,208.4 161.2,206.7 157.3,204.4 154.5,206.1 				"/>
			</g>
			<g>
				<polygon class="st3" points="158.3,209.3 161.2,207.7 161.2,206.7 158.3,208.4 				"/>
			</g>
			<g>
				<polygon class="st4" points="144.2,193.7 144.2,194.7 151,198.6 153.9,206.8 158.3,209.3 158.3,208.4 154.5,206.1 151.5,197.9 
									"/>
			</g>
		</g>
	</g>
</g>
<g>
	<g>
		<polygon class="st8" points="110.4,155.5 112.7,156.8 141,173.2 141,137.7 		"/>
		<polygon class="st9" points="141,137.7 141,173.2 141.2,173.3 169.6,156.8 171.9,155.5 		"/>
	</g>
	
		<linearGradient id="SVGID_00000044893084947174344950000012838470023557553081_" gradientUnits="userSpaceOnUse" x1="132.3122" y1="141.5608" x2="148.5774" y2="169.733">
		<stop  offset="0" style="stop-color:#8A59A4"/>
		<stop  offset="0.261" style="stop-color:#744898"/>
		<stop  offset="0.5631" style="stop-color:#60398F"/>
		<stop  offset="0.8202" style="stop-color:#53308A"/>
		<stop  offset="1" style="stop-color:#4E2D88"/>
	</linearGradient>
	<polygon style="fill:url(#SVGID_00000044893084947174344950000012838470023557553081_);" points="169.6,156.8 141.2,173.3 
		112.7,156.8 141,140.3 	"/>
</g>
<g class="st12">
	<path class="st13" d="M214.2,53L142.1,95c-0.4,0.3-1,0.3-1.4,0L68,53c-1-0.5-1-1.9,0-2.5l72.1-41.9c0.4-0.3,1-0.3,1.4,0l72.7,42
		C215.2,51.1,215.2,52.5,214.2,53z"/>
	<path class="st14" d="M213.6,54.4L142.1,96c-0.4,0.3-1,0.3-1.4,0L68.6,54.4c-0.9-0.5-0.9-1.9,0-2.5l71.5-41.6c0.4-0.3,1-0.3,1.4,0
		l72.1,41.6C214.6,52.5,214.6,53.9,213.6,54.4z"/>
	<path class="st15" d="M213,55.8L142.1,97c-0.4,0.3-1,0.3-1.4,0L69.2,55.7c-0.9-0.5-0.9-1.9,0-2.5L140.1,12c0.4-0.3,1-0.3,1.4,0
		L213,53.3C214,53.8,214,55.2,213,55.8z"/>
	<path class="st16" d="M212.4,57.1L142.1,98c-0.4,0.3-1,0.3-1.4,0L69.8,57.1c-0.9-0.5-0.9-1.9,0-2.5l70.3-40.9c0.4-0.3,1-0.3,1.4,0
		l70.9,40.9C213.4,55.2,213.4,56.6,212.4,57.1z"/>
	<path class="st17" d="M211.8,58.5L142.1,99c-0.4,0.3-1,0.3-1.4,0L70.4,58.5c-0.9-0.5-0.9-1.9,0-2.4l69.7-40.5c0.4-0.3,1-0.3,1.4,0
		L211.8,56C212.8,56.6,212.8,57.9,211.8,58.5z"/>
	<path class="st18" d="M211.2,59.8L142.1,100c-0.4,0.3-1,0.3-1.4,0L71,59.8c-0.9-0.5-0.9-1.9,0-2.4l69.1-40.2c0.4-0.3,1-0.3,1.4,0
		l69.7,40.2C212.2,57.9,212.2,59.3,211.2,59.8z"/>
	<path class="st19" d="M210.6,61.2L142.1,101c-0.4,0.3-1,0.3-1.4,0L71.6,61.2c-0.9-0.5-0.9-1.9,0-2.4l68.6-39.8c0.4-0.3,1-0.3,1.4,0
		l69.1,39.9C211.6,59.3,211.6,60.7,210.6,61.2z"/>
	<path class="st20" d="M210,62.6l-68,39.5c-0.4,0.3-1,0.3-1.4,0L72.2,62.5c-0.9-0.5-0.9-1.9,0-2.4l68-39.5c0.4-0.3,1-0.3,1.4,0
		L210,60.1C211,60.7,211,62,210,62.6z"/>
	<path class="st21" d="M209.4,63.9l-67.4,39.1c-0.4,0.3-1,0.3-1.4,0L72.8,63.9c-0.9-0.5-0.9-1.9,0-2.4l67.4-39.1
		c0.4-0.3,1-0.3,1.4,0l67.9,39.2C210.4,62,210.4,63.4,209.4,63.9z"/>
	<path class="st22" d="M208.8,65.3l-66.8,38.8c-0.4,0.3-1,0.3-1.4,0L73.4,65.3c-0.9-0.5-0.9-1.9,0-2.4L140.2,24c0.4-0.3,1-0.3,1.4,0
		l67.3,38.8C209.7,63.4,209.8,64.7,208.8,65.3z"/>
	<path class="st23" d="M208.2,66.6l-66.2,38.5c-0.4,0.2-1,0.3-1.4,0L74,66.6c-0.9-0.5-0.9-1.9,0-2.4l66.2-38.5c0.4-0.2,1-0.3,1.4,0
		l66.6,38.5C209.1,64.8,209.1,66.1,208.2,66.6z"/>
	<path class="st24" d="M207.6,68l-65.6,38.1c-0.4,0.2-1,0.2-1.4,0L74.6,68c-0.9-0.5-0.9-1.9,0-2.4l65.6-38.1c0.4-0.2,1-0.2,1.4,0
		l66,38.1C208.5,66.1,208.5,67.5,207.6,68z"/>
	<path class="st25" d="M207,69.4l-65,37.8c-0.4,0.2-1,0.2-1.4,0L75.2,69.3c-0.9-0.5-0.9-1.9,0-2.4l65-37.8c0.4-0.2,1-0.2,1.4,0
		L207,67C207.9,67.5,207.9,68.8,207,69.4z"/>
	<path class="st26" d="M206.4,70.7L142,108.1c-0.4,0.2-1,0.2-1.4,0L75.8,70.7c-0.9-0.5-0.9-1.8,0-2.4l64.4-37.4c0.4-0.2,1-0.2,1.4,0
		l64.8,37.4C207.3,68.9,207.3,70.2,206.4,70.7z"/>
	<path class="st27" d="M205.8,72.1L142,109.1c-0.4,0.2-0.9,0.2-1.4,0L76.4,72.1c-0.9-0.5-0.9-1.8,0-2.4l63.8-37.1
		c0.4-0.2,0.9-0.2,1.4,0l64.2,37.1C206.7,70.2,206.7,71.6,205.8,72.1z"/>
	<path class="st28" d="M205.2,73.4L142,110.2c-0.4,0.2-0.9,0.2-1.4,0L77,73.4c-0.9-0.5-0.9-1.8,0-2.4l63.2-36.7
		c0.4-0.2,0.9-0.2,1.4,0l63.6,36.7C206.1,71.6,206.1,72.9,205.2,73.4z"/>
	<path class="st29" d="M204.6,74.8L142,111.2c-0.4,0.2-0.9,0.2-1.4,0l-63-36.4c-0.9-0.5-0.9-1.8,0-2.4l62.6-36.4
		c0.4-0.2,0.9-0.2,1.4,0l63,36.4C205.5,73,205.5,74.3,204.6,74.8z"/>
	<path class="st30" d="M204,76.2l-62,36c-0.4,0.2-0.9,0.2-1.4,0l-62.4-36c-0.9-0.5-0.9-1.8,0-2.4l62-36c0.4-0.2,0.9-0.2,1.4,0
		l62.4,36C204.9,74.3,204.9,75.6,204,76.2z"/>
	<path class="st31" d="M203.4,77.5L142,113.2c-0.4,0.2-0.9,0.2-1.4,0L78.8,77.5c-0.9-0.5-0.9-1.8,0-2.3l61.4-35.7
		c0.4-0.2,0.9-0.2,1.4,0l61.8,35.7C204.3,75.7,204.3,77,203.4,77.5z"/>
	<path class="st32" d="M202.8,78.9L142,114.2c-0.4,0.2-0.9,0.2-1.4,0L79.4,78.9c-0.9-0.5-0.9-1.8,0-2.3l60.8-35.3
		c0.4-0.2,0.9-0.2,1.4,0l61.2,35.4C203.7,77.1,203.7,78.4,202.8,78.9z"/>
	<path class="st33" d="M202.2,80.2l-60.2,35c-0.4,0.2-0.9,0.2-1.3,0L80,80.2c-0.9-0.5-0.9-1.8,0-2.3l60.2-35c0.4-0.2,0.9-0.2,1.3,0
		l60.6,35C203.1,78.4,203.1,79.7,202.2,80.2z"/>
	<path class="st34" d="M201.6,81.6L142,116.2c-0.4,0.2-0.9,0.2-1.3,0l-60-34.7c-0.9-0.5-0.9-1.8,0-2.3l59.6-34.6
		c0.4-0.2,0.9-0.2,1.3,0l60,34.7C202.5,79.8,202.5,81.1,201.6,81.6z"/>
	<path class="st35" d="M201,83l-59,34.3c-0.4,0.2-0.9,0.2-1.3,0L81.2,82.9c-0.9-0.5-0.9-1.8,0-2.3l59-34.3c0.4-0.2,0.9-0.2,1.3,0
		L201,80.7C201.9,81.2,201.9,82.5,201,83z"/>
	<path class="st36" d="M200.4,84.3L142,118.3c-0.4,0.2-0.9,0.2-1.3,0l-58.8-34c-0.9-0.5-0.9-1.8,0-2.3l58.4-33.9
		c0.4-0.2,0.9-0.2,1.3,0l58.8,34C201.3,82.5,201.3,83.8,200.4,84.3z"/>
	<path class="st37" d="M199.8,85.7L142,119.3c-0.4,0.2-0.9,0.2-1.3,0L82.4,85.7c-0.9-0.5-0.9-1.8,0-2.3l57.8-33.6
		c0.4-0.2,0.9-0.2,1.3,0l58.2,33.6C200.7,83.9,200.7,85.2,199.8,85.7z"/>
	<path class="st38" d="M199.2,87L142,120.3c-0.4,0.2-0.9,0.2-1.3,0L83,87c-0.9-0.5-0.9-1.8,0-2.3l57.2-33.2c0.4-0.2,0.9-0.2,1.3,0
		l57.6,33.3C200.1,85.3,200.1,86.5,199.2,87z"/>
	<path class="st39" d="M198.6,88.4L142,121.3c-0.4,0.2-0.9,0.2-1.3,0l-57-32.9c-0.9-0.5-0.9-1.8,0-2.3l56.6-32.9
		c0.4-0.2,0.9-0.2,1.3,0l57,32.9C199.5,86.6,199.5,87.9,198.6,88.4z"/>
	<path class="st40" d="M198,89.8l-56,32.5c-0.4,0.2-0.9,0.2-1.3,0L84.2,89.7c-0.9-0.5-0.9-1.8,0-2.3l56-32.5c0.4-0.2,0.9-0.2,1.3,0
		L198,87.5C198.9,88,198.9,89.3,198,89.8z"/>
	<path class="st41" d="M197.4,91.1L142,123.3c-0.4,0.2-0.9,0.2-1.3,0L84.9,91.1c-0.9-0.5-0.9-1.8,0-2.3l55.4-32.2
		c0.4-0.2,0.9-0.2,1.3,0l55.8,32.2C198.3,89.4,198.3,90.6,197.4,91.1z"/>
	<path class="st42" d="M196.8,92.5L142,124.3c-0.4,0.2-0.9,0.2-1.3,0L85.5,92.5c-0.9-0.5-0.9-1.8,0-2.3l54.8-31.9
		c0.4-0.2,0.9-0.2,1.3,0l55.2,31.9C197.7,90.7,197.7,92,196.8,92.5z"/>
	<path class="st43" d="M196.2,93.9L142,125.4c-0.4,0.2-0.9,0.2-1.3,0L86.1,93.8c-0.9-0.5-0.9-1.8,0-2.3l54.2-31.5
		c0.4-0.2,0.9-0.2,1.3,0l54.6,31.5C197.1,92.1,197.1,93.3,196.2,93.9z"/>
	<path class="st44" d="M195.6,95.2L142,126.4c-0.4,0.2-0.9,0.2-1.3,0l-54-31.2c-0.9-0.5-0.9-1.7,0-2.3l53.6-31.2
		c0.4-0.2,0.9-0.2,1.3,0l54,31.2C196.5,93.5,196.5,94.7,195.6,95.2z"/>
	<path class="st45" d="M195,96.6l-53,30.8c-0.4,0.2-0.9,0.2-1.3,0L87.3,96.5c-0.9-0.5-0.9-1.7,0-2.2l53-30.8c0.4-0.2,0.9-0.2,1.3,0
		L195,94.3C195.8,94.8,195.8,96.1,195,96.6z"/>
	<path class="st46" d="M194.4,97.9L142,128.4c-0.4,0.2-0.9,0.2-1.3,0L87.9,97.9c-0.9-0.5-0.9-1.7,0-2.2l52.4-30.5
		c0.4-0.2,0.9-0.2,1.3,0l52.8,30.5C195.2,96.2,195.2,97.4,194.4,97.9z"/>
	<path class="st47" d="M193.8,99.3L142,129.4c-0.4,0.2-0.9,0.2-1.3,0L88.5,99.3c-0.9-0.5-0.9-1.7,0-2.2l51.8-30.1
		c0.4-0.2,0.9-0.2,1.3,0l52.2,30.1C194.6,97.6,194.6,98.8,193.8,99.3z"/>
	<path class="st48" d="M193.2,100.7L142,130.4c-0.4,0.2-0.9,0.2-1.3,0l-51.6-29.8c-0.9-0.5-0.9-1.7,0-2.2l51.2-29.8
		c0.4-0.2,0.9-0.2,1.3,0l51.6,29.8C194,98.9,194,100.2,193.2,100.7z"/>
	<path class="st49" d="M192.6,102l-50.6,29.4c-0.4,0.2-0.9,0.2-1.3,0l-51-29.4c-0.9-0.5-0.9-1.7,0-2.2l50.6-29.4
		c0.4-0.2,0.9-0.2,1.3,0l51,29.4C193.4,100.3,193.4,101.5,192.6,102z"/>
	<path class="st50" d="M192,103.4l-50,29.1c-0.4,0.2-0.9,0.2-1.3,0l-50.4-29.1c-0.8-0.5-0.9-1.7,0-2.2l50-29.1
		c0.4-0.2,0.9-0.2,1.3,0l50.4,29.1C192.8,101.7,192.8,102.9,192,103.4z"/>
	<path class="st51" d="M191.4,104.7l-49.4,28.7c-0.4,0.2-0.9,0.2-1.3,0l-49.8-28.8c-0.8-0.5-0.8-1.7,0-2.2l49.4-28.7
		c0.4-0.2,0.9-0.2,1.3,0l49.8,28.8C192.2,103,192.2,104.2,191.4,104.7z"/>
	<path class="st52" d="M190.8,106.1l-48.8,28.4c-0.4,0.2-0.9,0.2-1.3,0l-49.2-28.4c-0.8-0.5-0.8-1.7,0-2.2l48.8-28.4
		c0.4-0.2,0.9-0.2,1.3,0l49.2,28.4C191.6,104.4,191.6,105.6,190.8,106.1z"/>
	<path class="st53" d="M190.2,107.5l-48.2,28c-0.4,0.2-0.9,0.2-1.3,0l-48.6-28.1c-0.8-0.5-0.8-1.7,0-2.2l48.2-28
		c0.4-0.2,0.9-0.2,1.3,0l48.6,28.1C191,105.8,191,107,190.2,107.5z"/>
	<path class="st54" d="M189.6,108.8l-47.6,27.7c-0.4,0.2-0.9,0.2-1.3,0l-48-27.7c-0.8-0.5-0.8-1.7,0-2.2l47.6-27.7
		c0.4-0.2,0.9-0.2,1.3,0l48,27.7C190.4,107.1,190.4,108.3,189.6,108.8z"/>
	<path class="st55" d="M189,110.2l-47,27.3c-0.4,0.2-0.9,0.2-1.3,0l-47.4-27.4c-0.8-0.5-0.8-1.7,0-2.2l47-27.3
		c0.4-0.2,0.9-0.2,1.3,0L189,108C189.8,108.5,189.8,109.7,189,110.2z"/>
	<path class="st56" d="M188.4,111.5l-46.5,27c-0.4,0.2-0.9,0.2-1.3,0l-46.8-27c-0.8-0.5-0.8-1.7,0-2.2l46.4-27
		c0.4-0.2,0.9-0.2,1.3,0l46.8,27C189.2,109.9,189.2,111.1,188.4,111.5z"/>
	<path class="st57" d="M187.8,112.9l-45.9,26.6c-0.4,0.2-0.9,0.2-1.3,0l-46.2-26.7c-0.8-0.5-0.8-1.7,0-2.2l45.8-26.6
		c0.4-0.2,0.9-0.2,1.3,0l46.2,26.7C188.6,111.2,188.6,112.4,187.8,112.9z"/>
	<path class="st58" d="M187.2,114.3l-45.3,26.3c-0.4,0.2-0.9,0.2-1.2,0l-45.6-26.3c-0.8-0.5-0.8-1.7,0-2.2l45.3-26.3
		c0.4-0.2,0.9-0.2,1.2,0l45.6,26.3C188,112.6,188,113.8,187.2,114.3z"/>
	<path class="st59" d="M186.6,115.6l-44.7,26c-0.4,0.2-0.9,0.2-1.2,0l-45-26c-0.8-0.5-0.8-1.7,0-2.1l44.7-26c0.4-0.2,0.9-0.2,1.2,0
		l45,26C187.4,113.9,187.4,115.1,186.6,115.6z"/>
	<path class="st60" d="M186,117l-44.1,25.6c-0.4,0.2-0.9,0.2-1.2,0L96.3,117c-0.8-0.5-0.8-1.7,0-2.1l44.1-25.6
		c0.4-0.2,0.9-0.2,1.2,0l44.4,25.6C186.8,115.3,186.8,116.5,186,117z"/>
	<path class="st61" d="M185.4,118.3l-43.5,25.3c-0.4,0.2-0.9,0.2-1.2,0l-43.8-25.3c-0.8-0.5-0.8-1.7,0-2.1l43.5-25.3
		c0.4-0.2,0.9-0.2,1.2,0l43.8,25.3C186.2,116.7,186.2,117.9,185.4,118.3z"/>
	<path class="st62" d="M184.8,119.7l-42.9,24.9c-0.4,0.2-0.8,0.2-1.2,0l-43.2-24.9c-0.8-0.5-0.8-1.6,0-2.1l42.9-24.9
		c0.4-0.2,0.8-0.2,1.2,0l43.2,24.9C185.6,118,185.6,119.2,184.8,119.7z"/>
	<path class="st63" d="M184.2,121.1l-42.3,24.6c-0.4,0.2-0.8,0.2-1.2,0L98.1,121c-0.8-0.5-0.8-1.6,0-2.1l42.3-24.6
		c0.4-0.2,0.8-0.2,1.2,0l42.6,24.6C185,119.4,185,120.6,184.2,121.1z"/>
	<path class="st64" d="M183.6,122.4l-41.7,24.2c-0.4,0.2-0.8,0.2-1.2,0l-42-24.2c-0.8-0.5-0.8-1.6,0-2.1l41.7-24.2
		c0.4-0.2,0.8-0.2,1.2,0l42,24.2C184.4,120.8,184.4,121.9,183.6,122.4z"/>
	<path class="st65" d="M183,123.8l-41.1,23.9c-0.4,0.2-0.8,0.2-1.2,0l-41.4-23.9c-0.8-0.5-0.8-1.6,0-2.1l41.1-23.9
		c0.4-0.2,0.8-0.2,1.2,0l41.4,23.9C183.8,122.1,183.8,123.3,183,123.8z"/>
	<path class="st66" d="M182.4,125.1l-40.5,23.5c-0.4,0.2-0.8,0.2-1.2,0l-40.8-23.5c-0.8-0.5-0.8-1.6,0-2.1l40.5-23.5
		c0.4-0.2,0.8-0.2,1.2,0l40.8,23.5C183.2,123.5,183.2,124.7,182.4,125.1z"/>
	<path class="st67" d="M181.8,126.5l-39.9,23.2c-0.4,0.2-0.8,0.2-1.2,0l-40.2-23.2c-0.8-0.5-0.8-1.6,0-2.1l39.9-23.2
		c0.4-0.2,0.8-0.2,1.2,0l40.2,23.2C182.6,124.9,182.6,126,181.8,126.5z"/>
	<path class="st68" d="M181.2,127.9l-39.3,22.8c-0.4,0.2-0.8,0.2-1.2,0l-39.6-22.8c-0.8-0.5-0.8-1.6,0-2.1l39.3-22.8
		c0.4-0.2,0.8-0.2,1.2,0l39.6,22.8C181.9,126.2,181.9,127.4,181.2,127.9z"/>
	<path class="st69" d="M180.5,129.2l-38.7,22.5c-0.4,0.2-0.8,0.2-1.2,0l-39-22.5c-0.8-0.5-0.8-1.6,0-2.1l38.7-22.5
		c0.4-0.2,0.8-0.2,1.2,0l39,22.5C181.3,127.6,181.3,128.8,180.5,129.2z"/>
	<path class="st70" d="M179.9,130.6l-38.1,22.1c-0.4,0.2-0.8,0.2-1.2,0l-38.4-22.2c-0.8-0.5-0.8-1.6,0-2.1l38.1-22.1
		c0.4-0.2,0.8-0.2,1.2,0l38.4,22.2C180.7,129,180.7,130.1,179.9,130.6z"/>
	<path class="st71" d="M179.3,131.9l-37.5,21.8c-0.4,0.2-0.8,0.2-1.2,0l-37.8-21.8c-0.8-0.5-0.8-1.6,0-2.1l37.5-21.8
		c0.4-0.2,0.8-0.2,1.2,0l37.8,21.8C180.1,130.3,180.1,131.5,179.3,131.9z"/>
	<path class="st72" d="M178.7,133.3l-36.9,21.4c-0.4,0.2-0.8,0.2-1.2,0l-37.2-21.5c-0.8-0.5-0.8-1.6,0-2.1l36.9-21.4
		c0.4-0.2,0.8-0.2,1.2,0l37.2,21.5C179.5,131.7,179.5,132.8,178.7,133.3z"/>
	<path class="st73" d="M178.1,134.7l-36.3,21.1c-0.4,0.2-0.8,0.2-1.2,0l-36.6-21.1c-0.8-0.5-0.8-1.6,0-2l36.3-21.1
		c0.4-0.2,0.8-0.2,1.2,0l36.6,21.1C178.9,133.1,178.9,134.2,178.1,134.7z"/>
	<path class="st74" d="M177.5,136l-35.7,20.7c-0.4,0.2-0.8,0.2-1.2,0l-36-20.8c-0.8-0.5-0.8-1.6,0-2l35.7-20.7
		c0.4-0.2,0.8-0.2,1.2,0l36,20.8C178.3,134.4,178.3,135.6,177.5,136z"/>
	<path class="st75" d="M176.9,137.4l-35.1,20.4c-0.4,0.2-0.8,0.2-1.2,0l-35.4-20.4c-0.8-0.5-0.8-1.6,0-2l35.1-20.4
		c0.4-0.2,0.8-0.2,1.2,0l35.4,20.4C177.7,135.8,177.7,136.9,176.9,137.4z"/>
	<path class="st76" d="M176.3,138.7l-34.5,20.1c-0.4,0.2-0.8,0.2-1.2,0l-34.8-20.1c-0.8-0.4-0.8-1.6,0-2l34.5-20.1
		c0.4-0.2,0.8-0.2,1.2,0l34.8,20.1C177.1,137.2,177.1,138.3,176.3,138.7z"/>
	<path class="st77" d="M175.7,140.1l-33.9,19.7c-0.4,0.2-0.8,0.2-1.2,0l-34.2-19.7c-0.8-0.4-0.8-1.6,0-2l33.9-19.7
		c0.4-0.2,0.8-0.2,1.2,0l34.2,19.7C176.5,138.5,176.5,139.7,175.7,140.1z"/>
	<path class="st78" d="M175.1,141.5l-33.3,19.4c-0.4,0.2-0.8,0.2-1.2,0l-33.6-19.4c-0.8-0.4-0.8-1.6,0-2l33.3-19.4
		c0.4-0.2,0.8-0.2,1.2,0l33.6,19.4C175.9,139.9,175.9,141,175.1,141.5z"/>
	<path class="st79" d="M174.5,142.8l-32.7,19c-0.4,0.2-0.8,0.2-1.2,0l-33-19c-0.8-0.4-0.8-1.6,0-2l32.7-19c0.4-0.2,0.8-0.2,1.2,0
		l33,19C175.3,141.3,175.3,142.4,174.5,142.8z"/>
	<path class="st80" d="M173.9,144.2l-32.1,18.7c-0.4,0.2-0.8,0.2-1.2,0l-32.3-18.7c-0.8-0.4-0.8-1.5,0-2l32.1-18.7
		c0.4-0.2,0.8-0.2,1.2,0l32.4,18.7C174.7,142.6,174.7,143.7,173.9,144.2z"/>
	<path class="st81" d="M173.3,145.5l-31.5,18.3c-0.4,0.2-0.8,0.2-1.2,0l-31.7-18.3c-0.8-0.4-0.8-1.5,0-2l31.5-18.3
		c0.4-0.2,0.8-0.2,1.2,0l31.7,18.3C174.1,144,174.1,145.1,173.3,145.5z"/>
	<path class="st82" d="M172.7,146.9l-30.9,18c-0.4,0.2-0.8,0.2-1.1,0l-31.1-18c-0.8-0.4-0.8-1.5,0-2l30.9-18c0.4-0.2,0.8-0.2,1.1,0
		l31.1,18C173.5,145.4,173.5,146.5,172.7,146.9z"/>
	<path class="st83" d="M172.1,148.3l-30.3,17.6c-0.4,0.2-0.8,0.2-1.1,0l-30.5-17.6c-0.8-0.4-0.8-1.5,0-2l30.3-17.6
		c0.4-0.2,0.8-0.2,1.1,0l30.5,17.6C172.9,146.7,172.9,147.8,172.1,148.3z"/>
	<path class="st84" d="M171.5,149.6l-29.7,17.3c-0.4,0.2-0.8,0.2-1.1,0l-29.9-17.3c-0.8-0.4-0.8-1.5,0-2l29.7-17.3
		c0.4-0.2,0.8-0.2,1.1,0l29.9,17.3C172.3,148.1,172.3,149.2,171.5,149.6z"/>
	<path class="st85" d="M170.9,151l-29.1,16.9c-0.4,0.2-0.8,0.2-1.1,0L111.3,151c-0.8-0.4-0.8-1.5,0-2l29.1-16.9
		c0.4-0.2,0.8-0.2,1.1,0l29.3,16.9C171.7,149.5,171.7,150.5,170.9,151z"/>
	<path class="st86" d="M170.3,152.3l-28.5,16.6c-0.3,0.2-0.8,0.2-1.1,0l-28.7-16.6c-0.8-0.4-0.8-1.5,0-2l28.5-16.6
		c0.3-0.2,0.8-0.2,1.1,0l28.7,16.6C171.1,150.8,171.1,151.9,170.3,152.3z"/>
	<path class="st87" d="M169.7,153.7l-27.9,16.2c-0.3,0.2-0.8,0.2-1.1,0l-28.1-16.2c-0.7-0.4-0.7-1.5,0-1.9l27.9-16.2
		c0.3-0.2,0.8-0.2,1.1,0l28.1,16.2C170.5,152.2,170.5,153.3,169.7,153.7z"/>
	<path class="st88" d="M169.1,155.1l-27.3,15.9c-0.3,0.2-0.8,0.2-1.1,0l-27.5-15.9c-0.7-0.4-0.7-1.5,0-1.9l27.3-15.9
		c0.3-0.2,0.8-0.2,1.1,0l27.5,15.9C169.9,153.6,169.9,154.6,169.1,155.1z"/>
	<path class="st89" d="M168.5,156.4L141.8,172c-0.3,0.2-0.8,0.2-1.1,0l-26.9-15.6c-0.7-0.4-0.7-1.5,0-1.9l26.7-15.5
		c0.3-0.2,0.8-0.2,1.1,0l26.9,15.6C169.3,154.9,169.3,156,168.5,156.4z"/>
	<path class="st7" d="M167.9,157.8L141.8,173c-0.3,0.2-0.8,0.2-1.1,0l-26.3-15.2c-0.7-0.4-0.7-1.5,0-1.9l26.1-15.2
		c0.3-0.2,0.8-0.2,1.1,0l26.3,15.2C168.7,156.3,168.7,157.4,167.9,157.8z"/>
</g>
<linearGradient id="SVGID_00000045581709541051576060000018348735117219848837_" gradientUnits="userSpaceOnUse" x1="132.3122" y1="141.5608" x2="148.5774" y2="169.733">
	<stop  offset="0" style="stop-color:#8A59A4"/>
	<stop  offset="0.261" style="stop-color:#744898"/>
	<stop  offset="0.5631" style="stop-color:#60398F"/>
	<stop  offset="0.8202" style="stop-color:#53308A"/>
	<stop  offset="1" style="stop-color:#4E2D88"/>
</linearGradient>
<polygon style="fill:url(#SVGID_00000045581709541051576060000018348735117219848837_);" points="169.6,156.8 141.2,173.3 
	112.7,156.8 141,140.3 "/>
<g>
	<g>
		<path class="st91" d="M141.5,227.1L39.6,168.3l101.2-58.8l101.9,58.8L141.5,227.1z M42.3,168.2l99.2,57.3l98.5-57.3L140.8,111
			L42.3,168.2z"/>
	</g>
</g>
<g>
	<g>
		<g>
			<path class="st91" d="M55.4,176.6l-7.5,4.3c-0.1,0.1-0.2,0.1-0.4,0l-7.7-4.5L14.7,191l-2.3,1.3c-0.1,0-0.1,0-0.2,0
				c-0.1,0-0.2-0.1-0.3-0.2c-0.1-0.2,0-0.4,0.1-0.5l2-1.1l25.6-14.8c0.1-0.1,0.2-0.1,0.4,0l7.7,4.5l7-4L55.4,176.6z"/>
		</g>
		<g>
			<path class="st91" d="M116.1,211l-1.2,0.7l-6.9,4c-0.1,0.1-0.2,0.1-0.4,0l-7.7-4.5l-9.8,5.6l-0.7,0.4l-14.8,8.6l-2.1,1.2
				c-0.1,0-0.1,0-0.2,0c-0.1,0-0.2-0.1-0.3-0.2c-0.1-0.2,0-0.4,0.1-0.5l1.9-1.1l14.7-8.5l0.7-0.4l10.3-5.9c0.1-0.1,0.2-0.1,0.4,0
				l7.7,4.5l6.3-3.6l1.2-0.7L116.1,211z"/>
		</g>
		<g>
			<path class="st91" d="M92.7,197.4l-1.2,0.7l-6.7,3.8c-0.1,0.1-0.2,0.1-0.4,0l-7.7-4.5l-9.9,5.7l-0.7,0.4l-14.2,8.2l-2.5,1.5
				c-0.1,0-0.1,0-0.2,0c-0.1,0-0.2-0.1-0.3-0.2c-0.1-0.2,0-0.4,0.1-0.5l2.3-1.3l14.1-8.1l0.7-0.4l10.5-6c0.1-0.1,0.2-0.1,0.4,0
				l7.7,4.5l6.1-3.5L92,197L92.7,197.4z"/>
		</g>
		<g>
			<path class="st91" d="M74,186.6l-1.2,0.7l-25.2,14.5l-1.9,1.1c-0.1,0-0.1,0-0.2,0c-0.1,0-0.2-0.1-0.3-0.2c-0.1-0.2,0-0.4,0.1-0.5
				l1.6-0.9l25.2-14.5l1.2-0.7L74,186.6z"/>
		</g>
		<g>
			<path class="st91" d="M124.7,216l-1.2,0.7L98.7,231l-1.9,1.1c-0.1,0-0.1,0-0.2,0c-0.1,0-0.2-0.1-0.3-0.2c-0.1-0.2,0-0.4,0.1-0.5
				l1.6-0.9l24.9-14.4l1.2-0.7L124.7,216z"/>
		</g>
		<g>
			<path class="st91" d="M100.7,202.1l-1.2,0.7l-16.8,9.7l-0.7,0.4l-7.6,4.4c0,0,0,0,0,0l-2,1.1c-0.1,0-0.1,0-0.2,0
				c-0.1,0-0.2-0.1-0.3-0.2c-0.1-0.2,0-0.4,0.1-0.5l1.6-1l7.6-4.4L82,212l16.8-9.7l1.2-0.7L100.7,202.1z"/>
		</g>
		<g>
			<polygon class="st91" points="100.3,222.6 90.9,228.1 90.9,228.1 88.3,229.6 87.9,229 90.3,227.6 98.9,222.6 89.5,217.2 
				88.8,216.8 82,212.9 81.3,212.5 66.1,203.7 65.4,203.3 59.2,199.7 76.6,189.5 77.7,188.8 78.4,189.2 77.3,189.9 60.6,199.7 
				66.1,202.8 66.8,203.3 82,212 82.7,212.5 89.5,216.4 90.2,216.8 			"/>
		</g>
		<g>
			<path class="st91" d="M14.4,190.8c1.1,0.6,1.1,1.6,0,2.2c-1.1,0.6-2.8,0.6-3.8,0c-1.1-0.6-1.1-1.6,0-2.2
				C11.6,190.1,13.3,190.1,14.4,190.8z"/>
		</g>
		<g>
			<g>
				<path class="st91" d="M61.1,189.7c0,0.1-0.1,0.2-0.2,0.3l-21.6,12.5l-2,1.1c-0.1,0-0.1,0-0.2,0c-0.1,0-0.2-0.1-0.3-0.2
					c-0.1-0.2,0-0.4,0.1-0.5l1.6-0.9l21.4-12.4l-7.9-4.6c-0.1-0.1-0.2-0.2-0.2-0.3c0-0.1,0.1-0.2,0.2-0.3l7.9-4.5l1.2-0.7l0.7,0.4
					l-1.2,0.7l-7.7,4.4l7.9,4.6C61.1,189.4,61.1,189.6,61.1,189.7z"/>
			</g>
			<g>
				<ellipse class="st91" cx="37.1" cy="203.3" rx="2.7" ry="1.6"/>
			</g>
		</g>
		<g>
			<g>
				<path class="st91" d="M129.4,228.6c0,0.1-0.1,0.2-0.2,0.3l-21,12.1l-2.5,1.5c-0.1,0-0.1,0-0.2,0c-0.1,0-0.2-0.1-0.3-0.2
					c-0.1-0.2,0-0.4,0.1-0.5l2.2-1.3l20.8-12l-7.9-4.6c-0.1-0.1-0.2-0.2-0.2-0.3s0.1-0.2,0.2-0.3l7.4-4.3l1.2-0.7l0.7,0.4l-1.2,0.7
					l-7.3,4.2l7.9,4.6C129.3,228.4,129.4,228.5,129.4,228.6z"/>
			</g>
			<g>
				<ellipse class="st91" cx="105.9" cy="241.9" rx="2.7" ry="1.6"/>
			</g>
		</g>
		<g>
			<path class="st91" d="M47.2,201.6c1.1,0.6,1.1,1.6,0,2.2c-1.1,0.6-2.8,0.6-3.8,0c-1.1-0.6-1.1-1.6,0-2.2
				C44.4,201,46.1,201,47.2,201.6z"/>
		</g>
		<g>
			<ellipse class="st91" cx="49.3" cy="212.5" rx="2.7" ry="1.6"/>
		</g>
		<g>
			<path class="st91" d="M74,217c1.1,0.6,1.1,1.6,0,2.2c-1.1,0.6-2.8,0.6-3.8,0c-1.1-0.6-1.1-1.6,0-2.2C71.3,216.4,73,216.4,74,217z
				"/>
		</g>
		<g>
			<path class="st91" d="M74.1,225.3c1.1,0.6,1.1,1.6,0,2.2c-1.1,0.6-2.8,0.6-3.8,0c-1.1-0.6-1.1-1.6,0-2.2
				C71.4,224.7,73.1,224.7,74.1,225.3z"/>
		</g>
		<g>
			<ellipse class="st91" cx="88.5" cy="228.8" rx="2.7" ry="1.6"/>
		</g>
		<g>
			<path class="st91" d="M98.4,230.8c1.1,0.6,1.1,1.6,0,2.2c-1.1,0.6-2.8,0.6-3.8,0c-1.1-0.6-1.1-1.6,0-2.2
				C95.6,230.2,97.3,230.2,98.4,230.8z"/>
		</g>
	</g>
	<g>
		<g>
			<path class="st91" d="M248.3,201.2c-0.1,0.1-0.2,0.2-0.3,0.2c-0.1,0-0.1,0-0.2,0l-2.2-1.3l-21.4-12.4c-0.1-0.1-0.2-0.2-0.2-0.3
				c0-0.1,0.1-0.2,0.2-0.3l7.9-4.6l-7.1-4.1l-1.2-0.7l0.7-0.4l1.2,0.7l7.3,4.2c0.1,0.1,0.2,0.2,0.2,0.3c0,0.1-0.1,0.2-0.2,0.3
				l-7.9,4.6l21.3,12.3l1.7,1C248.3,200.8,248.4,201,248.3,201.2z"/>
		</g>
		<g>
			<path class="st91" d="M174.4,244c-0.1,0.1-0.2,0.2-0.3,0.2c-0.1,0-0.1,0-0.2,0l-2.1-1.2l-21.5-12.4c-0.1-0.1-0.2-0.2-0.2-0.3
				c0-0.1,0.1-0.2,0.2-0.3l7.9-4.6l-7-4l-1.2-0.7l0.7-0.4l1.2,0.7l7.2,4.1c0.1,0.1,0.2,0.2,0.2,0.3c0,0.1-0.1,0.2-0.2,0.3l-7.9,4.6
				l21.4,12.4l1.6,0.9C174.4,243.6,174.5,243.8,174.4,244z"/>
		</g>
		<g>
			<path class="st91" d="M210.8,221c-0.1,0.1-0.2,0.2-0.3,0.2c-0.1,0-0.1,0-0.2,0l-2-1.1l-16.2-9.4c-0.1-0.1-0.2-0.2-0.2-0.3
				c0-0.1,0.1-0.2,0.2-0.3l6-3.5l-5.4-3.2l-0.7-0.4l-4.5-2.7l-1.2-0.7l0.7-0.4l1.2,0.7l4.5,2.7l0.7,0.4l5.6,3.3
				c0.1,0.1,0.2,0.2,0.2,0.3c0,0.1-0.1,0.2-0.2,0.3l-6,3.5l16.3,9.4c0,0,0,0,0,0l1.4,0.8C210.9,220.6,210.9,220.8,210.8,221z"/>
		</g>
		<g>
			<path class="st91" d="M240.3,220.1c-0.1,0.1-0.2,0.2-0.3,0.2c-0.1,0-0.1,0-0.2,0l-2.1-1.2l-29.6-17.1c-0.1-0.1-0.2-0.2-0.2-0.3
				c0-0.1,0.1-0.2,0.2-0.3L219,195l-11.3-6.5l-1.2-0.7l0.7-0.4l1.2,0.7l11.5,6.6c0.1,0.1,0.2,0.2,0.2,0.3c0,0.1-0.1,0.2-0.2,0.3
				l-10.9,6.3l29.5,17.1l1.6,0.9C240.4,219.7,240.4,219.9,240.3,220.1z"/>
		</g>
		<g>
			<path class="st91" d="M208.6,229c-0.1,0.1-0.2,0.2-0.3,0.2c-0.1,0-0.1,0-0.2,0l-1.8-1l-21-12.1l-11.6,6.7c-0.1,0.1-0.2,0.1-0.4,0
				l-12.3-7.1l-1.2-0.7l0.7-0.4l1.2,0.7l11.7,6.8l11.6-6.7c0.1-0.1,0.2-0.1,0.4,0l21.5,12.4l1.4,0.8
				C208.6,228.6,208.7,228.8,208.6,229z"/>
		</g>
		<g>
			<path class="st91" d="M240,200.6c-0.1,0.1-0.2,0.2-0.3,0.2c-0.1,0-0.1,0-0.2,0l-2-1.2L213,185.4l-1.2-0.7l0.7-0.4l1.2,0.7
				l24.5,14.2l1.6,0.9C240,200.2,240.1,200.4,240,200.6z"/>
		</g>
		<g>
			<path class="st91" d="M258.9,189.5c-0.1,0.1-0.2,0.2-0.3,0.2c-0.1,0-0.1,0-0.2,0l-2.2-1.3l-24.2-14l-1.2-0.7l0.7-0.4l1.2,0.7
				l24.2,14l1.9,1.1C259,189.1,259,189.3,258.9,189.5z"/>
		</g>
		<g>
			<path class="st91" d="M218,213.1c-0.1,0.1-0.2,0.2-0.3,0.2c-0.1,0-0.1,0-0.2,0l-2.2-1.3l-18.7-10.8l-0.7-0.4l-4.6-2.7l-1.2-0.7
				l0.7-0.4l1.2,0.7l4.6,2.7l0.7,0.4l18.7,10.8l1.9,1.1C218.1,212.7,218.1,212.9,218,213.1z"/>
		</g>
		<g>
			<path class="st91" d="M182.5,233.8c-0.1,0.1-0.2,0.2-0.3,0.2c-0.1,0-0.1,0-0.2,0l-2.1-1.2c0,0,0,0,0,0l-24.3-14l-1.2-0.7l0.7-0.4
				l1.2,0.7l24.3,14l1.6,1C182.6,233.4,182.6,233.6,182.5,233.8z"/>
		</g>
		<g>
			<polygon class="st91" points="208.7,194.1 197.3,200.7 196.6,201.1 193.4,202.9 192.7,203.3 178.4,211.6 176.3,212.8 
				175.9,212.2 177.8,211.1 192,202.9 192.7,202.5 195.9,200.7 196.6,200.3 207.3,194.1 202.7,191.4 201.5,190.7 202.2,190.3 
				203.4,191 			"/>
		</g>
		<g>
			<ellipse class="st91" cx="173.8" cy="244" rx="2.7" ry="1.6"/>
		</g>
		<g>
			<path class="st91" d="M184.1,232.6c1.1,0.6,1.1,1.6,0,2.2c-1.1,0.6-2.8,0.6-3.8,0c-1.1-0.6-1.1-1.6,0-2.2
				C181.3,232,183,232,184.1,232.6z"/>
		</g>
		<g>
			<ellipse class="st91" cx="175.9" cy="212.2" rx="2.7" ry="1.6"/>
		</g>
		<g>
			<ellipse class="st91" cx="208.5" cy="229" rx="2.7" ry="1.6"/>
		</g>
		<g>
			<path class="st91" d="M211.9,220.1c1.1,0.6,1.1,1.6,0,2.2c-1.1,0.6-2.8,0.6-3.8,0c-1.1-0.6-1.1-1.6,0-2.2
				C209.1,219.5,210.9,219.5,211.9,220.1z"/>
		</g>
		<g>
			<path class="st91" d="M219.6,211.6c1.1,0.6,1.1,1.6,0,2.2c-1.1,0.6-2.8,0.6-3.8,0c-1.1-0.6-1.1-1.6,0-2.2
				C216.9,211,218.6,211,219.6,211.6z"/>
		</g>
		<g>
			<ellipse class="st91" cx="239.7" cy="220" rx="2.7" ry="1.6"/>
		</g>
		<g>
			<path class="st91" d="M241.5,199.4c1.1,0.6,1.1,1.6,0,2.2c-1.1,0.6-2.8,0.6-3.8,0c-1.1-0.6-1.1-1.6,0-2.2
				C238.8,198.8,240.5,198.8,241.5,199.4z"/>
		</g>
		<g>
			<ellipse class="st91" cx="247.7" cy="201.1" rx="2.7" ry="1.6"/>
		</g>
		<g>
			<path class="st91" d="M260.4,188.1c1.1,0.6,1.1,1.6,0,2.2c-1.1,0.6-2.8,0.6-3.8,0c-1.1-0.6-1.1-1.6,0-2.2
				C257.6,187.4,259.4,187.4,260.4,188.1z"/>
		</g>
	</g>
	<g>
		<g>
			<path class="st91" d="M115.1,102.2c0,0.1-0.1,0.2-0.2,0.3l-5.7,3.4l-0.7,0.4l-7.1,4.3l-0.7,0.4l-6.7,4l18.7,10.8l1.2,0.7
				l-0.7,0.4l-1.2-0.7l-18.9-10.9c-0.1-0.1-0.2-0.2-0.2-0.3c0-0.1,0.1-0.2,0.2-0.3l6.8-4.1l0.7-0.4l7.1-4.3l0.7-0.4l5.5-3.3
				l-10.5-6.1l-1.8-1c-0.2-0.1-0.2-0.3-0.1-0.5c0.1-0.2,0.3-0.2,0.5-0.1l2.1,1.2l10.7,6.2C115,102,115.1,102.1,115.1,102.2z"/>
		</g>
		<g>
			<path class="st91" d="M51.2,162.3l-18.4-10.6l7.9-4.6c0.1-0.1,0.2-0.2,0.2-0.3c0-0.1-0.1-0.2-0.2-0.3L30,140.3l-2-1.2
				c-0.2-0.1-0.4,0-0.5,0.1c-0.1,0.2,0,0.4,0.1,0.5l1.5,0.9l10.7,6.2l-7.9,4.6c-0.1,0.1-0.2,0.2-0.2,0.3c0,0.1,0.1,0.2,0.2,0.3
				l18.5,10.7L51.2,162.3z"/>
		</g>
		<g>
			<path class="st91" d="M88.5,141.3l-0.7,0.4l-1.2-0.7l-12.8-7.4c-0.1-0.1-0.2-0.2-0.2-0.3c0-0.1,0.1-0.2,0.2-0.3l6-3.5l-14.7-8.7
				l-1.4-0.8c-0.2-0.1-0.2-0.3-0.1-0.5c0.1-0.2,0.3-0.2,0.5-0.1l1.8,1h0l14.9,8.8c0.1,0.1,0.2,0.2,0.2,0.3c0,0.1-0.1,0.2-0.2,0.3
				l-6,3.5l12.6,7.3L88.5,141.3z"/>
		</g>
		<g>
			<path class="st91" d="M104.5,132l-0.7,0.4l-1.2-0.7l-19.9-11.5c-0.1-0.1-0.2-0.2-0.2-0.3c0-0.1,0.1-0.2,0.2-0.3l8.8-5.1
				l-11.1-6.4l-2.4-1.4c-0.2-0.1-0.2-0.3-0.1-0.5c0.1-0.2,0.3-0.2,0.5-0.1l2.7,1.6l11.3,6.6c0.1,0.1,0.2,0.2,0.2,0.3
				c0,0.1-0.1,0.2-0.2,0.3l-8.8,5.1l19.7,11.4L104.5,132z"/>
		</g>
		<g>
			<path class="st91" d="M79.5,146.5l-0.7,0.4l-1.2-0.7l-13-7.5l-9.3,5.4c-0.1,0.1-0.2,0.1-0.4,0l-12.5-7.2l-1.5-0.9
				c-0.2-0.1-0.2-0.3-0.1-0.5c0.1-0.2,0.3-0.2,0.5-0.1l1.8,1.1l12.1,7l9.3-5.4c0.1-0.1,0.2-0.1,0.4,0l13.5,7.8L79.5,146.5z"/>
		</g>
		<g>
			<path class="st91" d="M121.5,122.1l-0.7,0.4l-1.2-0.7L100.8,111l-0.7-0.4l-5.8-3.4c0,0,0,0,0,0l-1.5-0.9
				c-0.2-0.1-0.2-0.3-0.1-0.5c0.1-0.2,0.3-0.2,0.5-0.1l1.9,1.1l5.7,3.3l0.7,0.4l18.8,10.9L121.5,122.1z"/>
		</g>
		<g>
			<path class="st91" d="M129.4,117.5l-0.7,0.4l-1.2-0.7l-18.9-10.9l-0.7-0.4L85.9,93.3l-1.1-0.7c-0.2-0.1-0.2-0.3-0.1-0.5
				c0.1-0.2,0.3-0.2,0.5-0.1l1.7,1l21.7,12.5l0.7,0.4l18.9,10.9L129.4,117.5z"/>
		</g>
		<g>
			<path class="st91" d="M100.6,134.2l-0.7,0.4l-1.2-0.7l-25.1-14.5c0,0,0,0,0,0l-1.7-1c-0.2-0.1-0.2-0.3-0.1-0.5
				c0.1-0.2,0.3-0.2,0.5-0.1l2.1,1.2l25,14.4L100.6,134.2z"/>
		</g>
		<g>
			<path class="st91" d="M65.3,154.7l-0.7,0.4l-1.2-0.7L52.2,148l-2.7-1.5c-0.2-0.1-0.2-0.3-0.1-0.5c0.1-0.2,0.3-0.2,0.5-0.1
				l3.1,1.8l11.2,6.4L65.3,154.7z"/>
		</g>
		<g>
			<path class="st91" d="M29.9,138.1c1.1,0.6,1.1,1.6,0,2.2c-1.1,0.6-2.8,0.6-3.8,0c-1.1-0.6-1.1-1.6,0-2.2
				C27.1,137.5,28.9,137.5,29.9,138.1z"/>
		</g>
		<g>
			<ellipse class="st91" cx="50.8" cy="146.7" rx="2.7" ry="1.6"/>
		</g>
		<g>
			<ellipse class="st91" cx="40.8" cy="135.6" rx="2.7" ry="1.6"/>
		</g>
		<g>
			<path class="st91" d="M65.6,118.4c1.1,0.6,1.1,1.6,0,2.2c-1.1,0.6-2.8,0.6-3.8,0c-1.1-0.6-1.1-1.6,0-2.2
				C62.9,117.8,64.6,117.8,65.6,118.4z"/>
		</g>
		<g>
			<path class="st91" d="M46.9,129.2c1.1,0.6,1.1,1.6,0,2.2c-1.1,0.6-2.8,0.6-3.8,0c-1.1-0.6-1.1-1.6,0-2.2
				C44.1,128.6,45.9,128.6,46.9,129.2z"/>
		</g>
		<g>
			<path class="st91" d="M84.2,143.8l-0.7,0.4l-1.2-0.7l-29.7-17.2l-5.4,3.1l-2,1.2c-0.2,0.1-0.4,0-0.5-0.1c-0.1-0.2,0-0.4,0.1-0.5
				l1.7-1l5.9-3.4c0.1-0.1,0.2-0.1,0.4,0L83,143.1L84.2,143.8z"/>
		</g>
		<g>
			<path class="st91" d="M133.9,114.9l-0.7,0.4l-1.2-0.7l-12.9-7.5c-0.1-0.1-0.2-0.2-0.2-0.3c0-0.1,0.1-0.2,0.2-0.3l6-3.5l-14.7-8.7
				h0l-1.4-0.8c-0.2-0.1-0.2-0.3-0.1-0.5c0.1-0.2,0.3-0.2,0.5-0.1l1.8,1l14.9,8.8c0.1,0.1,0.2,0.2,0.2,0.3c0,0.1-0.1,0.2-0.2,0.3
				l-6,3.5l12.7,7.4L133.9,114.9z"/>
		</g>
		<g>
			<ellipse class="st91" cx="108.9" cy="93.1" rx="2.7" ry="1.6"/>
		</g>
		<g>
			<ellipse class="st91" cx="72.3" cy="118.1" rx="2.7" ry="1.6"/>
		</g>
		<g>
			<path class="st91" d="M80.7,105.8c1.1,0.6,1.1,1.6,0,2.2c-1.1,0.6-2.8,0.6-3.8,0c-1.1-0.6-1.1-1.6,0-2.2
				C77.9,105.2,79.6,105.2,80.7,105.8z"/>
		</g>
		<g>
			<ellipse class="st91" cx="85" cy="91.8" rx="2.7" ry="1.6"/>
		</g>
		<g>
			<path class="st91" d="M103.8,93.8c1.1,0.6,1.1,1.6,0,2.2c-1.1,0.6-2.8,0.6-3.8,0c-1.1-0.6-1.1-1.6,0-2.2
				C101,93.2,102.8,93.2,103.8,93.8z"/>
		</g>
		<g>
			<ellipse class="st91" cx="93" cy="105.8" rx="2.7" ry="1.6"/>
		</g>
	</g>
	<g>
		<g>
			<path class="st91" d="M235.3,143.2c0,0.1-0.1,0.2-0.2,0.3l-17.7,10.2l-1.2,0.7l-0.7-0.4l1.2-0.7l17.6-10.1l-16.1-9.7l-0.7-0.4
				l-4-2.4c-0.1-0.1-0.2-0.2-0.2-0.3c0-0.1,0.1-0.2,0.2-0.3l10.7-6.2l2.1-1.2c0.2-0.1,0.4,0,0.5,0.1c0.1,0.2,0,0.4-0.1,0.5l-1.8,1
				l-10.5,6.1l3.8,2.3l0.7,0.4l16.3,9.8C235.2,142.9,235.3,143,235.3,143.2z"/>
		</g>
		<g>
			<path class="st91" d="M218.3,120.7l-1.4,0.8l-14.7,8.7l6,3.5c0.1,0.1,0.2,0.2,0.2,0.3c0,0.1-0.1,0.2-0.2,0.3l-12.3,7.1l-1.2,0.7
				l-0.7-0.4l1.2-0.7l12.1-7l-6-3.5c-0.1-0.1-0.2-0.2-0.2-0.3c0-0.1,0.1-0.2,0.2-0.3l14.9-8.8l1.8-1c0.2-0.1,0.4,0,0.5,0.1
				C218.5,120.3,218.4,120.6,218.3,120.7z"/>
		</g>
		<g>
			<path class="st91" d="M203,105.2l-2.3,1.3l-11.5,6.6l9,5.2c0.1,0.1,0.2,0.2,0.2,0.3c0,0.1-0.1,0.2-0.2,0.3l-20.5,11.9l-1.2,0.7
				l-0.7-0.4l1.2-0.7l20.4-11.8l-9-5.2c-0.1-0.1-0.2-0.2-0.2-0.3c0-0.1,0.1-0.2,0.2-0.3l11.8-6.8l2.6-1.5c0.2-0.1,0.4,0,0.5,0.1
				C203.3,104.9,203.2,105.1,203,105.2z"/>
		</g>
		<g>
			<path class="st91" d="M254.4,150.2l-1.5,0.9l-10.4,6c-0.1,0.1-0.2,0.1-0.4,0l-7.8-4.5l-9.5,5.5l-1.2,0.7l-0.7-0.4l1.2-0.7
				l10.1-5.8c0.1-0.1,0.2-0.1,0.4,0l7.8,4.5l9.7-5.6l2-1.1c0.2-0.1,0.4,0,0.5,0.1C254.7,149.9,254.6,150.1,254.4,150.2z"/>
		</g>
		<g>
			<path class="st91" d="M188.6,107.1l-1.5,0.9c0,0,0,0,0,0l-24.5,14.1l-1.2,0.7l-0.7-0.4l1.2-0.7l24.4-14.1l1.9-1.1
				c0.2-0.1,0.4,0,0.5,0.1C188.8,106.8,188.7,107,188.6,107.1z"/>
		</g>
		<g>
			<path class="st91" d="M197.2,93.3l-1.1,0.7l-41.2,23.7l-1.2,0.7l-0.7-0.4l1.2-0.7l41-23.6l1.7-1c0.2-0.1,0.4,0,0.5,0.1
				C197.4,93,197.4,93.2,197.2,93.3z"/>
		</g>
		<g>
			<path class="st91" d="M210.1,119.1l-1.7,1l-24.6,14.2l-1.2,0.7l-0.7-0.4l1.2-0.7l24.6-14.2l2.1-1.2c0.2-0.1,0.4,0,0.5,0.1
				C210.3,118.8,210.2,119,210.1,119.1z"/>
		</g>
		<g>
			<path class="st91" d="M183.4,118.8l-2.7,1.5l-10.6,6.1l-1.2,0.7l-0.7-0.4l1.2-0.7L180,120l3.1-1.8c0.2-0.1,0.4,0,0.5,0.1
				C183.6,118.5,183.6,118.7,183.4,118.8z"/>
		</g>
		<g>
			<path class="st91" d="M180.2,117.9c-1.1,0.6-1.1,1.6,0,2.2c1.1,0.6,2.8,0.6,3.8,0c1.1-0.6,1.1-1.6,0-2.2
				C183,117.3,181.3,117.3,180.2,117.9z"/>
		</g>
		<g>
			<path class="st91" d="M252.3,148.6c-1.1,0.6-1.1,1.6,0,2.2c1.1,0.6,2.8,0.6,3.8,0c1.1-0.6,1.1-1.6,0-2.2
				C255.1,148,253.3,148,252.3,148.6z"/>
		</g>
		<g>
			<ellipse class="st91" cx="218.3" cy="120.1" rx="2.7" ry="1.6"/>
		</g>
		<g>
			<ellipse class="st91" cx="237" cy="131" rx="2.7" ry="1.6"/>
		</g>
		<g>
			<path class="st91" d="M237.3,131.1c-0.1,0.2-0.3,0.2-0.5,0.1l-2-1.2l-5.4-3.1l-10.6,6.1l-0.7,0.4l-17.9,10.3l-1.2,0.7l-0.7-0.4
				l1.2-0.7l17.9-10.3l0.7-0.4l11.1-6.4c0.1-0.1,0.2-0.1,0.4,0l5.9,3.4h0l1.7,1C237.3,130.7,237.4,130.9,237.3,131.1z"/>
		</g>
		<g>
			<path class="st91" d="M173.1,94.2l-1.4,0.8l-14.7,8.7l6,3.5c0.1,0.1,0.2,0.2,0.2,0.3c0,0.1-0.1,0.2-0.2,0.3l-12.6,7.2l-1.2,0.7
				l-4.5,2.6c-0.1,0-0.1,0.1-0.2,0.1c-0.1,0-0.2-0.1-0.3-0.2c-0.1-0.2,0-0.4,0.1-0.5l4.1-2.4l1.2-0.7l12.4-7.1l-6-3.5
				c-0.1-0.1-0.2-0.2-0.2-0.3c0-0.1,0.1-0.2,0.2-0.3l14.9-8.8l1.8-1c0.2-0.1,0.4,0,0.5,0.1C173.3,93.9,173.2,94.1,173.1,94.2z"/>
		</g>
		<g>
			<path class="st91" d="M171.2,92.6c-1.1,0.6-1.1,1.6,0,2.2c1.1,0.6,2.8,0.6,3.8,0c1.1-0.6,1.1-1.6,0-2.2
				C173.9,92,172.2,92,171.2,92.6z"/>
		</g>
		<g>
			<ellipse class="st91" cx="209.7" cy="118.7" rx="2.7" ry="1.6"/>
		</g>
		<g>
			<path class="st91" d="M200.6,104.2c-1.1,0.6-1.1,1.6,0,2.2c1.1,0.6,2.8,0.6,3.8,0c1.1-0.6,1.1-1.6,0-2.2
				C203.4,103.6,201.7,103.6,200.6,104.2z"/>
		</g>
		<g>
			<path class="st91" d="M195.1,91.3c-1.1,0.6-1.1,1.6,0,2.2c1.1,0.6,2.8,0.6,3.8,0c1.1-0.6,1.1-1.6,0-2.2
				C197.9,90.7,196.2,90.7,195.1,91.3z"/>
		</g>
		<g>
			<ellipse class="st91" cx="226.4" cy="123.1" rx="2.7" ry="1.6"/>
		</g>
		<g>
			<path class="st91" d="M186.4,105.5c-1.1,0.6-1.1,1.6,0,2.2c1.1,0.6,2.8,0.6,3.8,0c1.1-0.6,1.1-1.6,0-2.2
				C189.2,104.9,187.5,104.9,186.4,105.5z"/>
		</g>
	</g>
</g>
<g>
	<g>
		<g>
			<path class="st2" d="M279.7,174c0.6,0,1.3,0.3,1.9,0.1c0.1,0,0.2-0.1,0.3-0.1c0.3,0,0.3,0.4,0.4,0.7c0.1,0.4,0.2,0.7,0.2,1.1
				c0,0.8,0,1.6-0.2,2.4c-0.1,0.2-0.2,0.4-0.3,0.4c-0.1,0-0.2-0.1-0.4-0.1c-0.2,0-0.2,0.4-0.3,0.6c-0.2,0.3-0.8,0.3-0.9-0.1
				c-0.1,0.3-0.2,0.6-0.5,0.7c-0.3,0.1-0.7,0-0.7-0.3c0,0.3-0.3,0.6-0.7,0.6c-0.3,0-0.6-0.4-0.6-0.7c0-0.3,0.2-0.5,0.3-0.7
				c0.4-0.9-0.2-1.9-0.1-2.9c0-0.4,0.2-0.8,0.5-1.2C278.7,174.3,279.3,174.1,279.7,174C279.7,174,279.7,174,279.7,174z"/>
			<path class="st2" d="M278.6,174.6c-0.8,0.7-1.5,2-1.6,3c0,0.2,0,0.3,0.1,0.5c0.1,0.1,0.2,0.3,0.4,0.3c0.2,0,0.3-0.1,0.4-0.3
				c0.1-0.1,0.1-0.3,0.1-0.5c0,0,0-0.1,0-0.1c0.4-0.5,0.9-0.9,1.3-1.4L278.6,174.6z"/>
		</g>
		<path class="st5" d="M279.2,172.8c0,0.4,0,0.7,0,1c0,0.9,0.6,1.1,1.3,1.2c0.7,0,1.3-0.1,1.6-1.3c0.1-0.3,0.1-0.6,0.2-0.8
			C281.5,173.5,280.2,173.3,279.2,172.8z"/>
		<path class="st7" d="M283,165.8c0.4-0.8-0.5-8.6-0.5-9c0-0.1-0.1-1.7-0.3-1.7l-4.6,0c0,0.7,0.2,1.4,0.2,2c0.1,1,1.1,9.2,1.5,10.1
			C280.5,169.5,282.3,167.2,283,165.8z"/>
		<path class="st9" d="M280,149.5c1.7-0.2,2.3,1.5,2.6,2.7c0.4,1.6,0.5,3.4,0.3,5.1c0,0.4-0.1,0.9-0.3,1.2c-0.2,0.3-0.4,0.6-0.7,0.8
			c-0.6,0.6-1.4,1.1-2.2,1c-0.3,0-0.5-0.1-0.8-0.2c-0.3-0.1-0.7-0.3-0.9-0.5c-0.4-0.4-0.5-1.1-0.5-1.7c-0.1-1.5-0.2-3,0-4.6
			C277.6,151.8,277.8,149.8,280,149.5z"/>
		<path class="st9" d="M282.3,173.1c-0.2,0.9-0.9,0.9-1.6,0.9c-0.7-0.1-1.4-0.2-1.5-1.5c-0.2-2.6-0.2-3.6-0.4-5.8
			c0-0.5-0.2-1.5,0.1-2c0,0,0-0.1,0.1-0.1c0.2-0.2,0.6-0.1,0.8,0c1.5,0.2,2.1-1.7,3.4-1.6c0.4,0.1,0.3,1.7,0.3,2.1
			c0,0.5-0.1,1-0.1,1.6c-0.1,0.6-0.1,1.2-0.2,1.7c-0.1,0.6-0.2,1.2-0.3,1.7c-0.1,0.5-0.2,1.1-0.3,1.6
			C282.5,172.2,282.4,172.7,282.3,173.1z"/>
	</g>
	<g>
		<g>
			<g>
				<defs>
					<path id="SVGID_00000081648660652516694490000016767611559177216682_" d="M270.1,191.9l0.3-0.2c0.3-0.1,0.6-0.1,1,0.1l-0.3,0.2
						C270.7,191.8,270.4,191.8,270.1,191.9z"/>
				</defs>
				<use xlink:href="#SVGID_00000081648660652516694490000016767611559177216682_"  style="overflow:visible;fill:#4E2D88;"/>
				<clipPath id="SVGID_00000092458835670649150030000017635582201838399155_">
					<use xlink:href="#SVGID_00000081648660652516694490000016767611559177216682_"  style="overflow:visible;"/>
				</clipPath>
				<g style="clip-path:url(#SVGID_00000092458835670649150030000017635582201838399155_);enable-background:new    ;">
					<path class="st5" d="M270.1,191.9l0.3-0.2c0.1-0.1,0.3-0.1,0.4-0.1l-0.3,0.2C270.4,191.8,270.3,191.9,270.1,191.9L270.1,191.9z
						"/>
					<path class="st5" d="M270.6,191.9l0.3-0.2c0.1,0,0.2,0,0.3,0.1l-0.3,0.2C270.8,191.9,270.7,191.9,270.6,191.9L270.6,191.9z"/>
					<path class="st5" d="M270.9,191.9l0.3-0.2c0.1,0,0.2,0.1,0.3,0.1l-0.3,0.2C271,192,270.9,192,270.9,191.9L270.9,191.9z"/>
				</g>
			</g>
			<g>
				<defs>
					<path id="SVGID_00000146476006606621093790000007733608964975557549_" d="M272.3,195.2l-0.3,0.2c0.3-0.1,0.4-0.4,0.4-0.9
						c0-0.9-0.5-1.9-1.3-2.4l0.3-0.2c0.7,0.5,1.3,1.5,1.3,2.4C272.7,194.7,272.5,195,272.3,195.2z"/>
				</defs>
				<use xlink:href="#SVGID_00000146476006606621093790000007733608964975557549_"  style="overflow:visible;fill:#4E2D88;"/>
				<clipPath id="SVGID_00000152987148973309166840000006955698182695481484_">
					<use xlink:href="#SVGID_00000146476006606621093790000007733608964975557549_"  style="overflow:visible;"/>
				</clipPath>
				<g style="clip-path:url(#SVGID_00000152987148973309166840000006955698182695481484_);enable-background:new    ;">
					<path class="st5" d="M271.1,192.1l0.3-0.2c0,0,0,0,0,0L271.1,192.1C271.1,192.1,271.1,192.1,271.1,192.1L271.1,192.1z"/>
					<path class="st5" d="M271.1,192.1l0.3-0.2c0.1,0.1,0.2,0.1,0.3,0.2l-0.3,0.2C271.3,192.2,271.2,192.1,271.1,192.1L271.1,192.1z
						"/>
					<path class="st5" d="M271.4,192.3l0.3-0.2c0.1,0.1,0.2,0.2,0.3,0.3l-0.3,0.2C271.6,192.5,271.5,192.4,271.4,192.3L271.4,192.3z
						"/>
					<path class="st5" d="M271.7,192.6l0.3-0.2c0.2,0.3,0.4,0.5,0.5,0.9l-0.3,0.2C272.1,193.1,271.9,192.8,271.7,192.6L271.7,192.6z
						"/>
					<path class="st5" d="M272.2,193.4l0.3-0.2c0,0.1,0.1,0.2,0.1,0.3l-0.3,0.2C272.3,193.7,272.2,193.6,272.2,193.4L272.2,193.4z"
						/>
					<path class="st5" d="M272.3,193.8l0.3-0.2c0,0.1,0.1,0.2,0.1,0.4l-0.3,0.2C272.4,194,272.3,193.9,272.3,193.8L272.3,193.8z"/>
					<path class="st5" d="M272.4,194.1l0.3-0.2c0,0.1,0,0.2,0,0.3c0,0,0,0,0,0l-0.3,0.2c0,0,0,0,0,0
						C272.4,194.4,272.4,194.3,272.4,194.1L272.4,194.1z"/>
					<path class="st5" d="M272.4,194.5l0.3-0.2c0,0.1,0,0.2,0,0.3l-0.3,0.2C272.4,194.7,272.4,194.6,272.4,194.5L272.4,194.5z"/>
					<path class="st5" d="M272.6,193.9l0.4-0.2c-0.1,0.3-0.2,0.4-0.4,0.5l-0.4,0.2C272.4,194.3,272.6,194.1,272.6,193.9L272.6,193.9
						z"/>
				</g>
			</g>
			<g>
				<path class="st3" d="M271.1,192.1c0.7,0.5,1.3,1.5,1.3,2.4c0,0.9-0.7,1.2-1.4,0.7c-0.7-0.5-1.3-1.5-1.3-2.4
					C269.8,191.9,270.4,191.6,271.1,192.1z"/>
			</g>
		</g>
		<g>
			<path class="st5" d="M271,192.5c0.5,0.3,1,1.1,0.9,1.8c0,0.6-0.5,0.9-1,0.5c-0.5-0.3-1-1.1-0.9-1.8
				C270,192.4,270.5,192.1,271,192.5z"/>
		</g>
		<g>
			<g>
				<path class="st3" d="M271,193c0.3,0.2,0.6,0.7,0.5,1c0,0.4-0.3,0.5-0.6,0.3c-0.3-0.2-0.6-0.7-0.5-1
					C270.4,192.9,270.7,192.8,271,193z"/>
			</g>
		</g>
	</g>
	<g>
		<g>
			<g>
				<defs>
					<path id="SVGID_00000113322204090210007280000002418021885315150511_" d="M278.6,187.8l0.3-0.2c0.3-0.1,0.6-0.1,1,0.1l-0.3,0.2
						C279.2,187.7,278.9,187.7,278.6,187.8z"/>
				</defs>
				<use xlink:href="#SVGID_00000113322204090210007280000002418021885315150511_"  style="overflow:visible;fill:#4E2D88;"/>
				<clipPath id="SVGID_00000107548954134716726280000017217745813814875309_">
					<use xlink:href="#SVGID_00000113322204090210007280000002418021885315150511_"  style="overflow:visible;"/>
				</clipPath>
				<g style="clip-path:url(#SVGID_00000107548954134716726280000017217745813814875309_);enable-background:new    ;">
					<path class="st5" d="M278.6,187.8l0.3-0.2c0.1-0.1,0.3-0.1,0.4-0.1l-0.3,0.2C278.9,187.7,278.8,187.7,278.6,187.8L278.6,187.8z
						"/>
					<path class="st5" d="M279.1,187.7l0.3-0.2c0.1,0,0.2,0,0.3,0.1l-0.3,0.2C279.2,187.7,279.1,187.7,279.1,187.7L279.1,187.7z"/>
					<path class="st5" d="M279.3,187.8l0.3-0.2c0.1,0,0.2,0.1,0.3,0.1l-0.3,0.2C279.5,187.9,279.4,187.8,279.3,187.8L279.3,187.8z"
						/>
				</g>
			</g>
			<g>
				<defs>
					<path id="SVGID_00000059270005904669599770000012798701313104597428_" d="M280.8,191l-0.3,0.2c0.3-0.1,0.4-0.4,0.4-0.9
						c0-0.9-0.5-1.9-1.3-2.4l0.3-0.2c0.7,0.5,1.3,1.5,1.3,2.4C281.2,190.6,281,190.9,280.8,191z"/>
				</defs>
				<use xlink:href="#SVGID_00000059270005904669599770000012798701313104597428_"  style="overflow:visible;fill:#4E2D88;"/>
				<clipPath id="SVGID_00000124876436779951982400000017572837757659181193_">
					<use xlink:href="#SVGID_00000059270005904669599770000012798701313104597428_"  style="overflow:visible;"/>
				</clipPath>
				<g style="clip-path:url(#SVGID_00000124876436779951982400000017572837757659181193_);enable-background:new    ;">
					<path class="st5" d="M279.6,187.9l0.3-0.2c0,0,0,0,0,0L279.6,187.9C279.6,187.9,279.6,187.9,279.6,187.9L279.6,187.9z"/>
					<path class="st5" d="M279.6,187.9l0.3-0.2c0.1,0.1,0.2,0.1,0.3,0.2l-0.3,0.2C279.8,188.1,279.7,188,279.6,187.9L279.6,187.9z"
						/>
					<path class="st5" d="M279.9,188.2l0.3-0.2c0.1,0.1,0.2,0.2,0.3,0.3l-0.3,0.2C280.1,188.3,280,188.2,279.9,188.2L279.9,188.2z"
						/>
					<path class="st5" d="M280.2,188.4l0.3-0.2c0.2,0.3,0.4,0.5,0.5,0.9l-0.3,0.2C280.6,189,280.4,188.7,280.2,188.4L280.2,188.4z"
						/>
					<path class="st5" d="M280.7,189.3l0.3-0.2c0,0.1,0.1,0.2,0.1,0.3l-0.3,0.2C280.8,189.5,280.7,189.4,280.7,189.3L280.7,189.3z"
						/>
					<path class="st5" d="M280.8,189.6l0.3-0.2c0,0.1,0.1,0.2,0.1,0.4l-0.3,0.2C280.8,189.9,280.8,189.8,280.8,189.6L280.8,189.6z"
						/>
					<path class="st5" d="M280.9,190l0.3-0.2c0,0.1,0,0.2,0,0.3c0,0,0,0,0,0l-0.3,0.2c0,0,0,0,0,0
						C280.9,190.2,280.9,190.1,280.9,190L280.9,190z"/>
					<path class="st5" d="M280.9,190.3l0.3-0.2c0,0.1,0,0.2,0,0.3l-0.3,0.2C280.8,190.6,280.9,190.5,280.9,190.3L280.9,190.3z"/>
					<path class="st5" d="M281.1,189.7l0.4-0.2c-0.1,0.3-0.2,0.4-0.4,0.5l-0.4,0.2C280.9,190.2,281,190,281.1,189.7L281.1,189.7z"/>
				</g>
			</g>
			<g>
				<path class="st3" d="M279.6,187.9c0.7,0.5,1.3,1.5,1.3,2.4c0,0.9-0.7,1.2-1.4,0.7c-0.7-0.5-1.3-1.5-1.3-2.4
					C278.2,187.8,278.9,187.5,279.6,187.9z"/>
			</g>
		</g>
		<g>
			<path class="st5" d="M279.5,188.3c0.5,0.3,1,1.1,0.9,1.8c0,0.6-0.5,0.9-1,0.5c-0.5-0.3-1-1.1-0.9-1.8
				C278.5,188.2,279,188,279.5,188.3z"/>
		</g>
		<g>
			<g>
				<path class="st8" d="M279.5,188.8c0.3,0.2,0.6,0.7,0.5,1c0,0.4-0.3,0.5-0.6,0.3c-0.3-0.2-0.6-0.7-0.5-1
					C278.9,188.8,279.2,188.6,279.5,188.8z"/>
			</g>
		</g>
	</g>
	<path class="st2" d="M252.6,159.4c-0.7-1-1.3-2.1-2.1-2.9c-0.3-0.3-0.6-0.6-1-0.8c-0.1-0.1-0.3-0.2-0.4-0.2c-0.2,0-0.3,0-0.5,0.1
		c-0.1,0.1-0.2,0.3-0.1,0.4c-0.2,0-0.5,0-0.6,0.1c-0.2,0.1-0.2,0.4-0.2,0.6c-0.2-0.1-0.5,0-0.7,0.3c-0.1,0.2-0.1,0.5,0,0.7
		c-0.2,0-0.4,0.2-0.5,0.5c0,0.2,0.1,0.5,0.3,0.7c1.2,1.6,3,2.3,4.4,3.6c0.3-0.2,0.5-0.4,0.6-0.7c0.1-0.4,0.3-0.8,0.6-1.1
		L252.6,159.4z"/>
	<path class="st2" d="M250.1,156.1c-1.1-0.9-2.4-1.9-3.6-2.7c-0.1-0.1-0.3-0.2-0.4-0.2s-0.3,0-0.4,0.1c-0.1,0.1-0.1,0.2-0.1,0.3
		c0,0.3,0.3,0.5,0.6,0.8c0.9,0.8,1.6,1.4,2.5,2c0.1,0,0,0.2,0.1,0.2c0.2,0,0.3-0.2,0.3-0.4c0-0.2-0.1-0.3-0.2-0.5L250.1,156.1z"/>
	<path class="st2" d="M252.2,157.6c-0.1-0.3-0.3-0.5-0.5-0.7c-0.4-0.3-0.9-0.3-1.3-0.4c0,0.4,0.2,0.8,0.4,1.1
		c0.2,0.3,0.5,0.6,0.7,0.9c0.2,0.2,0.3,0.5,0.5,0.7c0.1,0.1,0.3,1.4,0.5,1.3c0.2-0.1,0.4-0.5,0.4-0.6
		C252.8,159.4,252.4,158.1,252.2,157.6z"/>
	<path class="st5" d="M267.8,140.2c-0.3,0.2-0.5,0.3-0.7,0.5c0.2,0.1,0.3,0.2,0.4,0.3c0.2-0.2,0.4-0.4,0.7-0.6
		c1.4-0.8,3.8-0.8,5.2,0l0.4-0.2C272.2,139.2,269.5,139.2,267.8,140.2z"/>
	<path class="st5" d="M273.5,140.4l0,1.9c-1.4-0.8-3.8-0.8-5.2,0c-0.7,0.4-1.1,1-1.1,1.5l0-1.9c0-0.5,0.4-1.1,1.1-1.5
		C269.7,139.6,272,139.6,273.5,140.4L273.5,140.4z"/>
	<path class="st5" d="M278.1,184.8c0.2,0,0.4,0.1,0.6,0.2c0.3,0.1,0.5,0.4,0.7,0.6c0.4,0.5,0.9-0.4,1.1,0.2c0.2,0.5-0.3,3.7-0.3,4.3
		c-0.1,0.9-0.2,3.2-0.7,3.8c-0.7,0.7-1.9-1-2.8-1.2c-0.2,0-0.3-0.1-0.5-0.1c-1-0.4-1.5-0.4-1.7-1.5c-0.2-1.5-0.8-3.8-0.2-5
		c0.4-0.7,1.1-1.1,1.8-1.3c0.6-0.2,1.3-0.2,1.9-0.1C278,184.8,278.1,184.8,278.1,184.8z"/>
	<g>
		<g id="man_22_">
			<g>
				<g>
					<g>
						<g>
							<g>
								<path class="st6" d="M279.1,207.5c-0.2-0.7-1.3-0.3-1.7-0.5c-0.8-0.4-1.5-1.3-2.2-1.8c-0.8-0.6-1.6-0.9-2.5-1.3
									c-0.4-0.2-0.7-0.3-1.1-0.3c-1.1,0-1.9,1.4-1.8,2.4c0,0.5,0.3,0.9,0.7,1.3c0.6,0.5,1.4,0.9,2.1,1.1c0.8,0.2,1.5,0.5,2.1,1
									c0.8,0.7,1.3,1.4,2.4,1.6c1.1,0.2,2.1-0.4,2.2-1.6c0-0.4,0-0.8,0-1.2C279.1,207.8,279.1,207.6,279.1,207.5z"/>
							</g>
						</g>
					</g>
				</g>
			</g>
		</g>
		<g id="man_11_">
			<g>
				<g>
					<g>
						<path class="st9" d="M279.1,207.3c-0.2-0.6-1.2-0.3-1.7-0.5c-0.8-0.4-1.4-1.2-2.1-1.7c-0.7-0.5-1.6-0.9-2.4-1.2
							c-0.3-0.1-0.7-0.3-1.1-0.3c-1,0-1.8,1.4-1.7,2.3c0,0.5,0.3,0.9,0.7,1.2c0.5,0.5,1.3,0.9,2,1.1c0.8,0.2,1.4,0.5,2,1
							c0.7,0.7,1.3,1.4,2.3,1.5c1,0.2,2-0.4,2.1-1.5c0-0.4,0-0.8,0-1.2C279.2,207.6,279.2,207.4,279.1,207.3z"/>
					</g>
				</g>
			</g>
		</g>
		<path class="st5" d="M276.4,203.7c-0.1,0-0.2,0.1-0.3,0.2c-0.1,0.1-0.3,0.3-0.4,0.4c-0.2,0.4-0.2-0.1-0.3,0.4
			c0,0.3,0.2,2.2,0.3,2.5c0.1,0.6,0.8,1.3,2.3,1c0.8-0.1,1.1-0.5,1.1-1.2c0-1,0.2-2.2-0.3-2.9c-0.3-0.4-0.8-0.5-1.2-0.6
			c-0.4-0.1-0.8,0-1.1,0.1C276.5,203.6,276.4,203.6,276.4,203.7z"/>
		<path class="st9" d="M275.3,205.5c0.1,2.4,2.6,2.6,3.7,1.5c0.6-0.5,0.4-1.2,0.6-1.9c0.3-1.3,0.7-4.8,1.3-8.3
			c0.7-4.4-0.7-6.3-0.7-6.4c-0.2,0.6-0.6,1.4-1.2,1.6c-1.4,0.6-3.7,0.6-4.4-1C274.1,193.5,275,199.2,275.3,205.5z"/>
		<g>
			<path class="st7" d="M280.7,176.5c0,0.6,0,1.1,0,1.7c0,1.9-0.1,4.5-0.2,6.5c-0.1,1.1,0,3-0.8,3.9c-0.7,0.9-1.8,1.4-3,1.3
				c-0.4,0-0.7-0.1-1-0.4c-0.6-0.5-1.1-0.4-1.2-1.2c-0.9-7.7-0.8-7.1-0.7-10c0-0.7-0.5-2.2-0.4-3.3c0.1-1.2,1.5-3.1,1.9-3.7
				C277.1,168.6,280.9,172.4,280.7,176.5z"/>
			<path class="st9" d="M280.7,175.7c-0.4,1.1-2.2,2.9-3.4,3.7c-1.8,1.2-3.9,1.6-3.8,2.7c0.1,2.1,0.4,6.9,0.5,7.7
				c0.1,0.7,0.5,1.9,4.1,1.2c2-0.4,2.2-2.2,2.5-4.1C281.7,178.1,280.8,176,280.7,175.7z"/>
		</g>
	</g>
	<path class="st5" d="M278.9,191.4v3.9c0,0.4,0.3,0.6,0.6,0.4l0,0c0.3-0.2,0.6-0.7,0.6-1.1v-4.1L278.9,191.4z"/>
	<path class="st5" d="M269.2,188.7c0.2,0,0.4,0.1,0.6,0.2c0.3,0.1,0.5,0.4,0.7,0.6c0.4,0.5,0.9-0.4,1.1,0.2c0.2,0.5-0.3,3.7-0.3,4.3
		c-0.1,0.9-0.2,3.2-0.7,3.8c-0.7,0.7-1.9-1-2.8-1.2c-0.2,0-0.3-0.1-0.5-0.1c-1-0.4-1.5-0.4-1.7-1.5c-0.2-1.5-0.8-3.8-0.2-5
		c0.4-0.7,1.1-1.1,1.8-1.3c0.6-0.2,1.3-0.2,1.9-0.1C269.1,188.6,269.1,188.7,269.2,188.7z"/>
	
		<linearGradient id="SVGID_00000095297837226269955390000010595826506938595727_" gradientUnits="userSpaceOnUse" x1="267.454" y1="153.2653" x2="280.0011" y2="174.9974">
		<stop  offset="0" style="stop-color:#8A59A4"/>
		<stop  offset="0.261" style="stop-color:#744898"/>
		<stop  offset="0.5631" style="stop-color:#60398F"/>
		<stop  offset="0.8202" style="stop-color:#53308A"/>
		<stop  offset="1" style="stop-color:#4E2D88"/>
	</linearGradient>
	<path style="fill:url(#SVGID_00000095297837226269955390000010595826506938595727_);" d="M281.3,155.8c0.3-2.3,0.5-4.2-1.5-5.4
		c-2.6-1.5-5.1,0-7.5,0.9c-2.4,0.9-6,1.8-6.5,2.5c-1.8,2.6,2.6,9.2,1.4,19.1c-0.2,1.3-1.9,3.9,0.7,5.2c5.8,2.9,12.1-2.5,12-5
		C279.1,159.9,280.7,160.6,281.3,155.8z"/>
	
		<linearGradient id="SVGID_00000137123578019535222670000015217496665340571799_" gradientUnits="userSpaceOnUse" x1="271.3218" y1="152.7067" x2="279.9084" y2="162.7063">
		<stop  offset="0" style="stop-color:#E8E8F5"/>
		<stop  offset="1" style="stop-color:#D4D4EB"/>
	</linearGradient>
	<path style="fill:url(#SVGID_00000137123578019535222670000015217496665340571799_);" d="M270.1,156.5c-0.3-3.1-2.2-3.1-3.7-2.5
		c-0.5,0.2-1,0.5-1,0.5s0-1.1,1.3-2c0.4-0.3,2.3-1.1,2.8-1.4c0.9-0.5,1.9-0.9,2.9-1.3c1.1-0.5,2.2-0.9,3.4-1
		c1.6-0.2,3.3,0.1,4.5,1.3c1.2,1.1,1.5,3.1,1.4,4.5c-0.3,2.6-1.6,7.9-1.6,7.9s-0.6,0.4-1.1,0.7c-4.5,2.4-6.6,3.8-7,3.4
		C271.7,166.2,270.2,157.4,270.1,156.5z"/>
	<path class="st2" d="M278.4,177.4c-1.3,1.2-3.2,2.2-4.7,2.5c-2.2,0.5-4.4-0.3-6.1-1.7c-0.8-0.6-1.3-0.9-1.7-1.8
		c-0.3-0.7,1.3-3.5,1.3-3.5c0.5,0.3,0.9,0.6,1.4,0.9c2.5,1.4,6.5,1.3,9,0c2-1,2.1-3.5,2.1-3.5S280.9,175,278.4,177.4z"/>
	<path class="st5" d="M271.2,148.5c-0.1-0.7-0.6-0.5-0.3-1.2c0.2-0.6,0.6-1.1,1-1.4c0.5-0.4,1-0.6,1.6-0.6c0.2,0,0.3,0.1,0.5,0.1
		c0.5,0,1.1-0.1,1.6,0c0.5,0.1,1.6-0.1,1.6,0.5c0,3.1-0.1,2.9,0,4c0.1,1.1-0.9,3-4.4,2.5C270,152,271.5,150.8,271.2,148.5z"/>
	<g>
		<g id="man_21_">
			<g>
				<g>
					<g>
						<path class="st6" d="M270,211.7c-0.3-0.6-1.3,0-1.7-0.1c-0.9-0.1-1.7-0.8-2.5-1.1c-0.9-0.3-1.8-0.4-2.7-0.6
							c-0.4-0.1-0.9-0.3-1.2-0.2c-1,0.2-1.3,2-1,2.9c0.2,0.5,0.6,0.8,1,1c0.6,0.3,1.5,0.5,2.2,0.5c0.8,0,1.5,0.1,2.2,0.4
							c0.9,0.5,1.6,1,2.7,0.9c1.1-0.1,1.8-0.9,1.6-2c-0.1-0.4-0.2-0.8-0.3-1.1C270.1,212,270.1,211.8,270,211.7z"/>
					</g>
				</g>
			</g>
		</g>
		<g id="man_12_">
			<g>
				<g>
					<g>
						<path class="st8" d="M270,211.4c-0.3-0.6-1.3,0-1.7-0.1c-0.9-0.1-1.7-0.8-2.5-1.1c-0.8-0.3-1.8-0.4-2.7-0.6
							c-0.4-0.1-0.8-0.1-1.1,0c-1,0.2-1.4,1.8-1,2.6c0.2,0.5,0.6,0.8,1,1c0.6,0.3,1.5,0.5,2.2,0.5c0.8,0,1.5,0.1,2.2,0.4
							c0.9,0.5,1.6,1,2.6,0.9c1.1-0.1,1.8-0.9,1.6-2c-0.1-0.4-0.2-0.8-0.3-1.1C270.2,211.7,270.1,211.5,270,211.4z"/>
					</g>
				</g>
			</g>
		</g>
		<path class="st5" d="M267.5,207.6c-0.1,0-0.2,0.1-0.3,0.2c-0.1,0.1-0.3,0.3-0.4,0.4c-0.2,0.4-0.2-0.1-0.3,0.4
			c0,0.3,0.2,2.2,0.3,2.5c0.1,0.6,0.8,1.3,2.3,1c0.8-0.1,1.1-0.5,1.1-1.2c0-1,0.2-2.2-0.3-2.9c-0.3-0.4-0.8-0.5-1.2-0.6
			c-0.4-0.1-0.8,0-1.1,0.1C267.6,207.6,267.5,207.6,267.5,207.6z"/>
		
			<linearGradient id="SVGID_00000149372475470800451030000015634386390336906677_" gradientUnits="userSpaceOnUse" x1="265.3393" y1="200.4122" x2="278.9365" y2="208.5705">
			<stop  offset="0" style="stop-color:#E8E8F5"/>
			<stop  offset="1" style="stop-color:#D4D4EB"/>
		</linearGradient>
		<path style="fill:url(#SVGID_00000149372475470800451030000015634386390336906677_);" d="M266.4,209.4c0.1,2.4,2.6,2.6,3.7,1.5
			c0.6-0.5,0.4-1.2,0.6-1.9c0.3-1.3,1-4.9,1.6-8.4c0.1-0.7,0.2-1.3,0.2-1.8c0.1-3.1-1.2-4.4-1.2-4.4c-0.2,0.6-0.6,1.4-1.2,1.6
			c-1.4,0.6-3.7,0.6-4.4-1C265.2,197.4,266.1,203.1,266.4,209.4z"/>
		<g>
			<path class="st7" d="M272.2,180.5c0,0.6-0.1,1.1-0.1,1.7c-0.1,1.9-0.2,4.5-0.4,6.5c-0.1,1.1-0.1,3-0.8,3.9
				c-0.7,0.9-1.7,1.3-2.8,1.2c-0.3,0-0.7-0.1-0.9-0.4c-0.6-0.6-1-0.4-1.1-1.2c-0.6-7.8-0.3-7.3-0.1-10.2c0-0.6-0.7-2-0.6-3.1
				c0.2-1.2,0.3-2.5,0.7-3.1C268,173,271.9,176.7,272.2,180.5z"/>
			
				<linearGradient id="SVGID_00000162327162105261830880000006459456530280710810_" gradientUnits="userSpaceOnUse" x1="265.2796" y1="184.497" x2="273.5107" y2="190.8574">
				<stop  offset="0" style="stop-color:#E8E8F5"/>
				<stop  offset="1" style="stop-color:#D4D4EB"/>
			</linearGradient>
			<path style="fill:url(#SVGID_00000162327162105261830880000006459456530280710810_);" d="M264.9,179c-0.7,5.7,0.2,13.3,0.2,13.3
				c0,0.7,0.4,3.3,4.2,2.6c2.2-0.4,2.4-2.2,2.6-4.1c1.2-8.8,0.9-8-0.1-9.2c-0.5-0.6-0.7-1.3-1.1-1.9
				C269.6,178.2,265.3,175,264.9,179z"/>
		</g>
	</g>
	<path class="st2" d="M273.6,136.5c-1.3,0-2.4,0.4-3.4,1v10.1c1,0.6,2.1,1,3.4,1c3.4,0,6.1-2.7,6.1-6.1
		C279.7,139.3,276.9,136.5,273.6,136.5z"/>
	<g>
		<path class="st2" d="M268.6,138.8c-0.5,0.7-0.8,1.5-0.8,2.4c0,0.4-0.3,4.3-0.2,4.7c0.1,0.2,0.3,2.8,1.2,3.5
			c0.2,0.2,0.5,0.2,0.8,0.3c0.4,0,2.1-0.4,2.7-0.6c0.7-0.3,1.7-0.6,2.2-1.2c0.4-0.4,0.8-1.2,1.1-2.3c0,0,0.8,0.1,1.4-0.8
			c0.8-1.2,1.1-2.2,1.1-3.4c0-1.1-0.1-2-0.7-2.9c-0.5-0.7-1.2-1.3-2-1.7c-1.2-0.5-2.6-0.6-3.9-0.2
			C270.4,137.1,269.3,137.8,268.6,138.8z"/>
	</g>
	<path class="st5" d="M274.5,136.6c-3.3-0.6-5.5,2.6-4.6,4.8c0.6,1.5,3,1.6,3.5,4.6c0.1,0.5-0.2,2.2,0,2.7c1,2.2,4-1.2,4.9-2.3
		c0.9-1.1,1.3-2.4,1.3-3.8c0-1.9-1-3.8-2.5-4.9C276.4,137.2,275.4,136.8,274.5,136.6z"/>
	<path class="st2" d="M272.5,138.2c-1.1,1.2-0.9,2.8,1.3,4.2c1.8,1.2,0.9,4.4,1.9,6.4c1-0.7,2.1-1.9,2.6-2.5
		c0.9-1.1,1.3-2.4,1.3-3.8c0-1.9-1-3.8-2.5-4.9c-0.5-0.4-1.2-0.7-1.9-0.9C274.2,137,273.3,137.4,272.5,138.2z"/>
	<g>
		<g>
			<g>
				<defs>
					<path id="SVGID_00000174560687634481210930000010211737557574815638_" d="M271,143.4l0.4-0.2c0.3-0.1,0.7-0.1,1.1,0.1l-0.4,0.2
						C271.6,143.3,271.2,143.2,271,143.4z"/>
				</defs>
				<use xlink:href="#SVGID_00000174560687634481210930000010211737557574815638_"  style="overflow:visible;fill:#7056A4;"/>
				<clipPath id="SVGID_00000063595835599910571450000002978243086275321012_">
					<use xlink:href="#SVGID_00000174560687634481210930000010211737557574815638_"  style="overflow:visible;"/>
				</clipPath>
				<g style="clip-path:url(#SVGID_00000063595835599910571450000002978243086275321012_);enable-background:new    ;">
					<path class="st7" d="M271,143.4l0.4-0.2c0.1-0.1,0.3-0.1,0.5-0.1l-0.4,0.2C271.2,143.3,271.1,143.3,271,143.4L271,143.4z"/>
					<path class="st7" d="M271.4,143.3l0.4-0.2c0.1,0,0.2,0,0.3,0.1l-0.4,0.2C271.6,143.3,271.5,143.3,271.4,143.3L271.4,143.3z"/>
					<path class="st7" d="M271.7,143.4l0.4-0.2c0.1,0,0.2,0.1,0.3,0.1l-0.4,0.2C271.9,143.5,271.8,143.4,271.7,143.4L271.7,143.4z"
						/>
				</g>
			</g>
			<g>
				<defs>
					<path id="SVGID_00000103236789995848341630000008812760159973197756_" d="M273.3,146.9l-0.4,0.2c0.3-0.1,0.5-0.5,0.5-0.9
						c0-1-0.6-2.1-1.4-2.6l0.4-0.2c0.8,0.5,1.4,1.7,1.4,2.6C273.8,146.4,273.6,146.7,273.3,146.9z"/>
				</defs>
				<use xlink:href="#SVGID_00000103236789995848341630000008812760159973197756_"  style="overflow:visible;fill:#7056A4;"/>
				<clipPath id="SVGID_00000054950187830915254210000011779205944838494598_">
					<use xlink:href="#SVGID_00000103236789995848341630000008812760159973197756_"  style="overflow:visible;"/>
				</clipPath>
				<g style="clip-path:url(#SVGID_00000054950187830915254210000011779205944838494598_);enable-background:new    ;">
					<path class="st7" d="M272,143.5l0.4-0.2c0,0,0,0,0,0L272,143.5C272,143.5,272,143.5,272,143.5L272,143.5z"/>
					<path class="st7" d="M272,143.5l0.4-0.2c0.1,0.1,0.2,0.2,0.3,0.2l-0.4,0.2C272.2,143.7,272.1,143.6,272,143.5L272,143.5z"/>
					<path class="st7" d="M272.3,143.8l0.4-0.2c0.1,0.1,0.2,0.2,0.3,0.3l-0.4,0.2C272.6,144,272.5,143.9,272.3,143.8L272.3,143.8z"
						/>
					<path class="st7" d="M272.7,144.1l0.4-0.2c0.2,0.3,0.4,0.6,0.5,0.9l-0.4,0.2C273.1,144.7,272.9,144.4,272.7,144.1L272.7,144.1z
						"/>
					<path class="st7" d="M273.2,145l0.4-0.2c0,0.1,0.1,0.3,0.1,0.4l-0.4,0.2C273.3,145.3,273.2,145.1,273.2,145L273.2,145z"/>
					<path class="st7" d="M273.3,145.4l0.4-0.2c0,0.1,0.1,0.3,0.1,0.4l-0.4,0.2C273.4,145.7,273.4,145.5,273.3,145.4L273.3,145.4z"
						/>
					<path class="st7" d="M273.4,145.8l0.4-0.2c0,0.1,0,0.2,0,0.4c0,0,0,0,0,0l-0.4,0.2c0,0,0,0,0,0
						C273.4,146,273.4,145.9,273.4,145.8L273.4,145.8z"/>
					<path class="st7" d="M273.4,146.2l0.4-0.2c0,0.1,0,0.2-0.1,0.4l-0.4,0.2C273.4,146.4,273.4,146.3,273.4,146.2L273.4,146.2z"/>
					<path class="st7" d="M273.7,145.5l0.4-0.2c-0.1,0.3-0.2,0.5-0.4,0.6l-0.4,0.2C273.4,146,273.6,145.8,273.7,145.5L273.7,145.5z"
						/>
				</g>
			</g>
			<g>
				<path class="st8" d="M272,143.5c0.8,0.5,1.4,1.7,1.4,2.6c0,0.9-0.7,1.3-1.5,0.8c-0.8-0.5-1.4-1.7-1.4-2.6
					C270.5,143.4,271.2,143,272,143.5z"/>
			</g>
		</g>
		<g>
			<path class="st7" d="M271.9,143.9c0.6,0.4,1.1,1.3,1,2c0,0.7-0.5,1-1.1,0.6c-0.6-0.4-1.1-1.3-1-2
				C270.8,143.8,271.3,143.6,271.9,143.9z"/>
		</g>
		<g>
			<g>
				<path class="st8" d="M271.9,144.5c0.3,0.2,0.6,0.7,0.6,1.1c0,0.4-0.3,0.6-0.6,0.3c-0.3-0.2-0.6-0.7-0.6-1.1
					C271.3,144.4,271.6,144.3,271.9,144.5z"/>
			</g>
		</g>
	</g>
	<path class="st5" d="M254.1,160.6c-0.4-0.2-0.7-0.4-1-0.6c-0.8-0.5-1.4,0-1.8,0.5c-0.4,0.6-0.6,1.3,0.3,2.2
		c0.2,0.2,0.4,0.4,0.7,0.6C252.2,162.3,253.1,161.2,254.1,160.6z"/>
	<path class="st7" d="M262.6,169.1c1-0.9,3.7-6.9,3.9-7.2c0.1-0.1,0.8-1.5,0.7-1.6l-3.8-2.6c-0.4,0.6-0.7,1.3-1,1.8
		c-0.5,0.9-2.7,6.7-2.8,7.8C259.3,169.8,261.4,170.1,262.6,169.1z"/>
	<path class="st2" d="M268.6,154.4c1.6,0.8,1.1,2.6,0.7,3.8c-0.5,1.6-1.5,3.1-2.6,4.4c-0.3,0.3-0.6,0.6-1,0.8
		c-0.3,0.2-0.7,0.2-1,0.3c-0.8,0.1-1.8,0.1-2.5-0.4c-0.2-0.2-0.4-0.4-0.5-0.6c-0.2-0.3-0.4-0.6-0.5-1c-0.1-0.6,0.2-1.2,0.5-1.7
		c0.7-1.3,1.6-2.6,2.5-3.8C265.3,155,266.6,153.4,268.6,154.4z"/>
	<path class="st2" d="M252.1,163.2c-0.7-0.6-0.3-1.3,0.1-2c0.4-0.6,1-1.2,2.2-0.6c2.5,1.2,3.4,1.8,5.5,2.8c0.5,0.2,1.5,0.6,1.8,1.1
		c0.3,0.5-0.6,0.9-0.6,1.5c0,0.3,0.4,1,0.6,1.3c0.4,0.7,0,2.1-0.7,2.1C259.5,169.6,254.4,165.2,252.1,163.2z"/>
	<g>
		<g class="st1">
			<g class="st1">
				<defs>
					<path id="SVGID_00000042737649421005747310000003667758097988089225_" class="st1" d="M267.2,143.8l0-1.9
						c0-0.5,0.4-1.1,1.1-1.5c1.4-0.8,3.8-0.8,5.2,0l0,1.9c-1.4-0.8-3.8-0.8-5.2,0C267.5,142.7,267.2,143.3,267.2,143.8z"/>
				</defs>
				<clipPath id="SVGID_00000178888809158265303460000000989085963186108062_">
					<use xlink:href="#SVGID_00000042737649421005747310000003667758097988089225_"  style="overflow:visible;"/>
				</clipPath>
			</g>
			<g>
				<polygon class="st9" points="268.4,143.5 268.4,145.4 268,145.7 268,143.8 				"/>
			</g>
			<g class="st1">
				<defs>
					<path id="SVGID_00000116221989185341625370000009334208245783548346_" class="st1" d="M266.6,143.8l0-1.9
						c0,0.6,0.4,1.3,1.3,1.8c0,0,0.1,0,0.1,0.1l0,1.9c0,0-0.1,0-0.1-0.1C267,145.1,266.6,144.5,266.6,143.8z"/>
				</defs>
				<clipPath id="SVGID_00000019653023864945536460000008849070180827828121_">
					<use xlink:href="#SVGID_00000116221989185341625370000009334208245783548346_"  style="overflow:visible;"/>
				</clipPath>
				<g style="clip-path:url(#SVGID_00000019653023864945536460000008849070180827828121_);">
					<g>
						<path class="st2" d="M268,143.8l0,1.9c0,0-0.1,0-0.1-0.1c-0.8-0.5-1.3-1.1-1.3-1.8l0-1.9c0,0.6,0.4,1.3,1.3,1.8
							C267.9,143.7,267.9,143.7,268,143.8L268,143.8z"/>
					</g>
				</g>
			</g>
			<g>
				<path class="st5" d="M267.8,143.7c0,0,0.1,0,0.1,0.1l0.4-0.2c0,0-0.1,0-0.1-0.1c-1.2-0.7-1.4-1.7-0.7-2.5
					c-0.1-0.1-0.3-0.2-0.4-0.3C266.2,141.7,266.5,142.9,267.8,143.7z"/>
			</g>
		</g>
	</g>
	<path class="st5" d="M270,195.3l0,3.9c0,0.4,0.3,0.6,0.6,0.4l0,0c0.3-0.2,0.6-0.7,0.6-1.1l0-4.1L270,195.3z"/>
	<path class="st5" d="M270.2,210.8v-2.7c0-0.3-0.2-0.4-0.4-0.3l0,0c-0.2,0.1-0.4,0.5-0.4,0.8v2.9l0.6-0.2L270.2,210.8z"/>
	<path class="st5" d="M279.1,207l0-2.5c0-0.3-0.2-0.4-0.4-0.2l0,0c-0.2,0.1-0.4,0.4-0.4,0.7l0,2.6l0.5-0.2L279.1,207z"/>
	<g>
		<g>
			<g>
				<defs>
					<path id="SVGID_00000150813453892831337840000012548999849712553346_" d="M264.7,193.6l0.4-0.2c0.3-0.1,0.6-0.1,1.1,0.1
						l-0.4,0.2C265.3,193.5,265,193.4,264.7,193.6z"/>
				</defs>
				<use xlink:href="#SVGID_00000150813453892831337840000012548999849712553346_"  style="overflow:visible;fill:#4E2D88;"/>
				<clipPath id="SVGID_00000117635348550806169980000001197748144499730878_">
					<use xlink:href="#SVGID_00000150813453892831337840000012548999849712553346_"  style="overflow:visible;"/>
				</clipPath>
				<g style="clip-path:url(#SVGID_00000117635348550806169980000001197748144499730878_);enable-background:new    ;">
					<path class="st5" d="M264.7,193.6l0.4-0.2c0.1-0.1,0.3-0.1,0.5-0.1l-0.4,0.2C265,193.5,264.8,193.5,264.7,193.6L264.7,193.6z"
						/>
					<path class="st5" d="M265.2,193.5l0.4-0.2c0.1,0,0.2,0,0.3,0.1l-0.4,0.2C265.4,193.5,265.3,193.5,265.2,193.5L265.2,193.5z"/>
					<path class="st5" d="M265.5,193.6l0.4-0.2c0.1,0,0.2,0.1,0.3,0.1l-0.4,0.2C265.6,193.7,265.6,193.6,265.5,193.6L265.5,193.6z"
						/>
				</g>
			</g>
			<g>
				<defs>
					<path id="SVGID_00000069374606266856933510000000409075607757506985_" d="M267,197.1l-0.4,0.2c0.3-0.1,0.4-0.5,0.5-0.9
						c0-0.9-0.6-2.1-1.4-2.6l0.4-0.2c0.8,0.5,1.4,1.7,1.4,2.6C267.5,196.6,267.3,196.9,267,197.1z"/>
				</defs>
				<use xlink:href="#SVGID_00000069374606266856933510000000409075607757506985_"  style="overflow:visible;fill:#4E2D88;"/>
				<clipPath id="SVGID_00000144329811909254640860000005791480556445070524_">
					<use xlink:href="#SVGID_00000069374606266856933510000000409075607757506985_"  style="overflow:visible;"/>
				</clipPath>
				<g style="clip-path:url(#SVGID_00000144329811909254640860000005791480556445070524_);enable-background:new    ;">
					<path class="st5" d="M265.7,193.7l0.4-0.2c0,0,0,0,0,0L265.7,193.7C265.8,193.7,265.7,193.7,265.7,193.7L265.7,193.7z"/>
					<path class="st5" d="M265.8,193.7l0.4-0.2c0.1,0.1,0.2,0.2,0.3,0.2l-0.4,0.2C266,193.9,265.9,193.8,265.8,193.7L265.8,193.7z"
						/>
					<path class="st5" d="M266.1,194l0.4-0.2c0.1,0.1,0.2,0.2,0.3,0.3l-0.4,0.2C266.3,194.2,266.2,194.1,266.1,194L266.1,194z"/>
					<path class="st5" d="M266.4,194.3l0.4-0.2c0.2,0.3,0.4,0.6,0.5,0.9l-0.4,0.2C266.8,194.9,266.6,194.6,266.4,194.3L266.4,194.3z
						"/>
					<path class="st5" d="M266.9,195.2l0.4-0.2c0,0.1,0.1,0.2,0.1,0.4l-0.4,0.2C267,195.5,267,195.4,266.9,195.2L266.9,195.2z"/>
					<path class="st5" d="M267,195.6l0.4-0.2c0,0.1,0.1,0.3,0.1,0.4l-0.4,0.2C267.1,195.9,267.1,195.7,267,195.6L267,195.6z"/>
					<path class="st5" d="M267.1,196l0.4-0.2c0,0.1,0,0.2,0,0.4c0,0,0,0,0,0l-0.4,0.2c0,0,0,0,0,0
						C267.1,196.2,267.1,196.1,267.1,196L267.1,196z"/>
					<path class="st5" d="M267.1,196.4l0.4-0.2c0,0.1,0,0.2-0.1,0.4l-0.4,0.2C267.1,196.6,267.1,196.5,267.1,196.4L267.1,196.4z"/>
					<path class="st5" d="M267.4,195.7l0.4-0.2c-0.1,0.3-0.2,0.5-0.4,0.6l-0.4,0.2C267.2,196.2,267.3,196,267.4,195.7L267.4,195.7z"
						/>
				</g>
			</g>
			<g>
				<path class="st105" d="M265.7,193.7c0.8,0.5,1.4,1.7,1.4,2.6c0,0.9-0.7,1.3-1.5,0.8c-0.8-0.5-1.4-1.7-1.4-2.6
					C264.3,193.6,264.9,193.2,265.7,193.7z"/>
			</g>
		</g>
		<g>
			<path class="st5" d="M265.7,194.2c0.6,0.4,1.1,1.2,1,1.9c0,0.7-0.5,1-1.1,0.6c-0.6-0.4-1.1-1.2-1-1.9
				C264.6,194.1,265.1,193.8,265.7,194.2z"/>
		</g>
		<g>
			<g>
				<path class="st2" d="M265.6,194.7c0.3,0.2,0.6,0.7,0.6,1.1c0,0.4-0.3,0.5-0.6,0.3c-0.3-0.2-0.6-0.7-0.6-1.1
					C265,194.6,265.3,194.5,265.6,194.7z"/>
			</g>
		</g>
	</g>
	<g>
		<g>
			<g>
				<defs>
					<path id="SVGID_00000094599616465407500250000009781618818100737466_" d="M259,166.1l0.4-0.2c0.3-0.1,0.6-0.1,1.1,0.1l-0.4,0.2
						C259.6,165.9,259.2,165.9,259,166.1z"/>
				</defs>
				<use xlink:href="#SVGID_00000094599616465407500250000009781618818100737466_"  style="overflow:visible;fill:#4E2D88;"/>
				<clipPath id="SVGID_00000051367009109024965260000009962197348315416236_">
					<use xlink:href="#SVGID_00000094599616465407500250000009781618818100737466_"  style="overflow:visible;"/>
				</clipPath>
				<g style="clip-path:url(#SVGID_00000051367009109024965260000009962197348315416236_);enable-background:new    ;">
					<path class="st5" d="M259,166.1l0.4-0.2c0.1-0.1,0.3-0.1,0.5-0.1l-0.4,0.2C259.3,166,259.1,166,259,166.1L259,166.1z"/>
					<path class="st5" d="M259.4,166l0.4-0.2c0.1,0,0.2,0,0.3,0.1l-0.4,0.2C259.6,166,259.5,166,259.4,166L259.4,166z"/>
					<path class="st5" d="M259.7,166.1l0.4-0.2c0.1,0,0.2,0.1,0.3,0.1l-0.4,0.2C259.9,166.1,259.8,166.1,259.7,166.1L259.7,166.1z"
						/>
				</g>
			</g>
			<g>
				<defs>
					<path id="SVGID_00000000201253435496619670000018339898835640468097_" d="M261.3,169.6l-0.4,0.2c0.3-0.1,0.4-0.5,0.5-0.9
						c0-0.9-0.6-2.1-1.4-2.6l0.4-0.2c0.8,0.5,1.4,1.7,1.4,2.6C261.7,169.1,261.6,169.4,261.3,169.6z"/>
				</defs>
				<use xlink:href="#SVGID_00000000201253435496619670000018339898835640468097_"  style="overflow:visible;fill:#4E2D88;"/>
				<clipPath id="SVGID_00000042701649512855140310000001445800794338172084_">
					<use xlink:href="#SVGID_00000000201253435496619670000018339898835640468097_"  style="overflow:visible;"/>
				</clipPath>
				<g style="clip-path:url(#SVGID_00000042701649512855140310000001445800794338172084_);enable-background:new    ;">
					<path class="st5" d="M260,166.2l0.4-0.2c0,0,0,0,0,0L260,166.2C260,166.2,260,166.2,260,166.2L260,166.2z"/>
					<path class="st5" d="M260,166.2l0.4-0.2c0.1,0.1,0.2,0.2,0.3,0.2l-0.4,0.2C260.2,166.4,260.1,166.3,260,166.2L260,166.2z"/>
					<path class="st5" d="M260.3,166.5l0.4-0.2c0.1,0.1,0.2,0.2,0.3,0.3l-0.4,0.2C260.5,166.7,260.4,166.6,260.3,166.5L260.3,166.5z
						"/>
					<path class="st5" d="M260.6,166.8l0.4-0.2c0.2,0.3,0.4,0.6,0.5,0.9l-0.4,0.2C261.1,167.4,260.9,167,260.6,166.8L260.6,166.8z"
						/>
					<path class="st5" d="M261.2,167.7l0.4-0.2c0,0.1,0.1,0.2,0.1,0.4l-0.4,0.2C261.3,167.9,261.2,167.8,261.2,167.7L261.2,167.7z"
						/>
					<path class="st5" d="M261.3,168.1l0.4-0.2c0,0.1,0.1,0.3,0.1,0.4l-0.4,0.2C261.4,168.3,261.3,168.2,261.3,168.1L261.3,168.1z"
						/>
					<path class="st5" d="M261.4,168.5l0.4-0.2c0,0.1,0,0.2,0,0.4c0,0,0,0,0,0l-0.4,0.2c0,0,0,0,0,0
						C261.4,168.7,261.4,168.6,261.4,168.5L261.4,168.5z"/>
					<path class="st5" d="M261.4,168.8l0.4-0.2c0,0.1,0,0.2-0.1,0.4l-0.4,0.2C261.4,169.1,261.4,169,261.4,168.8L261.4,168.8z"/>
					<path class="st5" d="M261.7,168.2l0.4-0.2c-0.1,0.3-0.2,0.5-0.4,0.6l-0.4,0.2C261.4,168.6,261.6,168.5,261.7,168.2L261.7,168.2
						z"/>
				</g>
			</g>
			<g>
				<path class="st9" d="M260,166.2c0.8,0.5,1.4,1.7,1.4,2.6c0,0.9-0.7,1.3-1.5,0.8c-0.8-0.5-1.4-1.7-1.4-2.6
					C258.5,166,259.2,165.7,260,166.2z"/>
			</g>
		</g>
		<g>
			<path class="st5" d="M259.9,166.6c0.6,0.4,1.1,1.2,1,1.9c0,0.7-0.5,1-1.1,0.6c-0.6-0.4-1.1-1.2-1-1.9
				C258.8,166.5,259.3,166.3,259.9,166.6z"/>
		</g>
		<g>
			<g>
				<path class="st9" d="M259.9,167.2c0.3,0.2,0.6,0.7,0.6,1.1c0,0.4-0.3,0.5-0.6,0.3c-0.3-0.2-0.6-0.7-0.6-1.1
					C259.3,167.1,259.6,167,259.9,167.2z"/>
			</g>
		</g>
	</g>
	<g>
		<g>
			<g>
				<defs>
					<path id="SVGID_00000129898562970992270380000002563035495053537152_" d="M273.7,189.7l0.3-0.2c0.3-0.1,0.6-0.1,1,0.1l-0.3,0.2
						C274.3,189.6,274,189.5,273.7,189.7z"/>
				</defs>
				<use xlink:href="#SVGID_00000129898562970992270380000002563035495053537152_"  style="overflow:visible;fill:#4E2D88;"/>
				<clipPath id="SVGID_00000139985843046029692670000012361682854409311164_">
					<use xlink:href="#SVGID_00000129898562970992270380000002563035495053537152_"  style="overflow:visible;"/>
				</clipPath>
				<g style="clip-path:url(#SVGID_00000139985843046029692670000012361682854409311164_);enable-background:new    ;">
					<path class="st5" d="M273.7,189.7l0.3-0.2c0.1-0.1,0.3-0.1,0.4-0.1l-0.3,0.2C274,189.6,273.8,189.6,273.7,189.7L273.7,189.7z"
						/>
					<path class="st5" d="M274.1,189.6l0.3-0.2c0.1,0,0.2,0,0.3,0.1l-0.3,0.2C274.3,189.6,274.2,189.6,274.1,189.6L274.1,189.6z"/>
					<path class="st5" d="M274.4,189.7l0.3-0.2c0.1,0,0.2,0.1,0.3,0.1l-0.3,0.2C274.6,189.7,274.5,189.7,274.4,189.7L274.4,189.7z"
						/>
				</g>
			</g>
			<g>
				<defs>
					<path id="SVGID_00000098900517282132016910000015594994588761000628_" d="M275.9,192.9l-0.3,0.2c0.3-0.1,0.4-0.4,0.4-0.9
						c0-0.9-0.5-1.9-1.3-2.4l0.3-0.2c0.7,0.5,1.3,1.5,1.3,2.4C276.3,192.5,276.1,192.7,275.9,192.9z"/>
				</defs>
				<use xlink:href="#SVGID_00000098900517282132016910000015594994588761000628_"  style="overflow:visible;fill:#4E2D88;"/>
				<clipPath id="SVGID_00000133490019894995958350000014267333643132151432_">
					<use xlink:href="#SVGID_00000098900517282132016910000015594994588761000628_"  style="overflow:visible;"/>
				</clipPath>
				<g style="clip-path:url(#SVGID_00000133490019894995958350000014267333643132151432_);enable-background:new    ;">
					<path class="st5" d="M274.7,189.8l0.3-0.2c0,0,0,0,0,0L274.7,189.8C274.7,189.8,274.7,189.8,274.7,189.8L274.7,189.8z"/>
					<path class="st5" d="M274.7,189.8l0.3-0.2c0.1,0.1,0.2,0.1,0.3,0.2L275,190C274.9,189.9,274.8,189.9,274.7,189.8L274.7,189.8z"
						/>
					<path class="st5" d="M275,190l0.3-0.2c0.1,0.1,0.2,0.2,0.3,0.3l-0.3,0.2C275.2,190.2,275.1,190.1,275,190L275,190z"/>
					<path class="st5" d="M275.3,190.3l0.3-0.2c0.2,0.3,0.4,0.5,0.5,0.9l-0.3,0.2C275.6,190.9,275.5,190.6,275.3,190.3L275.3,190.3z
						"/>
					<path class="st5" d="M275.8,191.2l0.3-0.2c0,0.1,0.1,0.2,0.1,0.3l-0.3,0.2C275.8,191.4,275.8,191.3,275.8,191.2L275.8,191.2z"
						/>
					<path class="st5" d="M275.9,191.5l0.3-0.2c0,0.1,0.1,0.2,0.1,0.4l-0.3,0.2C275.9,191.8,275.9,191.6,275.9,191.5L275.9,191.5z"
						/>
					<path class="st5" d="M275.9,191.9l0.3-0.2c0,0.1,0,0.2,0,0.3c0,0,0,0,0,0l-0.3,0.2c0,0,0,0,0,0C276,192.1,276,192,275.9,191.9
						L275.9,191.9z"/>
					<path class="st5" d="M276,192.2l0.3-0.2c0,0.1,0,0.2,0,0.3l-0.3,0.2C275.9,192.4,276,192.3,276,192.2L276,192.2z"/>
					<path class="st5" d="M276.2,191.6l0.4-0.2c-0.1,0.3-0.2,0.4-0.4,0.5l-0.4,0.2C276,192,276.1,191.9,276.2,191.6L276.2,191.6z"/>
				</g>
			</g>
			<g>
				<path class="st105" d="M274.7,189.8c0.7,0.5,1.3,1.5,1.3,2.4c0,0.9-0.7,1.2-1.4,0.7c-0.7-0.5-1.3-1.5-1.3-2.4
					C273.3,189.7,274,189.3,274.7,189.8z"/>
			</g>
		</g>
		<g>
			<path class="st5" d="M274.6,190.2c0.5,0.3,1,1.1,0.9,1.8c0,0.6-0.5,0.9-1,0.5c-0.5-0.3-1-1.1-0.9-1.8
				C273.6,190.1,274.1,189.8,274.6,190.2z"/>
		</g>
		<g>
			<path class="st105" d="M274.6,190.7c0.3,0.2,0.6,0.7,0.5,1c0,0.4-0.3,0.5-0.6,0.3c-0.3-0.2-0.6-0.7-0.5-1
				C274,190.6,274.3,190.5,274.6,190.7z"/>
		</g>
	</g>
	<polygon class="st5" points="263.8,159.7 264.1,162.8 262.2,160.9 	"/>
	<path class="st5" d="M275.1,155.6c0,0.8,0.5,1.1,1.2,0.7c0.7-0.4,1.2-1.3,1.2-2.1c0-0.8-0.5-1.1-1.2-0.7
		C275.7,153.9,275.1,154.8,275.1,155.6z"/>
	<path class="st5" d="M275.4,158.8c0,0.6,0.4,0.8,0.9,0.5c0.5-0.3,0.9-1,0.9-1.6c0-0.6-0.4-0.8-0.9-0.5
		C275.8,157.5,275.4,158.2,275.4,158.8z"/>
	<path class="st5" d="M275.8,161.3c0,0.3,0.2,0.5,0.5,0.3s0.5-0.6,0.5-0.9c0-0.3-0.2-0.5-0.5-0.3C276,160.6,275.8,161,275.8,161.3z"
		/>
</g>
</svg>
