<svg width="883" height="610" fill="none" xmlns="http://www.w3.org/2000/svg"><g clip-path="url(#clip0_188_4729)"><path d="M577.605 0H272.208v610h305.397V0z" fill="#3D8F58"/><path d="M883.002 0H577.605v610h305.397V0z" fill="#FFB500"/><path d="M751.3 506.297v3.97h-18.248a2.052 2.052 0 0 1-2.061-2.061v-9.238h13.743l-.077-1.451c0-.611.84-.84 1.069-.305l1.527 3.206a4.2 4.2 0 0 0 1.832 1.985c.688.382 1.222.993 1.604 1.604.458.763.611 1.527.611 2.29zm-49.78-7.329v9.238a2.053 2.053 0 0 1-2.062 2.061h-18.247v-3.97c0-.763.229-1.527.611-2.214a4.046 4.046 0 0 1 1.603-1.603c.764-.458 1.451-1.146 1.833-1.985l1.527-3.207c.229-.535 1.145-.382 1.068.305l-.076 1.451h13.743v-.076z" fill="#242729"/><path d="M701.52 507.595v.611a2.053 2.053 0 0 1-2.062 2.061h-18.247v-2.672h20.309zm49.78 0v2.672h-18.248a2.052 2.052 0 0 1-2.061-2.061v-.611H751.3z" fill="#E05332"/><path d="M71.399 426.772c2.74-12.004-1.005-23.096-8.363-24.775-7.358-1.68-15.544 6.69-18.284 18.693-2.74 12.004 1.005 23.096 8.363 24.776 7.358 1.679 15.544-6.69 18.284-18.694z" fill="#FFB500"/><path d="M797.812 194.261h-746v170h746v-170z" fill="#FFFFFB"/><path d="M65.226 308.934h25.577m-25.577 8.551H83.09" stroke="#242729" stroke-width="1.527" stroke-miterlimit="10"/><path d="M272.208 211.818H132.947v134.68h139.261v-134.68z" fill="#FFDDA6"/><path d="M272.208 219.835h-131.32v93.222h131.32v-93.222z" fill="#FFFFFB"/><path d="M272.208 297.558h-39.396c-.84 0-1.527-.687-1.527-1.527v-12.063c0-.84.687-1.527 1.527-1.527h39.396v15.117z" fill="#242729"/><path d="M272.208 274.043h-39.396c-.84 0-1.527-.687-1.527-1.527v-12.063c0-.84.687-1.527 1.527-1.527h39.396v15.117z" fill="#5F67FA"/><path d="M272.208 250.451h-39.396c-.84 0-1.527-.687-1.527-1.527v-12.063c0-.84.687-1.527 1.527-1.527h39.396v15.117z" fill="#2F6F44"/><path d="M207.159 250.451h-53.674c-.84 0-1.527-.687-1.527-1.527v-12.063c0-.84.687-1.527 1.527-1.527h53.674c.84 0 1.527.687 1.527 1.527v12.063c0 .84-.687 1.527-1.527 1.527z" fill="#F48024"/><path d="M180.36 499.807l-1.45 7.712c0 .152-.077.305-.077.381 0 1.222.993 2.215 2.214 2.215h7.024c1.375 0 2.596-.611 3.436-1.68l6.261-8.093c.84-1.069.992-2.443.458-3.665l-.535-1.221c-.305-.764-1.145-1.298-1.985-1.298h-9.696l-5.65 5.649z" fill="#898989"/><path d="M197.157 499.807h-16.873l-10.231-26.416a68.562 68.562 0 0 1-3.436-12.14 70.23 70.23 0 0 0-6.337-18.705l-17.102-33.441-1.909 39.09 8.399 51.612h-19.011l-7.406-33.746c-.687-2.978-.993-5.955-.993-9.009 0-1.833.153-3.665.382-5.421.84-6.184.229-12.445-1.679-18.4l-2.52-7.864c-4.352-13.438-6.413-27.486-6.184-41.534l.229-6.184h57.033l9.238 40.617 18.4 81.541z" fill="#343BBA"/><path d="M178.681 418.267c-3.589-3.284-7.254-6.49-11.071-9.391-7.253-5.498-15.27-10.231-24.05-12.98-6.032-1.909-12.369-2.748-18.477-4.733-4.733-1.527-9.467-3.894-12.979-7.406l.229-6.185h57.033l9.315 40.695z" fill="#2A2D6E"/><path d="M179.444 348.407l-1.145 1.985c-.611 1.145-1.527 1.985-2.596 2.596a7.299 7.299 0 0 1-1.603.687c-1.222.305-2.52.382-3.818 0l-10.46-3.054-1.756-.534-2.061-.611 1.069-53.521 12.292 5.421a9.91 9.91 0 0 1 5.65 7.406l5.344 35.044c.153 1.603-.152 3.207-.916 4.581z" fill="#3D8F58"/><path d="M175.703 352.988a7.299 7.299 0 0 1-1.603.687c-1.222.305-2.52.382-3.818 0l-10.46-3.054-1.756-.534 8.628-44.894c6.566 15.041 9.696 31.533 9.009 47.795z" fill="#2F6F44"/><path d="M122.411 352.301l-6.948-3.436a7.364 7.364 0 0 1-3.054-3.054l-6.871-14.277-.229-.382c-1.069-2.214-1.603-4.581-1.451-7.024l.229-6.643c.153-3.893 1.985-7.558 5.116-9.925l10.689-7.788 2.366 50.544.153 1.985z" fill="#3D8F58"/><path d="M122.411 352.301l-6.948-3.436a7.364 7.364 0 0 1-3.054-3.054l-6.871-14.277 6.642-15.117 10.079 33.822.152 2.062z" fill="#2F6F44"/><path d="M149.897 266.255c0 .611-.076 1.146-.306 1.68l-4.275 11.529a16.268 16.268 0 0 0-.916 4.657v.611l-.077 1.374v.076l-.305 8.475-18.324 1.68.458-7.33.077-1.069.076-1.832.076-.992c.077-1.604-.305-3.207-1.069-4.658l-2.824-4.962c-1.222-2.215-1.833-4.81-1.604-7.33l.382-4.352c.076-.992.076-2.061-.076-3.054l-.077-.458c-.381-2.367.687-4.657 2.596-6.032l3.741-2.595a6.295 6.295 0 0 1 6.032-.611c.763.305 1.603.534 2.443.534.534 0 1.145-.076 1.68-.229l2.367-.687c2.137-.611 4.428.382 5.573 2.291l1.756 3.054c.458.763.687 1.603.687 2.443v1.832c0 1.069.382 2.138.993 2.978a5.26 5.26 0 0 1 .916 2.977z" fill="#E8A358"/><path d="M122.411 299.696l2.596-7.787a3.37 3.37 0 0 1 2.52-2.215l14.201-2.519c1.297-.229 2.672.382 3.359 1.451l4.657 7.329-27.333 3.741z" fill="#3D8F58"/><path d="M170.969 377.267c0 1.527-.763 3.054-2.214 3.894-.687.458-1.527.687-2.367.687h-11.299c-.84 0-1.604 0-2.367.076h-.458a40.55 40.55 0 0 0-6.108.917l-6.643 1.527c-.152 0-.305.076-.458.076a35.105 35.105 0 0 1-23.439-3.207c-3.283-1.679-5.039-5.344-4.275-8.933l3.893-19.24c.917-4.504.306-9.162-1.756-13.208l-3.054-6.108a26.013 26.013 0 0 1-2.519-8.169c-1.069-7.941 1.68-15.957 7.329-21.607l1.985-2.062a21.004 21.004 0 0 1 10.613-5.726l15.728-3.283a13.525 13.525 0 0 1 8.475.916l8.78 3.894c3.436 1.527 5.879 4.581 6.719 8.17l.839 3.588c2.291 10.078 2.902 20.538 1.985 30.845l-2.366 24.966c-.077.458-.077.916-.077 1.375 0 2.901.84 5.649 2.367 8.093.458.763.687 1.679.687 2.519z" fill="#5EBA7D"/><path d="M786.649 219.453h-59.247v75.739h59.247v-75.739z" fill="#F0F1F7"/><path d="M743.817 276.333h26.341m-26.341 8.551h26.341" stroke="#242729" stroke-width="1.527" stroke-miterlimit="10"/><path d="M757.026 267.858c10.921 0 19.774-8.853 19.774-19.774 0-10.921-8.853-19.774-19.774-19.774-10.921 0-19.775 8.853-19.775 19.774 0 10.921 8.854 19.774 19.775 19.774z" fill="#FFFFFB"/><path d="M752.674 259.002l-8.857-8.78 4.352-4.352 4.505 4.504 13.132-13.208 4.352 4.352-17.484 17.484z" fill="#F48024"/><path d="M786.649 211.818h-59.247v7.635h59.247v-7.635z" fill="#5F67FA"/><path d="M714.805 211.818h-137.2v84.824h137.2v-84.824z" fill="#F0F1F7"/><path d="M670.675 240.144h-.077c-.305-9.009-7.711-16.186-16.873-16.186-7.482 0-13.819 4.886-16.033 11.605-1.298-.687-2.749-1.145-4.276-1.145-3.893 0-7.176 2.595-8.245 6.184-1.069-.306-2.214-.382-3.436-.382-7.711 0-14.048 6.261-14.048 14.048 0 7.788 6.26 14.049 14.048 14.049h48.94c7.711 0 14.048-6.261 14.048-14.049 0-7.787-6.337-14.124-14.048-14.124z" fill="#3D8F58"/><path d="M665.865 256.406l-18.171-18.171-18.171 18.171h10.994v30.387h14.43v-30.387h10.918z" fill="#FFFFFB"/><path d="M102.484 167.841h-73.6v57.415h73.6v-57.415z" fill="#FFDDA6"/><path d="M102.484 160.13h-73.6v7.711h73.6v-7.711z" fill="#242729"/><path d="M197.004 510.267V395.133h52.758v115.134" fill="#FFDDA6"/><path d="M27.59 441.513c5.623-3.247 6.285-12.628 1.478-20.954s-13.262-12.443-18.886-9.196c-5.623 3.247-6.285 12.628-1.478 20.954s13.262 12.443 18.886 9.196z" fill="#2F6F44"/><path d="M80.906 439.054c4.085-4.085 4.64-10.151 1.242-13.55-3.4-3.4-9.466-2.844-13.55 1.241-4.086 4.085-4.642 10.152-1.243 13.551 3.4 3.399 9.466 2.843 13.551-1.242z" fill="#343BBA"/><path d="M86.366 443.672c9.386-3.782 16.114-9.037 15.026-11.735-1.087-2.699-9.578-1.82-18.964 1.963-9.386 3.783-16.114 9.037-15.026 11.736 1.087 2.698 9.578 1.819 18.964-1.964z" fill="#FFFFFB"/><path d="M107.861 465.783c1.273-4.548-4.641-10.178-13.21-12.576-8.567-2.398-16.544-.655-17.817 3.893-1.273 4.548 4.64 10.179 13.209 12.576 8.568 2.398 16.545.655 17.818-3.893z" fill="#F48A16"/><path d="M17.813 424.909c9.085 7.635 15.27 18.171 19.545 29.242 4.2 11.07 6.566 22.752 8.857 34.357m45.81-27.562c-8.4-3.97-18.859-2.901-26.265 2.672-7.406 5.573-11.376 15.346-9.925 24.508m19.316-56.422c-10.307 14.888-17.178 32.067-20.003 49.932m28.86-42.984c-19.393 8.627-33.212 28.631-34.51 49.856" stroke="#242729" stroke-width="1.527" stroke-miterlimit="10"/><path d="M45.275 436.736c2.094-.242 3.117-6.279 2.285-13.483-.833-7.205-3.206-12.85-5.3-12.608-2.095.243-3.117 6.279-2.285 13.484.833 7.205 3.206 12.849 5.3 12.607z" fill="#343BBA"/><path d="M43.848 423.687a431.606 431.606 0 0 1 4.123 71.616m10.383-70.928c-3.894 21.606-7.024 42.679-8.016 65.354" stroke="#242729" stroke-width="1.527" stroke-miterlimit="10"/><path d="M227.544 510.038h-45.199c-3.359 0-6.108-2.748-6.108-6.108v-45.198c0-3.36 2.749-6.108 6.108-6.108h45.199c3.359 0 6.108 2.748 6.108 6.108v45.198c0 3.36-2.749 6.108-6.108 6.108z" fill="#2F6F44"/><path d="M577.605 227.164H394.52v119.334h183.085V227.164z" fill="#F0F1F7"/><path d="M527.673 238.922h-121.09v95.818h121.09v-95.818z" fill="#FFFFFB"/><path d="M516.373 249.458h-98.49v32.754h98.49v-32.754z" fill="#DCF0E2"/><path d="M376.578 272.287h-86.733v122.846h86.733V272.287z" fill="#FFDDA6"/><path d="M346.267 280.762h-46.039v6.031h46.039v-6.031z" fill="#F48024"/><path d="M326.798 299.238h-26.57v6.032h26.57v-6.032z" fill="#FFB500"/><path d="M319.163 311.301h-18.935v6.032h18.935v-6.032z" fill="#242729"/><path d="M334.433 323.441h-34.205v6.031h34.205v-6.031z" fill="#2F6F44"/><path d="M334.433 335.504h-34.205v6.031h34.205v-6.031z" fill="#343BBA"/><path d="M311.528 347.644h-11.3v6.031h11.3v-6.031z" fill="#FFFFFB"/><path d="M318.018 380.474h-14.812a3.063 3.063 0 0 1-3.054-3.054 3.063 3.063 0 0 1 3.054-3.054h14.812a3.063 3.063 0 0 1 3.054 3.054c0 1.756-1.374 3.054-3.054 3.054z" fill="#5F67FA"/><path d="M344.129 380.474h-14.811a3.063 3.063 0 0 1-3.054-3.054 3.063 3.063 0 0 1 3.054-3.054h14.811a3.063 3.063 0 0 1 3.054 3.054c0 1.756-1.374 3.054-3.054 3.054zm22.294-81.236h-33.441v6.032h33.441v-6.032z" fill="#FFFFFB"/><path d="M359.552 311.301h-34.205v6.032h34.205v-6.032z" fill="#5F67FA"/><path d="M351.917 323.441h-11.3v6.031h11.3v-6.031z" fill="#FFB500"/><path d="M367.187 335.504h-26.57v6.031h26.57v-6.031z" fill="#2F6F44"/><path d="M354.971 347.644h-37.259v6.031h37.259v-6.031z" fill="#FFB500"/><path d="M228.918 391.086h-9.238v-1.527h9.238a6.286 6.286 0 0 0 6.108-4.81c.382-1.374.077-2.825-.84-3.97-.916-1.145-2.214-1.756-3.664-1.756h-7.177v-1.527h7.177c1.908 0 3.664.84 4.886 2.367 1.222 1.527 1.603 3.436 1.145 5.344-.916 3.436-4.046 5.879-7.635 5.879z" fill="#242729"/><path d="M224.49 395.133h-12.292c-1.527 0-2.825-1.298-2.825-2.825V375.74h17.866v16.568c.076 1.527-1.146 2.825-2.749 2.825z" fill="#FFFFFB"/><path d="M428.571 391.086v15.575c0 2.291-.152 4.505-.534 6.719a16.747 16.747 0 0 1-.382 1.909l-1.145 5.192c-.84 3.97-1.145 8.093-.763 12.139l.458 4.963-8.704 11.681-5.955-35.808-1.985-11.834 12.444-17.407 6.566 6.871z" fill="#FFDDA6"/><path d="M428.571 391.086v15.575c0 2.291-.152 4.505-.534 6.719h-16.491l-1.985-11.834 12.444-17.408 6.566 6.948z" fill="#F48024"/><path d="M431.167 446.516l-.381 1.679v.077l-1.375 6.718-.61 2.749a12.15 12.15 0 0 1-2.902 5.65c-1.45 1.527-3.283 2.748-5.421 3.359-.381.077-.687.153-1.068.153-.84 0-1.604-.229-2.291-.764-.458-.305-.84-.687-1.069-1.221-.305-.611-.534-1.222-.534-1.909v-2.367c0-3.894.534-7.787 1.527-11.605l2.596-9.773a4.054 4.054 0 0 1 1.45-2.214c.687-.534 1.604-.84 2.52-.84 1.221 0 2.443.535 3.206 1.527l3.131 3.894c1.145 1.375 1.603 3.207 1.221 4.887z" fill="#242729"/><path d="M430.786 448.195s0 .077 0 0l-1.451 6.795-.611 2.749a12.14 12.14 0 0 1-2.901 5.65c-1.451 1.527-3.283 2.748-5.421 3.359-.382.077-.687.153-1.069.153-.84 0-1.603-.229-2.29-.764l5.344-16.873c.306-.916.764-1.832 1.451-2.596a6.767 6.767 0 0 1 2.29-1.832 3.477 3.477 0 0 1 1.527-.382c.764 0 1.527.306 2.138.84.84.764 1.222 1.832.993 2.901z" fill="#FFFFFB"/><path d="M577.605 441.629h-81.388v68.409h81.388v-68.409z" fill="#FFDDA6"/><path d="M651.053 409.486h-73.448v100.781h73.448V409.486z" fill="#F48024"/><path d="M645.021 416.205h-67.416v25.424h67.416v-25.424zm0 30.998h-67.416v25.424h67.416v-25.424zm0 30.921h-67.416v25.425h67.416v-25.425z" fill="#FFB500"/><path d="M631.202 433.231h-1.374c-.458 0-.916-.382-.916-.916v-6.795c0-.458.381-.916.916-.916h1.374c.458 0 .916.381.916.916v6.795c-.076.458-.458.916-.916.916z" fill="#242729"/><path d="M631.202 428.879c0 .458-.382.84-.84.84h-1.603c-.763 0-1.603.153-2.29.534-.611.306-1.375.458-2.062.458h-46.802v-3.588h46.726c.763 0 1.603.153 2.29.535.611.305 1.298.458 2.062.458h1.756c.382 0 .763.305.763.763z" fill="#FFFFFB"/><path d="M631.202 464.152h-1.374c-.458 0-.916-.381-.916-.916v-6.795c0-.458.381-.916.916-.916h1.374c.458 0 .916.382.916.916v6.795c-.076.535-.458.916-.916.916z" fill="#242729"/><path d="M631.202 459.877c0 .458-.382.84-.84.84h-1.603c-.763 0-1.603.152-2.29.534-.611.305-1.375.458-2.062.458h-46.802v-3.588h46.726c.763 0 1.603.152 2.29.534.611.306 1.298.458 2.062.458h1.756c.382-.076.763.306.763.764z" fill="#FFFFFB"/><path d="M631.202 495.15h-1.374c-.458 0-.916-.382-.916-.916v-6.795c0-.458.381-.916.916-.916h1.374c.458 0 .916.381.916.916v6.795c-.076.534-.458.916-.916.916z" fill="#242729"/><path d="M631.202 490.875a.847.847 0 0 1-.84.839h-1.603c-.763 0-1.603.153-2.29.535-.611.305-1.375.458-2.062.458h-46.802v-3.512h46.726c.763 0 1.603.153 2.29.534.611.306 1.298.458 2.062.458h1.756c.382-.152.763.23.763.688z" fill="#FFFFFB"/><path d="M139.437 510.038h-9.009a1.89 1.89 0 0 1-1.909-1.908v-1.375c0-.687.153-1.374.535-1.985.381-.611.839-1.145 1.374-1.527a4.634 4.634 0 0 0 1.221-1.221l1.298-2.062 4.505 7.024 1.985 3.054z" fill="#242729"/><path d="M148.828 506.832c0 1.832-1.451 3.435-3.359 3.435h-9.162c-.458 0-.84-.076-1.222-.229a3.306 3.306 0 0 1-2.214-3.13v-7.024h14.277l1.527 6.26c.153.153.153.459.153.688z" fill="#242729"/><path d="M148.828 506.832c0 1.832-1.451 3.435-3.359 3.435h-9.162c-.458 0-.84-.076-1.222-.229h-4.733a1.89 1.89 0 0 1-1.909-1.909v-1.221h20.385v-.076z" fill="#F0F1F7"/><path d="M256.685 436.162l-6.886.922 9.787 73.104 6.886-.922-9.787-73.104z" fill="#F48024"/><path d="M51.56 510.267h746.694" stroke="#242729" stroke-width="1.527" stroke-miterlimit="10"/><path d="M346.343 211.818h-74.135v47.108h74.135v-47.108z" fill="#FFB500"/><path d="M611.199 135.594c0 18.553-15.041 33.593-33.594 33.593s-33.593-15.04-33.593-33.593c0-18.553 15.04-33.594 33.593-33.594 18.553 0 33.594 15.041 33.594 33.594z" fill="#9FA6AD"/><path d="M611.199 135.594c0 18.553-15.041 33.593-33.594 33.593V102c18.553 0 33.594 15.041 33.594 33.594z" fill="#3D8F58"/><path d="M603.259 135.594c0 14.201-11.529 25.653-25.73 25.653s-25.73-11.529-25.73-25.653c0-14.201 11.529-25.654 25.73-25.654s25.73 11.453 25.73 25.654z" fill="#FFFFFB"/><path d="M603.258 135.594c0 14.201-11.528 25.653-25.729 25.653v-51.383c14.277 0 25.729 11.529 25.729 25.73z" fill="#F0F1F7"/><path d="M561.954 123.225l15.651 12.369 11.071-7.559" stroke="#242729" stroke-width="1.527" stroke-miterlimit="10"/><path d="M577.605 137.426a1.833 1.833 0 1 0 0-3.665 1.833 1.833 0 0 0 0 3.665zM149.897 266.255c0 .611-.076 1.145-.306 1.68l-4.275 11.529a16.234 16.234 0 0 0-.916 4.657v.611l-.077 1.374c0-1.603-.687-3.13-2.061-4.046l-.076-.077a3.657 3.657 0 0 0-3.741-.305l-1.375.687c-.763.382-1.527.534-2.367.534-.61 0-1.221-.076-1.756-.305-1.145-.458-2.519-.229-3.435.534l-1.527 1.222a4.855 4.855 0 0 0-1.833 3.512l.077-1.832.076-.993c.076-1.603-.305-3.207-1.069-4.657l-2.825-4.963c-1.221-2.214-1.832-4.81-1.603-7.329l.382-4.352c.076-.993.076-2.062-.077-3.054l-.076-.458c-.382-2.367.687-4.658 2.596-6.032l3.741-2.596a6.298 6.298 0 0 1 6.031-.611c.764.306 1.604.535 2.444.535.534 0 1.145-.077 1.679-.229l2.367-.687c2.138-.611 4.428.381 5.574 2.29l1.756 3.054c.458.764.687 1.603.687 2.443v1.833c0 1.069.382 2.137.992 2.977.687.993.993 1.985.993 3.054z" fill="#242729"/><path d="M448.651 441.171c.84-2.825.84-5.955-.152-8.78l-6.414-19.087-5.039-14.965 11.911-4.275 7.253-2.596.229 2.596 1.756 19.164 1.451 15.88c.152 1.985.534 3.894 1.069 5.803a33.863 33.863 0 0 0 2.061 5.497l-17.637 12.597 3.512-11.834z" fill="#FFDDA6"/><path d="M458.119 413.38h-16.11l-5.039-14.964 11.91-4.199h7.483l1.756 19.163z" fill="#F48024"/><path d="M466.517 447.432l-5.039 4.657-1.527 1.375a24.258 24.258 0 0 0-4.352 5.268l-1.527 2.443c-.382.611-.916 1.145-1.451 1.603-.152.153-.305.229-.458.306a5.805 5.805 0 0 1-1.374.687c-.076 0-.153.076-.229.076a6.344 6.344 0 0 1-1.68.229h-9.467c-.687 0-1.221-.305-1.603-.84-.382-.534-.535-1.298-.153-1.985a25.589 25.589 0 0 1 6.108-8.398l13.59-12.674c1.603-1.527 3.97-1.833 5.955-.84.84.382 1.527 1.069 1.985 1.756.535.763.84 1.603.917 2.52l.305 3.817z" fill="#242729"/><path d="M466.517 447.432l-5.039 4.657-1.527 1.375a24.258 24.258 0 0 0-4.352 5.268l-1.527 2.443c-.382.611-.916 1.145-1.45 1.603-.153.153-.306.229-.459.306a5.805 5.805 0 0 1-1.374.687c-.076 0-.153.076-.229.076a6.344 6.344 0 0 1-1.68.229h-9.467c-.687 0-1.221-.305-1.603-.84l9.925-5.421a18.042 18.042 0 0 0 3.36-2.443c.992-.916 1.832-2.061 2.519-3.283.764-1.298 1.68-2.519 2.825-3.588l2.519-2.367c1.375-1.298 3.513-1.451 5.04-.458l2.519 1.756z" fill="#FFFFFB"/><path d="M492.018 354.286c-.535.763-1.222 1.451-2.062 1.909l-12.368 7.787-2.062-3.894-2.138-4.122 8.246-8.475-3.665-15.194-6.947-.992-31.151-4.581-.763-.076-3.283 19.698c-.077.381-.077.763.076 1.145l2.825 11.91.687 2.902-9.467 2.824-6.032-9.543c-1.45-2.291-1.985-5.039-1.527-7.788l6.872-38.022c.687-3.893 3.512-7.1 7.329-8.322l15.117-4.733 14.43 1.298 8.551 3.13 6.948 5.573 1.909 1.527 9.62 40.389c.534 1.832.076 3.97-1.145 5.65z" fill="#FFDDA6"/><path d="M478.886 341.307c-2.062 5.649-2.444 11.757-1.069 17.56l4.046 17.331a6.35 6.35 0 0 1 .229 1.68c.687 7.024-4.81 13.285-12.139 13.285h-45.199c-1.069 0-2.138.381-2.901.992a4.326 4.326 0 0 0-1.68 2.596 18.998 18.998 0 0 1-5.421 9.162 18.08 18.08 0 0 1-6.413 3.97l-.305.153a5.012 5.012 0 0 1-1.756.305h-.077c-3.13-.076-5.039-3.359-3.741-6.184l7.559-16.262 1.756-3.818a43.162 43.162 0 0 1 5.42-8.78c.993-1.298 2.138-2.52 3.207-3.741 1.298-1.298 2.596-2.52 3.97-3.665.458-.382.916-.84 1.298-1.374l.306-.458 10.765-14.507c.992-1.298 1.527-2.901 1.603-4.504 0-.458 0-.916-.076-1.375l-.84-5.955.229-1.45.993-5.879.534-3.054v-.077c.076-.381.153-.839.305-1.221a22.17 22.17 0 0 0 1.833-8.857c0-2.825-.535-5.65-1.603-8.322l-2.978-7.558 11.758-3.665 5.42 4.657a15.278 15.278 0 0 0 7.788 3.436c1.222.153 2.367.153 3.588 0 2.825-.305 5.498-1.451 7.788-3.359l1.68-1.375 3.206 1.145c2.978 1.069 5.192 3.665 5.803 6.643.153.611.229 1.221.229 1.909v10.307c0 4.962-.916 9.925-2.825 14.506l-1.985 4.886c-.076.153-.153.382-.229.535 0 .153-.076.229-.076.382z" fill="#2A2D6E"/><path d="M474.076 300.765l-.382-.153a9.982 9.982 0 0 1-3.97-2.595l-2.749-2.825H453.69l-1.908 1.374 4.123 2.443c3.741 2.214 8.093 3.13 12.444 2.52l5.727-.764z" fill="#F48024"/><path d="M86.527 476.063c0 19.316-15.651 34.968-34.968 34.968-19.316 0-34.968-15.652-34.968-34.968h69.936z" fill="#FFB500"/><path d="M228.078 446.363h-46.267a3.227 3.227 0 0 0-3.207 3.207 3.226 3.226 0 0 0 3.207 3.206h46.267a3.225 3.225 0 0 0 3.207-3.206c0-1.833-1.45-3.207-3.207-3.207z" fill="#242729"/><path d="M86.527 476.063c0 19.316-15.651 34.968-34.968 34.968-19.316 0-34.968-15.652-34.968-34.968h69.936z" fill="#FFDDA6"/><mask id="a" style="mask-type:alpha" maskUnits="userSpaceOnUse" x="16" y="476" width="71" height="36"><path d="M86.527 476.063c0 19.316-15.651 34.968-34.968 34.968-19.316 0-34.968-15.652-34.968-34.968h69.936z" fill="#FFDDA6"/></mask><g mask="url(#a)"><path d="M92.1 483.087H10.941v2.978h81.16v-2.978zm0 10.689H10.941v2.978h81.16v-2.978z" fill="#FFFFFB"/></g><path d="M62.63 173.262H51.712v10.918H62.63v-10.918z" fill="#3D8F58"/><path d="M79.656 173.262H68.738v10.918h10.918v-10.918zm17.025 0H85.763v10.918h10.918v-10.918zm-51 17.866H34.761v10.918H45.68v-10.918zm16.949 0H51.712v10.918H62.63v-10.918z" fill="#FFFFFB"/><path d="M79.656 191.128H68.738v10.918h10.918v-10.918zm17.025 0H85.763v10.918h10.918v-10.918zm-51 17.789H34.761v10.918H45.68v-10.918z" fill="#343BBA"/><path d="M62.63 208.917H51.712v10.918H62.63v-10.918z" fill="#F48024"/><path d="M79.656 208.917H68.738v10.918h10.918v-10.918zm390.297 182.169h-45.199c-1.069 0-2.138.382-2.901.993a4.326 4.326 0 0 0-1.68 2.596 19.002 19.002 0 0 1-5.421 9.162 30.28 30.28 0 0 1 .84-4.581c1.069-4.276 3.36-8.399 7.024-10.766 3.665-2.443 8.17-2.901 12.522-2.977 6.337 0 12.597.916 18.858 1.221 6.337.306 12.75.077 18.629-2.29 3.588-1.451 6.948-3.741 9.391-6.642.763 7.024-4.734 13.284-12.063 13.284z" fill="#242729"/><path d="M791.612 471.864c-1.451-15.27-8.017-30.006-18.553-41.153-2.596 2.444-5.573 6.032-6.49 9.468-.916 3.435-.534 7.406 1.604 10.231 2.748 3.664 7.711 4.81 11.605 7.176 5.497 3.36 9.238 9.468 9.696 15.881" fill="#F48024"/><path d="M791.383 472.093c4.046-27.944 1.832-56.804-6.413-83.832-5.574 2.444-8.857 8.17-9.926 14.125-1.069 5.955.153 12.139 2.214 17.866 2.062 5.726 4.963 11.147 7.33 16.72 5.192 12.216 8.016 26.493 2.748 38.633" fill="#FFDDA6"/><path d="M790.238 480.949c0-16.262 1.832-32.601 7.253-47.947 5.421-15.27 14.506-29.547 27.256-39.549 4.123 4.428 7.864 9.849 9.01 15.804 1.145 5.956.076 12.522-3.665 17.332-4.428 5.726-11.682 8.322-18.324 11.376-6.642 2.977-13.514 7.406-15.27 14.43 10.689-7.253 23.898-10.842 36.724-9.239.077 4.963-3.436 9.239-7.787 11.758-4.352 2.52-9.391 3.436-14.278 4.429-4.886.992-9.925 2.29-13.895 5.268-3.894 2.977-8.322 11.528-7.024 16.338z" fill="#2F6F44"/><path d="M825.129 465.832h-65.431v5.497h65.431v-5.497z" fill="#242729"/><path d="M272.208 222.507h51.002m-51.002 8.551h41.229m-41.229 8.551h51.002m-51.002 8.628h28.021m239.507 60.01h37.869m-37.869 8.551h37.869m-37.869 8.552h37.869m-37.869 8.627h27.944m-336.395-7.94h40.923m-40.923 8.551h40.923" stroke="#242729" stroke-width="1.527" stroke-miterlimit="10"/><path d="M445.292 296.261h4.734c1.908 0 3.817.458 5.573 1.297a12.292 12.292 0 0 0 11.071 0l9.849-4.886-1.451-8.627c-.458-2.902-.763-5.803-.763-8.781v-.076c0-5.268-3.054-10.002-7.864-12.139l-2.443-1.069c-3.589-1.604-7.712-1.298-11.071.763a16.403 16.403 0 0 0-7.635 13.819v19.699z" fill="#E05332"/><path d="M483.008 453.769h-61.842l.763-12.063h60.011l1.068 12.063zm1.222 16.491h-64.591l.763-6.26h63.065l.763 6.26z" fill="#535A60"/><path d="M416.89 510.038l7.635-104.903h54.819l7.635 104.903" stroke="#242729" stroke-width="1.527" stroke-miterlimit="10"/><path d="M479.115 391.086h-54.361a3.585 3.585 0 0 0-3.588 3.589v7.635a3.584 3.584 0 0 0 3.588 3.588h54.361a3.584 3.584 0 0 0 3.588-3.588v-7.635a3.585 3.585 0 0 0-3.588-3.589z" fill="#535A60"/><path d="M660.215 400.935h-47.184v8.551h47.184v-8.551z" fill="#3D8F58"/><path d="M642.731 387.422h-47.184v13.513h47.184v-13.513z" fill="#5F67FA"/><path d="M625.934 400.935h-3.817v8.551h3.817v-8.551zm25.119 0h-3.817v8.551h3.817v-8.551z" fill="#FFFFFB"/><path d="M630.362 387.422v13.513m5.879-13.513v13.513" stroke="#242729" stroke-width="1.527" stroke-miterlimit="10"/><path d="M605.702 398.568a4.352 4.352 0 1 0 0-8.704 4.352 4.352 0 0 0 0 8.704z" fill="#FFFFFB"/><path d="M346.343 211.818h-5.726v47.108h5.726v-47.108z" fill="#F0F1F7"/><path d="M346.343 214.643h-5.726l2.825-2.825 2.901 2.825zm-5.726 41.381h5.726l-2.901 2.825-2.825-2.825z" fill="#242729"/><path d="M577.605 211.818H394.52v15.346h183.085v-15.346z" fill="#5F67FA"/><path d="M272.208 468.581l-8.245-14.736-4.658 2.596 12.903 22.905v-10.765z" fill="#FFB500"/><path d="M60.11 211.513l-5.802 5.726m5.802 0l-5.802-5.726" stroke="#242729" stroke-width="1.527" stroke-miterlimit="10"/><path d="M541.416 426.665c0 8.246-6.719 14.964-14.965 14.964-8.246 0-14.964-6.718-14.964-14.964" fill="#242729"/><path d="M560.35 416.816v6.031c0 3.054-1.374 5.879-3.741 7.864l-3.665 2.978-1.908 1.527-1.069-1.374 2.748-2.214 2.749-2.215c1.985-1.603 3.13-3.97 3.13-6.489v-6.032a3.063 3.063 0 0 0-3.054-3.054h-10.307v-1.756h10.307c2.672-.076 4.81 2.062 4.81 4.734z" fill="#FFFFFB"/><path d="M532.941 419.03c.076-.687 0-1.374-.306-1.985l-3.664-9.009h21.301l.382 4.046.153 1.756.916 8.704.916 9.162.229 2.061.84 8.017h-23.134l1.985-19.24.382-3.512z" fill="#FFFFFB"/><path d="M560.35 422.389v.382c0 3.054-1.374 5.879-3.741 7.864l-3.665 2.978.84 8.016H530.65l1.985-19.24h19.24l.917 9.162 2.748-2.214c1.985-1.603 3.131-3.97 3.131-6.49v-.381h1.679v-.077z" fill="#F48024"/><path d="M528.971 432.315v-.611c0-.611-.229-1.222-.687-1.68l-.611-.611" stroke="#242729" stroke-width=".763" stroke-miterlimit="10"/><path d="M530.65 431.628a3.824 3.824 0 0 1-2.901 0 2.676 2.676 0 0 0-2.519.152 3.744 3.744 0 0 0-1.756 4.123l.763 3.283a3.312 3.312 0 0 0 4.276 2.367c.381-.153.839-.153 1.298 0a3.311 3.311 0 0 0 4.275-2.367l.764-3.283a3.747 3.747 0 0 0-1.756-4.123c-.688-.458-1.68-.534-2.444-.152z" fill="#E05332"/><path d="M527.367 441.629h3.665l-1.832-1.832-1.833 1.832z" fill="#E05332"/><path d="M738.855 339.703l-4.658 32.601.611 18.706h2.291c1.069 0 2.061-.535 2.748-1.374l1.833-2.52c.916-1.221 1.221-2.825.992-4.352l-.611-3.512c-.229-1.374-.229-2.748.153-4.123l6.108-33.441-9.467-1.985z" fill="#936231"/><path d="M742.519 343.063h-8.322l-.534 30.768 9.544 2.749 4.581-27.028c.61-3.741.916-7.558.916-11.299v-14.736" fill="#9FA6AD"/><path d="M741.069 321.609l-.916 36.265a85.346 85.346 0 0 1-.917 10.842l-.916 6.413-8.933-11.681 11.682-41.839z" fill="#535A60"/><path d="M747.024 498.968h-16.186l-4.886-21.454a94.763 94.763 0 0 1-1.604-9.315c-.381-3.13-.534-6.261-.534-9.467 0-5.497-.535-10.995-1.603-16.415l-8.017-40.847-12.292 97.421h-15.499l2.137-60.468-2.29-24.585c-.916-9.849-1.222-19.774-.84-29.699l.229-5.727.229-5.955.229-7.024 50.009 3.054 2.367 14.506c.382 2.443.763 4.963 1.069 7.483.458 3.664.763 7.253 1.069 10.917.381 5.65.534 11.3.381 17.026v1.756c-.152 7.406.153 14.812.84 22.218l5.192 56.575z" fill="#535A60"/><path d="M739.465 390.628c-6.642-3.817-13.971-6.26-21.53-7.253-6.413-.84-12.979-.611-19.164-2.214-5.115-1.298-10.154-4.123-12.903-8.475l.229-7.024 50.009 3.054 2.367 14.506c.305 2.367.687 4.887.992 7.406z" fill="#242729"/><path d="M727.479 262.743v.153c0 2.901-.84 5.802-2.291 8.246l-.534.916c-1.146 1.909-1.68 4.199-1.451 6.413v.306l.382 2.519-18.324.916-1.909-.382c-1.679-.305-2.901-1.756-2.901-3.512v-6.642c0-.687.076-1.374.229-2.061l.611-2.596c.153-.535.152-.993.076-1.527l-.229-2.52c-.076-.916.076-1.832.535-2.596l1.985-3.893 1.298-2.52c1.527-2.901 4.504-4.734 7.787-4.734h3.512c2.825 0 5.574 1.222 7.406 3.436 0 .076.076.076.076.153 2.444 2.672 3.742 6.26 3.742 9.925z" fill="#936231"/><path d="M701.138 287.633l1.833-3.588c.916-1.756 2.366-3.207 4.199-4.047h.076c1.603-.763 3.283-.992 4.963-.763l10.383 1.45c1.146.153 2.138.993 2.367 2.138l1.298 5.115-25.119-.305z" fill="#535A60"/><path d="M658.612 268.088l-1.222-1.833c-.305-.534-.382-1.145-.153-1.679l1.298-3.512c.229-.764.153-1.527-.305-2.215l-1.374-1.908c-.611-.84-1.527-1.222-2.52-1.146l-.534.077-5.879-5.955a1.453 1.453 0 0 0-1.451-.382c-.305.076-.458.458-.229.763l3.817 5.116-1.45 1.145c-.382.305-.611.687-.611 1.145v.84c0 .382-.153.764-.458 1.069-.382.382-.534.84-.458 1.298l.076.458c.077.382 0 .763-.229 1.069a1.263 1.263 0 0 0 0 1.45l.993 1.68c.305.535.763.993 1.298 1.298.763.535 1.374 1.298 1.679 2.138l1.146 3.359 6.566-4.275z" fill="#936231"/><path d="M735.495 343.597c-.229 3.589-.076 7.177.382 10.765l2.52 20.767c-5.421 2.291-11.224 3.436-17.103 3.436-2.29 0-4.657-.153-6.947-.534l-19.546-3.131c-1.45-.229-2.825-.84-4.046-1.679a9.036 9.036 0 0 1-2.214-2.291 7.855 7.855 0 0 1-.84-1.603c-.764-1.833-2.138-3.36-3.894-4.428l-3.283-1.909 3.436-14.659.458-1.833a88.497 88.497 0 0 0 2.29-15.422c.458-6.49.229-11.911-.611-18.4 0-.229-.076-.382-.076-.611-.076-.382-.076-.84-.153-1.222-.152-1.069-.534-2.061-1.069-2.977-.076-.077-.076-.153-.152-.229-.153-.229-.306-.458-.458-.611-.458-.611-.917-1.145-1.527-1.603-.077-.077-.153-.153-.229-.153-.459-.306-.917-.611-1.451-.84l-5.192-2.443-13.361-6.337c-1.603-.764-2.901-2.062-3.588-3.665l-8.628-18.629c-.229-.611-.076-1.298.535-1.68l7.635-4.733 10.078 16.415 10.231 2.595 6.107 1.527c1.298-.763 2.596-1.298 3.971-1.756a20.802 20.802 0 0 1 6.108-.916c.916 0 1.908.077 2.901.229 1.756.229 3.588.382 5.344.382h1.68l2.519-.153c10.079-.458 20.08 1.451 29.319 5.497l1.527.688c4.275 1.908 7.253 5.802 7.94 10.459l1.374 9.01c.687 4.275.993 8.627.993 12.979l-7.635 25.119h-4.429l-.916-5.421z" fill="#9FA6AD"/><path d="M727.479 262.743v.153c0 2.901-.84 5.802-2.291 8.246l-.534.916c-1.146 1.909-1.68 4.199-1.451 6.413l-8.322-1.145c-1.145-.153-2.138-1.069-2.367-2.214l-2.29-11.3a1.7 1.7 0 0 0-.611-.992 1.877 1.877 0 0 0-1.145-.382c-.688 0-1.375.382-1.604 1.069l-.916 2.138a1.75 1.75 0 0 1-1.756-1.604l-.534-7.635 1.298-2.519c1.527-2.902 4.504-4.734 7.787-4.734h3.512c2.825 0 5.574 1.222 7.406 3.436 0 .076.076.076.076.152 2.444 2.749 3.742 6.337 3.742 10.002z" fill="#242729"/><path d="M710.529 263.583c.229.993.153 1.985-.153 2.978l-.152.611c-.153.381-.153.763-.153 1.145 0 .992-.382 1.909-1.069 2.596l-.534.534" stroke="#242729" stroke-width=".763" stroke-miterlimit="10"/><path d="M735.419 347.873c-.153-9.01 1.832-18.095 5.726-26.265.076 9.086-1.298 18.324-5.726 26.265z" fill="#535A60"/><path d="M740.229 356.042l.84-34.434-4.81 22.218-.84 4.047 2.29 7.024 2.52 1.145zm-46.191-66.271l-9.009-2.291c1.297-.763 2.595-1.298 3.97-1.756 3.435 1.909 5.039 4.047 5.039 4.047z" fill="#535A60"/><path d="M684.799 306.415c0 .153.077.229.077.382-.077-.077-.077-.153-.153-.229l.076-.153z" fill="#7AC2D3"/><path d="M707.093 352.988c-7.711-6.566-14.582-13.743-20.309-21.912.459-6.49.23-13.056-.61-19.546 1.832 6.719 3.817 13.362 6.566 19.775 3.359 8.093 8.016 15.728 14.353 21.683z" fill="#535A60"/><path d="M682.585 304.125l.229.229c-.152-.077-.229-.153-.229-.229z" fill="#7AC2D3"/><path d="M697.397 310.996c-3.894.229-7.788-.229-11.529-1.298-.152-1.069-.534-2.061-1.069-2.978-.076-.076-.076-.152-.152-.229-.153-.229-.306-.458-.458-.61-.458-.611-.917-1.146-1.527-1.604-.077-.076-.153-.152-.229-.152-.458-.306-.917-.611-1.451-.84l16.415 7.711z" fill="#535A60"/><path d="M407.27 391.697c4.276-8.017 12.292-13.972 21.149-15.881-.84 2.749-3.894 4.123-6.643 4.887-7.405 2.214-10.918 5.955-14.506 10.994zm32.067-52.681c.534 2.138.229 4.581-.993 5.955 0-.458 0-.916-.076-1.374l-.84-5.955.229-1.451 1.527-9.009c.229 4.199.84 9.314 3.97 14.888-1.221-.84-2.977-1.756-3.817-3.054z" fill="#242729"/><path d="M157.99 371.541c-.764 3.359-3.359 7.482-5.803 10.383a40.715 40.715 0 0 0-6.108.916l-6.642 1.527c-.153 0-.305.077-.458.077 7.864-2.825 14.888-5.726 19.011-12.903zm-27.639-14.125c-5.42-3.894-9.925-9.009-13.055-14.812 2.29 2.444 4.886 5.192 7.406 7.406 2.519 2.291 5.497 3.971 5.649 7.406z" fill="#2F6F44"/><path d="M403.3 223.118a3.283 3.283 0 1 0 0-6.566 3.283 3.283 0 0 0 0 6.566zm10.307 0a3.283 3.283 0 1 0 0-6.566 3.283 3.283 0 0 0 0 6.566z" fill="#FFFFFB"/><path d="M423.914 223.118a3.283 3.283 0 1 0 0-6.566 3.283 3.283 0 0 0 0 6.566z" fill="#242729"/><path d="M180.36 250.527v12.14a3.78 3.78 0 0 0 3.818 3.817h47.107" stroke="#242729" stroke-width="1.527" stroke-miterlimit="10"/><path d="M219.756 266.408V246.71a3.781 3.781 0 0 1 3.818-3.818h7.711m-11.529 23.516v19.698a3.781 3.781 0 0 0 3.818 3.818h7.711" stroke="#242729" stroke-width="1.527" stroke-miterlimit="10"/><path d="M90.803 237.624H65.226v25.577h25.577v-25.577zm0 37.946H65.226v25.577h25.577V275.57z" fill="#F0F1F7"/><path d="M78.129 257.628l-8.78-8.78 4.275-4.352L78.13 249l13.208-13.132 4.276 4.276-17.484 17.484z" fill="#2F6F44"/><path d="M333.593 455.475l1.527-.687 2.291 21.378h-6.185a8.062 8.062 0 0 1-4.352-1.298l-2.443-1.603.458-.458a8.432 8.432 0 0 0 2.596-6.108v-1.909c0-4.047 2.367-7.711 6.108-9.315zm16.95 0l-1.527-.687-2.291 21.378h6.184a8.062 8.062 0 0 0 4.352-1.298l2.443-1.603-.458-.458a8.435 8.435 0 0 1-2.595-6.108v-1.909c0-4.047-2.444-7.711-6.108-9.315z" fill="#422307"/><path d="M353.062 473.112l-.153.305c-.61 1.604-2.214 2.749-3.97 2.749H335.12c-1.756 0-3.359-1.069-3.97-2.749l-.153-.305c-1.145-2.901-1.374-6.108-.763-9.162l.763-3.894c.077-.305.153-.611.229-.84.306-.916.764-1.679 1.298-2.366.764-.917 1.756-1.68 2.901-2.138a17.655 17.655 0 0 1 6.566-1.298c2.215 0 4.429.458 6.567 1.298 1.985.84 3.588 2.519 4.199 4.504.076.306.152.611.229.84l.763 3.894c.764 3.054.458 6.261-.687 9.162z" fill="#936231"/><path d="M347.183 473.417c-.152-.916-.763-1.756-1.603-2.214a3.362 3.362 0 0 1-1.603-2.901 1.89 1.89 0 0 0-1.909-1.909 1.89 1.89 0 0 0-1.909 1.909c0 1.222-.611 2.29-1.603 2.901-.84.458-1.374 1.298-1.604 2.214l-.534 2.749h11.3l-.535-2.749z" fill="#84511E"/><path d="M344.816 472.654a1.333 1.333 0 0 0-1.068-.535h-3.36c-.382 0-.763.153-1.069.535a1.76 1.76 0 0 0-.152 1.832l.61 1.145c.229.382.535.611.993.611h2.596c.382 0 .763-.229.992-.611l.611-1.145c.306-.611.229-1.374-.153-1.832z" fill="#422307"/><path d="M338.708 475.25h1.986c.534 0 .992-.458.992-.993a1.01 1.01 0 0 0-.992-.992h-.153a.684.684 0 0 0-.687.687c0 .229.152.458.381.611l.688.305h-2.749m7.253.382h-1.985a1.01 1.01 0 0 1-.992-.993c0-.534.458-.992.992-.992h.153c.382 0 .687.305.687.687 0 .229-.153.458-.382.611l-.687.305h2.749" fill="#242729"/><path d="M342.068 453.261v16.262l-1.909-1.297v-2.367c0-1.909-.992-3.741-2.519-4.81l-1.222-.84c-.611-.458-1.374-.687-2.138-.687-.916 0-1.756.305-2.443.84-.687.534-1.145 1.298-1.374 2.214l-.229 1.374.763-3.894c.077-.305.153-.611.229-.84.306-.916.764-1.679 1.298-2.366.764-.917 1.756-1.68 2.901-2.138a15.806 15.806 0 0 1 6.643-1.451zm0 0v16.262l1.909-1.297v-2.367c0-1.909.992-3.741 2.519-4.81l1.222-.84c.61-.458 1.374-.687 2.137-.687.917 0 1.756.305 2.444.84.687.534 1.145 1.298 1.374 2.214l.229 1.145-.764-3.894c-.076-.305-.152-.611-.229-.84-.305-.916-.763-1.679-1.298-2.367-.763-.916-1.756-1.679-2.901-2.137-2.214-.764-4.428-1.222-6.642-1.222zm-5.116 20.156c-.152.611-.534 1.069-1.145 1.146a1.555 1.555 0 0 0-1.069.992l-.229.611h3.97l-1.527-2.749zm10.231 0c.153.611.535 1.069 1.146 1.146.534.152.916.534 1.068.992l.229.611h-3.97l1.527-2.749z" fill="#84511E"/><path d="M377.57 471.585c-2.443-.611-5.039-.535-7.482.153l-3.436.992a90.22 90.22 0 0 1-49.321 0l-3.436-.992c-2.443-.688-5.039-.764-7.482-.153-7.864 1.909-12.751 9.849-10.765 17.713l3.588 14.659c.992 4.123 4.734 7.024 8.933 7.024h67.492a9.155 9.155 0 0 0 8.933-7.024l3.589-14.659c2.138-7.864-2.749-15.804-10.613-17.713z" fill="#FFDDA6"/><path d="M332.83 467.462l.839-.229c1.069-.382 2.215-.458 3.36-.458l1.679.076-1.679-.992c-.916-.535-2.138-.382-2.978.382l-1.221 1.221zm18.476 0l-.84-.229c-1.069-.382-2.214-.458-3.359-.458l-1.68.076 1.68-.992c.916-.535 2.138-.382 2.978.382l1.221 1.221z" fill="#242729"/><path d="M577.529 447.203h-75.128v25.271h75.128v-25.271zm0 30.998h-75.128v25.271h75.128v-25.271z" fill="#FFFFFB"/><path d="M561.495 447.203c0 3.283-2.672 5.879-5.878 5.879-3.283 0-5.879-2.672-5.879-5.879m11.757 30.998c0 3.283-2.672 5.879-5.878 5.879-3.283 0-5.879-2.673-5.879-5.879" fill="#242729"/><path d="M384.747 394.98h-41.534v28.249h41.534V394.98z" fill="#5EBA7D"/><path d="M356.116 401.546v2.825l-4.81 4.734 4.81 4.81v2.748l-7.558-7.558 7.558-7.559zm15.728 15.117v-2.748l4.734-4.81-4.734-4.734v-2.825l7.559 7.559-7.559 7.558zm-12.827 0h2.444l7.405-15.117H366.5l-7.483 15.117z" fill="#FFFFFB"/><path d="M384.671 391.697h-41.458v3.283h41.458v-3.283z" fill="#242729"/><path d="M577.605 238.922h-37.869v57.72h37.869v-57.72z" fill="#FFB500"/><path d="M516.373 249.458h-11.147v32.754h11.147v-32.754zm85.817 32.754h-14.889a2.216 2.216 0 0 0-2.214 2.215c0 1.221.993 2.214 2.214 2.214h14.889a2.216 2.216 0 0 0 2.214-2.214 2.216 2.216 0 0 0-2.214-2.215z" fill="#242729"/><path d="M602.19 274.577h-14.889a2.216 2.216 0 0 0-2.214 2.215c0 1.221.993 2.214 2.214 2.214h14.889a2.216 2.216 0 0 0 2.214-2.214 2.216 2.216 0 0 0-2.214-2.215z" fill="#FFB500"/><path d="M645.021 307.484h-67.416v39.014h67.416v-39.014z" fill="#5F67FA"/><path d="M577.605 330.923h14.43c1.603 4.581 5.955 7.788 11.071 7.788 5.192 0 9.62-3.36 11.147-8.093h-12.14l-2.596-3.665 2.596-3.665h12.14a11.691 11.691 0 0 0-11.147-8.093c-5.116 0-9.468 3.283-11.071 7.788h-14.43v7.94z" fill="#FFFFFB"/><path d="M632.958 346.498v-39.014l12.063 19.469-12.063 19.545z" fill="#FFDDA6"/><path d="M620.971 346.498v-39.014l11.987 19.469-11.987 19.545z" fill="#242729"/><path d="M43.772 165.627a1.369 1.369 0 0 1-1.375-1.374v-8.246c0-.764.611-1.374 1.375-1.374.763 0 1.374.61 1.374 1.374v8.169c0 .84-.611 1.451-1.374 1.451zm43.9 0a1.369 1.369 0 0 1-1.374-1.374v-8.246c0-.764.61-1.374 1.374-1.374.764 0 1.374.61 1.374 1.374v8.169c0 .84-.61 1.451-1.374 1.451z" fill="#F48024"/><path d="M809.478 511.031H775.35c-3.436 0-6.337-2.443-7.025-5.803l-6.489-33.975h61.156l-6.49 33.975c-.687 3.36-3.589 5.803-7.024 5.803z" fill="#3D8F58"/><mask id="b" style="mask-type:alpha" maskUnits="userSpaceOnUse" x="761" y="471" width="62" height="41"><path d="M809.478 511.031H775.35c-3.436 0-6.337-2.443-7.025-5.803l-6.489-33.975h61.156l-6.49 33.975c-.687 3.36-3.589 5.803-7.024 5.803z" fill="#3D8F58"/></mask><g mask="url(#b)"><path d="M757.484 482.629h73.6m-73.6 12.521h73.6" stroke="#242729" stroke-width="1.527" stroke-miterlimit="10"/></g><path d="M832.23 168.91v69.02l-13.743-18.4h-68.333v-50.62h82.076z" fill="#FFDDA6"/><path d="M770.692 197.77a3.589 3.589 0 1 0 0-7.178 3.589 3.589 0 0 0 0 7.178zm18.248 0a3.588 3.588 0 1 0 0-7.176 3.588 3.588 0 0 0 0 7.176zm18.247 0a3.589 3.589 0 1 0 0-7.178 3.589 3.589 0 0 0 0 7.178z" fill="#242729"/></g><defs><clipPath id="clip0_188_4729"><path fill="#fff" d="M0 0H883V610H0z"/></clipPath></defs></svg>